<svg width="398" height="98" viewBox="0 0 398 98" fill="none" xmlns="http://www.w3.org/2000/svg">
<g filter="url(#filter0_dd)">
<rect x="4" y="2" width="390" height="88" rx="7" fill="white"/>
</g>
<path d="M327.578 59.2422H324.496L323.91 61H322.041L325.217 52.4688H326.846L330.039 61H328.17L327.578 59.2422ZM324.971 57.8184H327.104L326.031 54.625L324.971 57.8184ZM333.361 59.752C333.674 59.752 333.928 59.666 334.123 59.4941C334.318 59.3223 334.42 59.0938 334.428 58.8086H336.016C336.012 59.2383 335.895 59.6328 335.664 59.9922C335.434 60.3477 335.117 60.625 334.715 60.8242C334.316 61.0195 333.875 61.1172 333.391 61.1172C332.484 61.1172 331.77 60.8301 331.246 60.2559C330.723 59.6777 330.461 58.8809 330.461 57.8652V57.7539C330.461 56.7773 330.721 55.998 331.24 55.416C331.76 54.834 332.473 54.543 333.379 54.543C334.172 54.543 334.807 54.7695 335.283 55.2227C335.764 55.6719 336.008 56.2715 336.016 57.0215H334.428C334.42 56.6934 334.318 56.4277 334.123 56.2246C333.928 56.0176 333.67 55.9141 333.35 55.9141C332.955 55.9141 332.656 56.0586 332.453 56.3477C332.254 56.6328 332.154 57.0977 332.154 57.7422V57.918C332.154 58.5703 332.254 59.0391 332.453 59.3242C332.652 59.6094 332.955 59.752 333.361 59.752ZM339.01 53.1016V54.6602H340.094V55.9023H339.01V59.0664C339.01 59.3008 339.055 59.4688 339.145 59.5703C339.234 59.6719 339.406 59.7227 339.66 59.7227C339.848 59.7227 340.014 59.709 340.158 59.6816V60.9648C339.826 61.0664 339.484 61.1172 339.133 61.1172C337.945 61.1172 337.34 60.5176 337.316 59.3184V55.9023H336.391V54.6602H337.316V53.1016H339.01ZM342.824 61H341.125V54.6602H342.824V61ZM341.025 53.0195C341.025 52.7656 341.109 52.5566 341.277 52.3926C341.449 52.2285 341.682 52.1465 341.975 52.1465C342.264 52.1465 342.494 52.2285 342.666 52.3926C342.838 52.5566 342.924 52.7656 342.924 53.0195C342.924 53.2773 342.836 53.4883 342.66 53.6523C342.488 53.8164 342.26 53.8984 341.975 53.8984C341.689 53.8984 341.459 53.8164 341.283 53.6523C341.111 53.4883 341.025 53.2773 341.025 53.0195ZM346.598 58.9316L347.775 54.6602H349.545L347.406 61H345.789L343.65 54.6602H345.42L346.598 58.9316ZM352.082 61H350.383V54.6602H352.082V61ZM350.283 53.0195C350.283 52.7656 350.367 52.5566 350.535 52.3926C350.707 52.2285 350.939 52.1465 351.232 52.1465C351.521 52.1465 351.752 52.2285 351.924 52.3926C352.096 52.5566 352.182 52.7656 352.182 53.0195C352.182 53.2773 352.094 53.4883 351.918 53.6523C351.746 53.8164 351.518 53.8984 351.232 53.8984C350.947 53.8984 350.717 53.8164 350.541 53.6523C350.369 53.4883 350.283 53.2773 350.283 53.0195ZM355.51 53.1016V54.6602H356.594V55.9023H355.51V59.0664C355.51 59.3008 355.555 59.4688 355.645 59.5703C355.734 59.6719 355.906 59.7227 356.16 59.7227C356.348 59.7227 356.514 59.709 356.658 59.6816V60.9648C356.326 61.0664 355.984 61.1172 355.633 61.1172C354.445 61.1172 353.84 60.5176 353.816 59.3184V55.9023H352.891V54.6602H353.816V53.1016H355.51ZM359.904 58.6035L361.076 54.6602H362.893L360.344 61.9844L360.203 62.3184C359.824 63.1465 359.199 63.5605 358.328 63.5605C358.082 63.5605 357.832 63.5234 357.578 63.4492V62.166L357.836 62.1719C358.156 62.1719 358.395 62.123 358.551 62.0254C358.711 61.9277 358.836 61.7656 358.926 61.5391L359.125 61.0176L356.904 54.6602H358.727L359.904 58.6035Z" fill="#383838"/>
<path d="M342 48C343.1 48 344 47.1 344 46H340C340 47.1 340.89 48 342 48ZM348 42V37C348 33.93 346.36 31.36 343.5 30.68V30C343.5 29.17 342.83 28.5 342 28.5C341.17 28.5 340.5 29.17 340.5 30V30.68C337.63 31.36 336 33.92 336 37V42L334 44V45H350V44L348 42Z" fill="#383838"/>
<circle cx="347.5" cy="32.5" r="3.5" fill="#FA7A70"/>
<path d="M42.5469 60H41.416V56.0566H37.1152V60H35.9902V51.4688H37.1152V55.1367H41.416V51.4688H42.5469V60ZM44.0879 56.7715C44.0879 56.1504 44.209 55.5918 44.4512 55.0957C44.6973 54.5996 45.0371 54.2168 45.4707 53.9473C45.9082 53.6777 46.4062 53.543 46.9648 53.543C47.8281 53.543 48.5254 53.8418 49.0566 54.4395C49.5918 55.0371 49.8594 55.832 49.8594 56.8242V56.9004C49.8594 57.5176 49.7402 58.0723 49.502 58.5645C49.2676 59.0527 48.9297 59.4336 48.4883 59.707C48.0508 59.9805 47.5469 60.1172 46.9766 60.1172C46.1172 60.1172 45.4199 59.8184 44.8848 59.2207C44.3535 58.623 44.0879 57.832 44.0879 56.8477V56.7715ZM45.1777 56.9004C45.1777 57.6035 45.3398 58.168 45.6641 58.5938C45.9922 59.0195 46.4297 59.2324 46.9766 59.2324C47.5273 59.2324 47.9648 59.0176 48.2891 58.5879C48.6133 58.1543 48.7754 57.5488 48.7754 56.7715C48.7754 56.0762 48.6094 55.5137 48.2773 55.084C47.9492 54.6504 47.5117 54.4336 46.9648 54.4336C46.4297 54.4336 45.998 54.6465 45.6699 55.0723C45.3418 55.498 45.1777 56.1074 45.1777 56.9004ZM52.2383 53.6602L52.2676 54.3633C52.7324 53.8164 53.3594 53.543 54.1484 53.543C55.0352 53.543 55.6387 53.8828 55.959 54.5625C56.1699 54.2578 56.4434 54.0117 56.7793 53.8242C57.1191 53.6367 57.5195 53.543 57.9805 53.543C59.3711 53.543 60.0781 54.2793 60.1016 55.752V60H59.0176V55.8164C59.0176 55.3633 58.9141 55.0254 58.707 54.8027C58.5 54.5762 58.1523 54.4629 57.6641 54.4629C57.2617 54.4629 56.9277 54.584 56.6621 54.8262C56.3965 55.0645 56.2422 55.3867 56.1992 55.793V60H55.1094V55.8457C55.1094 54.9238 54.6582 54.4629 53.7559 54.4629C53.0449 54.4629 52.5586 54.7656 52.2969 55.3711V60H51.2129V53.6602H52.2383ZM64.373 60.1172C63.5137 60.1172 62.8145 59.8359 62.2754 59.2734C61.7363 58.707 61.4668 57.9512 61.4668 57.0059V56.8066C61.4668 56.1777 61.5859 55.6172 61.8242 55.125C62.0664 54.6289 62.4023 54.2422 62.832 53.9648C63.2656 53.6836 63.7344 53.543 64.2383 53.543C65.0625 53.543 65.7031 53.8145 66.1602 54.3574C66.6172 54.9004 66.8457 55.6777 66.8457 56.6895V57.1406H62.5508C62.5664 57.7656 62.748 58.2715 63.0957 58.6582C63.4473 59.041 63.8926 59.2324 64.4316 59.2324C64.8145 59.2324 65.1387 59.1543 65.4043 58.998C65.6699 58.8418 65.9023 58.6348 66.1016 58.377L66.7637 58.8926C66.2324 59.709 65.4355 60.1172 64.373 60.1172ZM64.2383 54.4336C63.8008 54.4336 63.4336 54.5938 63.1367 54.9141C62.8398 55.2305 62.6562 55.6758 62.5859 56.25H65.7617V56.168C65.7305 55.6172 65.582 55.1914 65.3164 54.8906C65.0508 54.5859 64.6914 54.4336 64.2383 54.4336Z" fill="#383838"/>
<path d="M50 38.5H49.5V39V44.5H45.5V37V36.5H45H43.303L52 28.6727L60.697 36.5H59H58.5V37V44.5H54.5V39V38.5H54H50Z" fill="white" stroke="#383838"/>
<path d="M103.266 57.293C103.16 58.1953 102.826 58.8926 102.264 59.3848C101.705 59.873 100.961 60.1172 100.031 60.1172C99.0234 60.1172 98.2148 59.7559 97.6055 59.0332C97 58.3105 96.6973 57.3438 96.6973 56.1328V55.3125C96.6973 54.5195 96.8379 53.8223 97.1191 53.2207C97.4043 52.6191 97.8066 52.1582 98.3262 51.8379C98.8457 51.5137 99.4473 51.3516 100.131 51.3516C101.037 51.3516 101.764 51.6055 102.311 52.1133C102.857 52.6172 103.176 53.3164 103.266 54.2109H102.135C102.037 53.5312 101.824 53.0391 101.496 52.7344C101.172 52.4297 100.717 52.2773 100.131 52.2773C99.4121 52.2773 98.8477 52.543 98.4375 53.0742C98.0312 53.6055 97.8281 54.3613 97.8281 55.3418V56.168C97.8281 57.0938 98.0215 57.8301 98.4082 58.377C98.7949 58.9238 99.3359 59.1973 100.031 59.1973C100.656 59.1973 101.135 59.0566 101.467 58.7754C101.803 58.4902 102.025 57.9961 102.135 57.293H103.266ZM104.35 56.7715C104.35 56.1504 104.471 55.5918 104.713 55.0957C104.959 54.5996 105.299 54.2168 105.732 53.9473C106.17 53.6777 106.668 53.543 107.227 53.543C108.09 53.543 108.787 53.8418 109.318 54.4395C109.854 55.0371 110.121 55.832 110.121 56.8242V56.9004C110.121 57.5176 110.002 58.0723 109.764 58.5645C109.529 59.0527 109.191 59.4336 108.75 59.707C108.312 59.9805 107.809 60.1172 107.238 60.1172C106.379 60.1172 105.682 59.8184 105.146 59.2207C104.615 58.623 104.35 57.832 104.35 56.8477V56.7715ZM105.439 56.9004C105.439 57.6035 105.602 58.168 105.926 58.5938C106.254 59.0195 106.691 59.2324 107.238 59.2324C107.789 59.2324 108.227 59.0176 108.551 58.5879C108.875 58.1543 109.037 57.5488 109.037 56.7715C109.037 56.0762 108.871 55.5137 108.539 55.084C108.211 54.6504 107.773 54.4336 107.227 54.4336C106.691 54.4336 106.26 54.6465 105.932 55.0723C105.604 55.498 105.439 56.1074 105.439 56.9004ZM112.506 53.6602L112.541 54.457C113.025 53.8477 113.658 53.543 114.439 53.543C115.779 53.543 116.455 54.2988 116.467 55.8105V60H115.383V55.8047C115.379 55.3477 115.273 55.0098 115.066 54.791C114.863 54.5723 114.545 54.4629 114.111 54.4629C113.76 54.4629 113.451 54.5566 113.186 54.7441C112.92 54.9316 112.713 55.1777 112.564 55.4824V60H111.48V53.6602H112.506ZM119.572 52.125V53.6602H120.756V54.498H119.572V58.4297C119.572 58.6836 119.625 58.875 119.73 59.0039C119.836 59.1289 120.016 59.1914 120.27 59.1914C120.395 59.1914 120.566 59.168 120.785 59.1211V60C120.5 60.0781 120.223 60.1172 119.953 60.1172C119.469 60.1172 119.104 59.9707 118.857 59.6777C118.611 59.3848 118.488 58.9688 118.488 58.4297V54.498H117.334V53.6602H118.488V52.125H119.572ZM125.941 60C125.879 59.875 125.828 59.6523 125.789 59.332C125.285 59.8555 124.684 60.1172 123.984 60.1172C123.359 60.1172 122.846 59.9414 122.443 59.5898C122.045 59.2344 121.846 58.7852 121.846 58.2422C121.846 57.582 122.096 57.0703 122.596 56.707C123.1 56.3398 123.807 56.1562 124.717 56.1562H125.771V55.6582C125.771 55.2793 125.658 54.9785 125.432 54.7559C125.205 54.5293 124.871 54.416 124.43 54.416C124.043 54.416 123.719 54.5137 123.457 54.709C123.195 54.9043 123.064 55.1406 123.064 55.418H121.975C121.975 55.1016 122.086 54.7969 122.309 54.5039C122.535 54.207 122.84 53.9727 123.223 53.8008C123.609 53.6289 124.033 53.543 124.494 53.543C125.225 53.543 125.797 53.7266 126.211 54.0938C126.625 54.457 126.84 54.959 126.855 55.5996V58.5176C126.855 59.0996 126.93 59.5625 127.078 59.9062V60H125.941ZM124.143 59.1738C124.482 59.1738 124.805 59.0859 125.109 58.9102C125.414 58.7344 125.635 58.5059 125.771 58.2246V56.9238H124.922C123.594 56.9238 122.93 57.3125 122.93 58.0898C122.93 58.4297 123.043 58.6953 123.27 58.8867C123.496 59.0781 123.787 59.1738 124.143 59.1738ZM131.098 59.2324C131.484 59.2324 131.822 59.1152 132.111 58.8809C132.4 58.6465 132.561 58.3535 132.592 58.002H133.617C133.598 58.3652 133.473 58.7109 133.242 59.0391C133.012 59.3672 132.703 59.6289 132.316 59.8242C131.934 60.0195 131.527 60.1172 131.098 60.1172C130.234 60.1172 129.547 59.8301 129.035 59.2559C128.527 58.6777 128.273 57.8887 128.273 56.8887V56.707C128.273 56.0898 128.387 55.541 128.613 55.0605C128.84 54.5801 129.164 54.207 129.586 53.9414C130.012 53.6758 130.514 53.543 131.092 53.543C131.803 53.543 132.393 53.7559 132.861 54.1816C133.334 54.6074 133.586 55.1602 133.617 55.8398H132.592C132.561 55.4297 132.404 55.0938 132.123 54.832C131.846 54.5664 131.502 54.4336 131.092 54.4336C130.541 54.4336 130.113 54.6328 129.809 55.0312C129.508 55.4258 129.357 55.998 129.357 56.748V56.9531C129.357 57.6836 129.508 58.2461 129.809 58.6406C130.109 59.0352 130.539 59.2324 131.098 59.2324ZM136.307 52.125V53.6602H137.49V54.498H136.307V58.4297C136.307 58.6836 136.359 58.875 136.465 59.0039C136.57 59.1289 136.75 59.1914 137.004 59.1914C137.129 59.1914 137.301 59.168 137.52 59.1211V60C137.234 60.0781 136.957 60.1172 136.688 60.1172C136.203 60.1172 135.838 59.9707 135.592 59.6777C135.346 59.3848 135.223 58.9688 135.223 58.4297V54.498H134.068V53.6602H135.223V52.125H136.307ZM142.453 58.3184C142.453 58.0254 142.342 57.7988 142.119 57.6387C141.9 57.4746 141.516 57.334 140.965 57.2168C140.418 57.0996 139.982 56.959 139.658 56.7949C139.338 56.6309 139.1 56.4355 138.943 56.209C138.791 55.9824 138.715 55.7129 138.715 55.4004C138.715 54.8809 138.934 54.4414 139.371 54.082C139.812 53.7227 140.375 53.543 141.059 53.543C141.777 53.543 142.359 53.7285 142.805 54.0996C143.254 54.4707 143.479 54.9453 143.479 55.5234H142.389C142.389 55.2266 142.262 54.9707 142.008 54.7559C141.758 54.541 141.441 54.4336 141.059 54.4336C140.664 54.4336 140.355 54.5195 140.133 54.6914C139.91 54.8633 139.799 55.0879 139.799 55.3652C139.799 55.627 139.902 55.8242 140.109 55.957C140.316 56.0898 140.689 56.2168 141.229 56.3379C141.771 56.459 142.211 56.6035 142.547 56.7715C142.883 56.9395 143.131 57.1426 143.291 57.3809C143.455 57.6152 143.537 57.9023 143.537 58.2422C143.537 58.8086 143.311 59.2637 142.857 59.6074C142.404 59.9473 141.816 60.1172 141.094 60.1172C140.586 60.1172 140.137 60.0273 139.746 59.8477C139.355 59.668 139.049 59.418 138.826 59.0977C138.607 58.7734 138.498 58.4238 138.498 58.0488H139.582C139.602 58.4121 139.746 58.7012 140.016 58.916C140.289 59.127 140.648 59.2324 141.094 59.2324C141.504 59.2324 141.832 59.1504 142.078 58.9863C142.328 58.8184 142.453 58.5957 142.453 58.3184Z" fill="#383838"/>
<path d="M127.49 33C127.49 34.386 126.382 35.5 125 35.5C123.616 35.5 122.5 34.3839 122.5 33C122.5 31.6161 123.616 30.5 125 30.5C126.382 30.5 127.49 31.614 127.49 33ZM119.49 33C119.49 34.386 118.382 35.5 117 35.5C115.616 35.5 114.5 34.3839 114.5 33C114.5 31.6161 115.616 30.5 117 30.5C118.382 30.5 119.49 31.614 119.49 33ZM110.5 41.5C110.5 41.1012 110.696 40.7151 111.105 40.3377C111.518 39.9571 112.113 39.6201 112.812 39.3405C114.211 38.7808 115.897 38.5 117 38.5C118.103 38.5 119.789 38.7808 121.188 39.3405C121.887 39.6201 122.482 39.9571 122.895 40.3377C123.304 40.7151 123.5 41.1012 123.5 41.5V43.5H110.5V41.5ZM126.5 41.5C126.5 40.2916 126.023 39.3013 125.298 38.5063C126.391 38.5505 127.91 38.829 129.188 39.3405C129.887 39.6201 130.482 39.9571 130.895 40.3377C131.304 40.7151 131.5 41.1012 131.5 41.5V43.5H126.5V41.5Z" fill="white" stroke="#383838"/>
<path d="M178.812 56.0566H175.115V59.0801H179.41V60H173.99V51.4688H179.352V52.3945H175.115V55.1367H178.812V56.0566ZM182.58 58.5293L184.15 53.6602H185.258L182.984 60H182.158L179.861 53.6602H180.969L182.58 58.5293ZM188.85 60.1172C187.99 60.1172 187.291 59.8359 186.752 59.2734C186.213 58.707 185.943 57.9512 185.943 57.0059V56.8066C185.943 56.1777 186.062 55.6172 186.301 55.125C186.543 54.6289 186.879 54.2422 187.309 53.9648C187.742 53.6836 188.211 53.543 188.715 53.543C189.539 53.543 190.18 53.8145 190.637 54.3574C191.094 54.9004 191.322 55.6777 191.322 56.6895V57.1406H187.027C187.043 57.7656 187.225 58.2715 187.572 58.6582C187.924 59.041 188.369 59.2324 188.908 59.2324C189.291 59.2324 189.615 59.1543 189.881 58.998C190.146 58.8418 190.379 58.6348 190.578 58.377L191.24 58.8926C190.709 59.709 189.912 60.1172 188.85 60.1172ZM188.715 54.4336C188.277 54.4336 187.91 54.5938 187.613 54.9141C187.316 55.2305 187.133 55.6758 187.062 56.25H190.238V56.168C190.207 55.6172 190.059 55.1914 189.793 54.8906C189.527 54.5859 189.168 54.4336 188.715 54.4336ZM193.607 53.6602L193.643 54.457C194.127 53.8477 194.76 53.543 195.541 53.543C196.881 53.543 197.557 54.2988 197.568 55.8105V60H196.484V55.8047C196.48 55.3477 196.375 55.0098 196.168 54.791C195.965 54.5723 195.646 54.4629 195.213 54.4629C194.861 54.4629 194.553 54.5566 194.287 54.7441C194.021 54.9316 193.814 55.1777 193.666 55.4824V60H192.582V53.6602H193.607ZM200.674 52.125V53.6602H201.857V54.498H200.674V58.4297C200.674 58.6836 200.727 58.875 200.832 59.0039C200.938 59.1289 201.117 59.1914 201.371 59.1914C201.496 59.1914 201.668 59.168 201.887 59.1211V60C201.602 60.0781 201.324 60.1172 201.055 60.1172C200.57 60.1172 200.205 59.9707 199.959 59.6777C199.713 59.3848 199.59 58.9688 199.59 58.4297V54.498H198.436V53.6602H199.59V52.125H200.674ZM206.82 58.3184C206.82 58.0254 206.709 57.7988 206.486 57.6387C206.268 57.4746 205.883 57.334 205.332 57.2168C204.785 57.0996 204.35 56.959 204.025 56.7949C203.705 56.6309 203.467 56.4355 203.311 56.209C203.158 55.9824 203.082 55.7129 203.082 55.4004C203.082 54.8809 203.301 54.4414 203.738 54.082C204.18 53.7227 204.742 53.543 205.426 53.543C206.145 53.543 206.727 53.7285 207.172 54.0996C207.621 54.4707 207.846 54.9453 207.846 55.5234H206.756C206.756 55.2266 206.629 54.9707 206.375 54.7559C206.125 54.541 205.809 54.4336 205.426 54.4336C205.031 54.4336 204.723 54.5195 204.5 54.6914C204.277 54.8633 204.166 55.0879 204.166 55.3652C204.166 55.627 204.27 55.8242 204.477 55.957C204.684 56.0898 205.057 56.2168 205.596 56.3379C206.139 56.459 206.578 56.6035 206.914 56.7715C207.25 56.9395 207.498 57.1426 207.658 57.3809C207.822 57.6152 207.904 57.9023 207.904 58.2422C207.904 58.8086 207.678 59.2637 207.225 59.6074C206.771 59.9473 206.184 60.1172 205.461 60.1172C204.953 60.1172 204.504 60.0273 204.113 59.8477C203.723 59.668 203.416 59.418 203.193 59.0977C202.975 58.7734 202.865 58.4238 202.865 58.0488H203.949C203.969 58.4121 204.113 58.7012 204.383 58.916C204.656 59.127 205.016 59.2324 205.461 59.2324C205.871 59.2324 206.199 59.1504 206.445 58.9863C206.695 58.8184 206.82 58.5957 206.82 58.3184Z" fill="black"/>
<path d="M202.493 34.8864C202.494 34.8911 202.494 34.9139 202.5 34.9462C202.455 40.9167 197.335 45.8023 190.999 45.8023C184.933 45.8023 179.913 40.6676 179.508 34.9563L179.59 34.7906L179.655 34.7392H183.867H184.278L184.357 34.3355C184.432 33.9532 184.602 33.3933 184.972 32.9379C185.324 32.5032 185.878 32.1367 186.806 32.1367C187.078 32.1367 187.317 32.172 187.526 32.2329L187.928 32.3497L188.114 31.9754C188.281 31.639 188.518 31.3173 188.853 31.0798C189.183 30.8461 189.634 30.6749 190.268 30.6749C190.603 30.6749 190.89 30.7324 191.148 30.8237L191.472 30.9389L191.696 30.6765C192.248 30.0275 193.106 29.5 194.484 29.5C196.691 29.5 197.788 31.028 198.345 32.3622L198.417 32.5336L198.583 32.6167C199.418 33.0346 199.825 33.8455 200.009 34.4028L200.122 34.746H200.484H202.319H202.326H202.34C202.395 34.746 202.437 34.7663 202.462 34.7892C202.485 34.8108 202.493 34.8326 202.493 34.854L202.493 34.8635C202.493 34.8678 202.493 34.8759 202.493 34.8857L202.493 34.8864ZM180.368 35.0234H179.835L179.869 35.5558C180.232 41.1381 185.106 45.5386 190.999 45.5386C196.893 45.5386 201.767 41.138 202.137 35.5564L202.172 35.0234H201.638H180.368Z" fill="white" stroke="#383838"/>
<path d="M240.443 51.4688L243.232 58.4297L246.021 51.4688H247.48V60H246.355V56.6777L246.461 53.0918L243.66 60H242.799L240.004 53.1094L240.115 56.6777V60H238.99V51.4688H240.443ZM251.928 60.1172C251.068 60.1172 250.369 59.8359 249.83 59.2734C249.291 58.707 249.021 57.9512 249.021 57.0059V56.8066C249.021 56.1777 249.141 55.6172 249.379 55.125C249.621 54.6289 249.957 54.2422 250.387 53.9648C250.82 53.6836 251.289 53.543 251.793 53.543C252.617 53.543 253.258 53.8145 253.715 54.3574C254.172 54.9004 254.4 55.6777 254.4 56.6895V57.1406H250.105C250.121 57.7656 250.303 58.2715 250.65 58.6582C251.002 59.041 251.447 59.2324 251.986 59.2324C252.369 59.2324 252.693 59.1543 252.959 58.998C253.225 58.8418 253.457 58.6348 253.656 58.377L254.318 58.8926C253.787 59.709 252.99 60.1172 251.928 60.1172ZM251.793 54.4336C251.355 54.4336 250.988 54.5938 250.691 54.9141C250.395 55.2305 250.211 55.6758 250.141 56.25H253.316V56.168C253.285 55.6172 253.137 55.1914 252.871 54.8906C252.605 54.5859 252.246 54.4336 251.793 54.4336ZM259.352 58.3184C259.352 58.0254 259.24 57.7988 259.018 57.6387C258.799 57.4746 258.414 57.334 257.863 57.2168C257.316 57.0996 256.881 56.959 256.557 56.7949C256.236 56.6309 255.998 56.4355 255.842 56.209C255.689 55.9824 255.613 55.7129 255.613 55.4004C255.613 54.8809 255.832 54.4414 256.27 54.082C256.711 53.7227 257.273 53.543 257.957 53.543C258.676 53.543 259.258 53.7285 259.703 54.0996C260.152 54.4707 260.377 54.9453 260.377 55.5234H259.287C259.287 55.2266 259.16 54.9707 258.906 54.7559C258.656 54.541 258.34 54.4336 257.957 54.4336C257.562 54.4336 257.254 54.5195 257.031 54.6914C256.809 54.8633 256.697 55.0879 256.697 55.3652C256.697 55.627 256.801 55.8242 257.008 55.957C257.215 56.0898 257.588 56.2168 258.127 56.3379C258.67 56.459 259.109 56.6035 259.445 56.7715C259.781 56.9395 260.029 57.1426 260.189 57.3809C260.354 57.6152 260.436 57.9023 260.436 58.2422C260.436 58.8086 260.209 59.2637 259.756 59.6074C259.303 59.9473 258.715 60.1172 257.992 60.1172C257.484 60.1172 257.035 60.0273 256.645 59.8477C256.254 59.668 255.947 59.418 255.725 59.0977C255.506 58.7734 255.396 58.4238 255.396 58.0488H256.48C256.5 58.4121 256.645 58.7012 256.914 58.916C257.188 59.127 257.547 59.2324 257.992 59.2324C258.402 59.2324 258.73 59.1504 258.977 58.9863C259.227 58.8184 259.352 58.5957 259.352 58.3184ZM265.539 58.3184C265.539 58.0254 265.428 57.7988 265.205 57.6387C264.986 57.4746 264.602 57.334 264.051 57.2168C263.504 57.0996 263.068 56.959 262.744 56.7949C262.424 56.6309 262.186 56.4355 262.029 56.209C261.877 55.9824 261.801 55.7129 261.801 55.4004C261.801 54.8809 262.02 54.4414 262.457 54.082C262.898 53.7227 263.461 53.543 264.145 53.543C264.863 53.543 265.445 53.7285 265.891 54.0996C266.34 54.4707 266.564 54.9453 266.564 55.5234H265.475C265.475 55.2266 265.348 54.9707 265.094 54.7559C264.844 54.541 264.527 54.4336 264.145 54.4336C263.75 54.4336 263.441 54.5195 263.219 54.6914C262.996 54.8633 262.885 55.0879 262.885 55.3652C262.885 55.627 262.988 55.8242 263.195 55.957C263.402 56.0898 263.775 56.2168 264.314 56.3379C264.857 56.459 265.297 56.6035 265.633 56.7715C265.969 56.9395 266.217 57.1426 266.377 57.3809C266.541 57.6152 266.623 57.9023 266.623 58.2422C266.623 58.8086 266.396 59.2637 265.943 59.6074C265.49 59.9473 264.902 60.1172 264.18 60.1172C263.672 60.1172 263.223 60.0273 262.832 59.8477C262.441 59.668 262.135 59.418 261.912 59.0977C261.693 58.7734 261.584 58.4238 261.584 58.0488H262.668C262.688 58.4121 262.832 58.7012 263.102 58.916C263.375 59.127 263.734 59.2324 264.18 59.2324C264.59 59.2324 264.918 59.1504 265.164 58.9863C265.414 58.8184 265.539 58.5957 265.539 58.3184ZM271.949 60C271.887 59.875 271.836 59.6523 271.797 59.332C271.293 59.8555 270.691 60.1172 269.992 60.1172C269.367 60.1172 268.854 59.9414 268.451 59.5898C268.053 59.2344 267.854 58.7852 267.854 58.2422C267.854 57.582 268.104 57.0703 268.604 56.707C269.107 56.3398 269.814 56.1562 270.725 56.1562H271.779V55.6582C271.779 55.2793 271.666 54.9785 271.439 54.7559C271.213 54.5293 270.879 54.416 270.438 54.416C270.051 54.416 269.727 54.5137 269.465 54.709C269.203 54.9043 269.072 55.1406 269.072 55.418H267.982C267.982 55.1016 268.094 54.7969 268.316 54.5039C268.543 54.207 268.848 53.9727 269.23 53.8008C269.617 53.6289 270.041 53.543 270.502 53.543C271.232 53.543 271.805 53.7266 272.219 54.0938C272.633 54.457 272.848 54.959 272.863 55.5996V58.5176C272.863 59.0996 272.938 59.5625 273.086 59.9062V60H271.949ZM270.15 59.1738C270.49 59.1738 270.812 59.0859 271.117 58.9102C271.422 58.7344 271.643 58.5059 271.779 58.2246V56.9238H270.93C269.602 56.9238 268.938 57.3125 268.938 58.0898C268.938 58.4297 269.051 58.6953 269.277 58.8867C269.504 59.0781 269.795 59.1738 270.15 59.1738ZM274.305 56.7773C274.305 55.7891 274.533 55.0039 274.99 54.4219C275.447 53.8359 276.053 53.543 276.807 53.543C277.58 53.543 278.184 53.8164 278.617 54.3633L278.67 53.6602H279.66V59.8477C279.66 60.668 279.416 61.3145 278.928 61.7871C278.443 62.2598 277.791 62.4961 276.971 62.4961C276.514 62.4961 276.066 62.3984 275.629 62.2031C275.191 62.0078 274.857 61.7402 274.627 61.4004L275.189 60.75C275.654 61.3242 276.223 61.6113 276.895 61.6113C277.422 61.6113 277.832 61.4629 278.125 61.166C278.422 60.8691 278.57 60.4512 278.57 59.9121V59.3672C278.137 59.8672 277.545 60.1172 276.795 60.1172C276.053 60.1172 275.451 59.8184 274.99 59.2207C274.533 58.623 274.305 57.8086 274.305 56.7773ZM275.395 56.9004C275.395 57.6152 275.541 58.1777 275.834 58.5879C276.127 58.9941 276.537 59.1973 277.064 59.1973C277.748 59.1973 278.25 58.8867 278.57 58.2656V55.3711C278.238 54.7656 277.74 54.4629 277.076 54.4629C276.549 54.4629 276.137 54.668 275.84 55.0781C275.543 55.4883 275.395 56.0957 275.395 56.9004ZM283.932 60.1172C283.072 60.1172 282.373 59.8359 281.834 59.2734C281.295 58.707 281.025 57.9512 281.025 57.0059V56.8066C281.025 56.1777 281.145 55.6172 281.383 55.125C281.625 54.6289 281.961 54.2422 282.391 53.9648C282.824 53.6836 283.293 53.543 283.797 53.543C284.621 53.543 285.262 53.8145 285.719 54.3574C286.176 54.9004 286.404 55.6777 286.404 56.6895V57.1406H282.109C282.125 57.7656 282.307 58.2715 282.654 58.6582C283.006 59.041 283.451 59.2324 283.99 59.2324C284.373 59.2324 284.697 59.1543 284.963 58.998C285.229 58.8418 285.461 58.6348 285.66 58.377L286.322 58.8926C285.791 59.709 284.994 60.1172 283.932 60.1172ZM283.797 54.4336C283.359 54.4336 282.992 54.5938 282.695 54.9141C282.398 55.2305 282.215 55.6758 282.145 56.25H285.32V56.168C285.289 55.6172 285.141 55.1914 284.875 54.8906C284.609 54.5859 284.25 54.4336 283.797 54.4336ZM291.355 58.3184C291.355 58.0254 291.244 57.7988 291.021 57.6387C290.803 57.4746 290.418 57.334 289.867 57.2168C289.32 57.0996 288.885 56.959 288.561 56.7949C288.24 56.6309 288.002 56.4355 287.846 56.209C287.693 55.9824 287.617 55.7129 287.617 55.4004C287.617 54.8809 287.836 54.4414 288.273 54.082C288.715 53.7227 289.277 53.543 289.961 53.543C290.68 53.543 291.262 53.7285 291.707 54.0996C292.156 54.4707 292.381 54.9453 292.381 55.5234H291.291C291.291 55.2266 291.164 54.9707 290.91 54.7559C290.66 54.541 290.344 54.4336 289.961 54.4336C289.566 54.4336 289.258 54.5195 289.035 54.6914C288.812 54.8633 288.701 55.0879 288.701 55.3652C288.701 55.627 288.805 55.8242 289.012 55.957C289.219 56.0898 289.592 56.2168 290.131 56.3379C290.674 56.459 291.113 56.6035 291.449 56.7715C291.785 56.9395 292.033 57.1426 292.193 57.3809C292.357 57.6152 292.439 57.9023 292.439 58.2422C292.439 58.8086 292.213 59.2637 291.76 59.6074C291.307 59.9473 290.719 60.1172 289.996 60.1172C289.488 60.1172 289.039 60.0273 288.648 59.8477C288.258 59.668 287.951 59.418 287.729 59.0977C287.51 58.7734 287.4 58.4238 287.4 58.0488H288.484C288.504 58.4121 288.648 58.7012 288.918 58.916C289.191 59.127 289.551 59.2324 289.996 59.2324C290.406 59.2324 290.734 59.1504 290.98 58.9863C291.23 58.8184 291.355 58.5957 291.355 58.3184Z" fill="black"/>
<g clip-path="url(#clip0)">
<path d="M272 30.5H271.5V28C271.5 27.1739 270.826 26.5 270 26.5H257C256.174 26.5 255.5 27.1739 255.5 28V42V43.2071L256.354 42.3536L259.5 39.2071V42C259.5 42.8261 260.174 43.5 261 43.5H271.793L275.646 47.3536L276.5 48.2071V47V32C276.5 31.1739 275.826 30.5 275 30.5H272ZM271.5 37V38.5H270C270.826 38.5 271.5 37.8261 271.5 37Z" fill="white" stroke="#383838"/>
</g>
<defs>
<filter id="filter0_dd" x="0" y="0" width="398" height="98" filterUnits="userSpaceOnUse" color-interpolation-filters="sRGB">
<feFlood flood-opacity="0" result="BackgroundImageFix"/>
<feColorMatrix in="SourceAlpha" type="matrix" values="0 0 0 0 0 0 0 0 0 0 0 0 0 0 0 0 0 0 127 0"/>
<feOffset dy="-1"/>
<feGaussianBlur stdDeviation="0.5"/>
<feColorMatrix type="matrix" values="0 0 0 0 0 0 0 0 0 0 0 0 0 0 0 0 0 0 0.12 0"/>
<feBlend mode="normal" in2="BackgroundImageFix" result="effect1_dropShadow"/>
<feColorMatrix in="SourceAlpha" type="matrix" values="0 0 0 0 0 0 0 0 0 0 0 0 0 0 0 0 0 0 127 0"/>
<feOffset dy="4"/>
<feGaussianBlur stdDeviation="2"/>
<feColorMatrix type="matrix" values="0 0 0 0 0 0 0 0 0 0 0 0 0 0 0 0 0 0 0.25 0"/>
<feBlend mode="normal" in2="effect1_dropShadow" result="effect2_dropShadow"/>
<feBlend mode="normal" in="SourceGraphic" in2="effect2_dropShadow" result="shape"/>
</filter>
<clipPath id="clip0">
<rect width="24" height="24" fill="white" transform="translate(254 25)"/>
</clipPath>
</defs>
</svg>
