<svg width="1440" height="1020" viewBox="0 0 1440 1020" fill="none" xmlns="http://www.w3.org/2000/svg">
<mask id="mask0" mask-type="alpha" maskUnits="userSpaceOnUse" x="0" y="0" width="1440" height="1020">
<rect width="1440" height="1020" fill="#C4C4C4"/>
</mask>
<g mask="url(#mask0)">
<path d="M547.748 250.055C525.657 247.572 504.369 244.855 482.271 244.765C464.901 244.726 447.509 245.627 430.156 247.29C425.01 247.782 419.854 248.289 414.692 249.078C362.772 257.3 312.488 270.838 263.293 288.786C216.308 305.915 170.429 325.644 123.915 343.902C34.4475 377.945 -50.7148 422.979 -142.156 451.854C-157.157 457.009 -187.709 459.014 -188.473 436.597C-189.361 424.566 -178.375 415.91 -169.367 409.63C-136.215 386.511 -101.491 365.96 -67.9247 343.688C-15.0707 308.812 38.5888 275.192 91.3046 240.127C99.6674 234.563 109.12 229.956 117.154 224.025C142.833 205.655 196.114 185.669 172.483 144.561C166.347 134.454 159.331 128.203 150.234 121.318C137.959 113.284 120.518 110.893 106.067 112.125C39.1816 115.147 -28.4739 124.508 -94.4113 135.478C-181.705 150.002 -265.567 166.494 -351.135 184.794C-386.977 192.19 -432.375 203.196 -445.639 222.181C-449.664 228.824 -432.524 224.906 -425.009 225.025C-422.017 225.073 -420.356 231.196 -421.351 233.375C-423.505 238.142 -427.725 238.879 -432.492 240.822C-445.841 246.219 -457.702 240.047 -463.484 227.411C-467.801 216.485 -464.414 200.176 -455.544 192.627C-437.826 175.139 -410.83 171.267 -387.422 165.731C-372.099 161.389 -389.984 166.103 -344.045 153.993C-282.97 137.894 -220.982 124.907 -158.816 113.428C-119.2 106.937 -79.5964 101.018 -39.7402 96.1324C0.117329 91.2616 43.4864 86.1905 83.6981 87.6103C112.832 87.8872 140.851 88.155 168.885 97.1683C180.587 101.593 194.064 110.223 201.91 120.314C206.665 126.918 209.936 135.732 211.37 143.579C215.76 168.587 203.092 185.701 188.585 204.3C174.477 222.334 152.705 233.886 133.446 245.861C110.777 259.593 89.0388 274.97 66.9522 289.585C43.1501 304.853 20.635 321.808 -3.80619 336.079C-46.6012 360.936 -86.5633 390.818 -128.066 417.771C-130.539 419.591 -132.895 421.563 -135.121 423.675C-132.854 427.194 -102.888 411.035 -95.9913 408.085C-75.4408 399.473 -55.193 390.232 -34.5707 381.794C-17.7987 374.807 -1.11265 367.543 15.7097 360.691C57.0439 343.82 95.6225 325.252 137.731 311.551C197.021 292.044 253.616 268.347 313.951 252.195C343.211 244.38 372.134 235.69 401.675 228.911C435.638 221.186 471.077 209.1 506.489 210.893C530.783 212.607 555.301 221.959 563.253 247.418C568.411 265.453 563.026 278.413 548.871 290.064C448.285 366.71 341.582 443.734 233.039 508.549C229.949 510.893 205.313 524.972 208.036 528.663C220.559 524.072 233.212 519.772 245.684 515.056C258.909 510.055 272.1 504.982 285.353 500.033C346.952 476.888 409.095 454.762 470.69 431.889C511.659 416.719 552.232 399.771 593.852 386.374C605.163 382.295 613.311 379.9 624.853 382.59C633.272 384.528 639.551 394.62 640.183 403.089C643.989 447.786 610.567 475.984 588.435 511.379C583.601 519.191 578.578 526.895 574.165 534.93C569.899 542.764 567.038 555.974 566.037 564.673C563.949 582.673 565.861 604.541 579.047 618.665C583.352 624.738 589.332 628.893 595.4 633.061C607.945 642.697 625.741 648.572 641.086 651.868C651.426 654.076 661.88 656.219 672.311 657.934C738.358 668.909 804.709 678.944 871.32 685.274C915.422 689.865 959.761 692.122 1004.03 693.306C1024.73 693.822 1045.37 694.829 1066.09 695.182C1130.21 696.007 1194.65 695.474 1258.64 691.831C1281.16 690.844 1303.6 690.903 1326.13 691.088C1354 691.292 1381.77 691.171 1409.63 693.223C1420.8 694.088 1432.11 695.366 1443.26 696.573C1455.8 697.927 1468.71 699.411 1481.04 702.185C1499.5 706.149 1521.12 713.071 1536.45 724.77C1544.09 730.32 1549.11 738.456 1554.32 746.139C1565.59 763.54 1556.55 789.243 1543.85 802.875C1531.03 816.163 1519.69 830.145 1505.39 841.906C1497.05 848.848 1489.32 856.499 1480.83 863.323C1473.66 869.115 1466.74 874.875 1459.32 880.349C1453.78 884.418 1448.56 888.952 1442.96 892.981C1435.23 898.515 1427.21 903.401 1419.21 908.511C1418.13 909.344 1417.13 910.287 1416.24 911.326C1420.99 912.958 1425.84 913.841 1430.63 915.3C1448.48 920.729 1466.93 926.047 1484.29 932.904C1538.02 953.739 1592.19 972.254 1645.01 995.524C1657.08 1000.84 1669.17 1005.9 1681.23 1011.38C1695.15 1017.71 1709.34 1025.7 1723.53 1031.15C1731.1 1034.06 1738.27 1038 1745.66 1041.26C1758.41 1046.86 1802.05 1061.81 1796.12 1077.85C1794.36 1082.88 1790.88 1087.13 1786.28 1089.86C1780.87 1093.06 1772.25 1093.38 1766.56 1090.88C1745.5 1081.51 1726.03 1068.61 1705.13 1059C1696.56 1055.1 1688.36 1050.34 1679.86 1046.27C1653.26 1033.11 1626.15 1020.48 1598.87 1008.85C1573.05 997.713 1546.69 986.991 1520.34 977.316C1500.66 970.075 1480.64 963.084 1460.59 956.925C1448.75 953.267 1436.9 949.147 1424.91 946.105C1405.26 942.484 1398.01 936.723 1369.8 946.138C1314.54 977.185 1323.23 971.711 1301.69 984.718C1286.78 993.706 1271.45 1001.44 1256.15 1009.63C1231.46 1022.81 1207.25 1036.84 1181.5 1047.8C1135.23 1068.66 1090.17 1088.93 1042.4 1105.86C1012.84 1116.34 982.655 1125.78 952.353 1134.01C915.56 1145.01 877.535 1154.12 839.734 1161.38C798.668 1169.24 755.866 1169.18 715.69 1155.89C698.533 1150.43 680.973 1140.13 667.568 1127.99C655.085 1116.59 641.67 1102.96 635.261 1087.22C619.935 1053.84 624.467 1020.73 641.499 990.179C651.533 972.502 670.41 955.287 688.067 945.694C717.499 929.381 745.592 913.443 777.61 902.728C815.948 889.742 855.965 880.544 896.103 874.618C928.034 869.797 960.071 866.43 992.346 864.605C1037.74 861.975 1084.1 861.392 1129.59 864.09C1182.65 867.138 1235.04 875.795 1287.08 886.347C1313.8 891.905 1342.59 901.584 1369.88 895.402C1387.08 891.812 1402.96 887.177 1417.68 877.62C1441.25 862.855 1466.5 844.511 1486.04 824.698C1496.43 812.551 1508.55 801.146 1518.32 788.597C1529.58 774.18 1528.24 752.715 1515.45 739.267C1500.38 725.165 1481.49 722.24 1462.08 720.293C1429.78 716.885 1396.68 718.21 1364.23 717.406C1317.35 716.152 1270.55 718.296 1223.7 718.234C1166.21 718.381 1108.69 721.123 1051.2 720.511C997.197 719.886 943.205 719.367 889.274 715.661C859.182 713.593 828.879 710.983 798.889 707.53C760.758 703.14 722.62 696.832 685.086 688.55C665.336 684.038 645.692 679.246 625.959 674.892C616.678 671.935 605.056 669.409 596.648 664.437C586.837 659.482 576.447 654.72 567.62 648.147C560.546 642.665 553.929 636.62 547.835 630.071C540.559 622.5 536.586 608.314 534.472 598.544C530.641 580.278 535.878 563.607 543.792 547.61C567.379 499.794 590.569 451.833 614.846 404.369C615.619 402.588 616.128 400.703 616.356 398.771C614.642 395.879 590.1 408.219 585.895 409.893C572.763 415.075 559.937 421.01 546.735 426.008C523.261 434.896 500.507 445.576 477.227 454.94C446.964 467.063 416.9 479.616 387.034 492.582C368.376 500.982 349.176 508.378 330.346 516.36C299.902 529.122 270.561 543.948 238.382 552.242C229.708 554.546 220.09 556.375 211.079 554.927C197.696 551.878 190.722 547.073 182.908 536.242C175.472 526.303 177.458 511.985 185.696 503.694C234.383 456.06 298.664 425.744 354.762 387.738C378.744 371.443 402.457 354.829 426.442 338.586C461.985 314.472 496.494 287.915 533.566 266.161C538.612 263 558.718 252.406 547.748 250.055ZM1333.47 930.585C1312.02 924.851 1291.58 919.64 1269.88 915.641C1234.54 909.199 1199.57 903.727 1164 899.134C1106.79 891.759 1048.26 891.959 990.862 895.355C944.175 897.874 897.173 904.011 851.538 913.898C820.259 920.539 789.847 929.707 760.454 941.819C734.241 953.013 708.656 964.877 686.176 982.456C651.605 1009.37 649.8 1060.53 677.38 1093.6C687.958 1106.05 703.889 1118.46 719.879 1122.92C737.256 1127.36 754.8 1132.17 772.71 1133.7C818.353 1134.37 865.839 1128.03 909.727 1115.77C958.105 1102.28 1005.22 1086.75 1051.99 1068.76C1081.72 1056.96 1113.23 1045.78 1142.09 1032.38C1187.82 1011.35 1230.75 984.953 1276.58 964.033C1296.26 953.93 1315.05 942.756 1333.47 930.585Z" fill="#6E61FF" fill-opacity="0.1"/>
</g>
</svg>
