<svg width="294" height="191" viewBox="0 0 294 191" fill="none" xmlns="http://www.w3.org/2000/svg">
<path fill-rule="evenodd" clip-rule="evenodd" d="M190.914 31.5089C175.963 13.5292 164.842 0.616412 163.5 0.318301C159 -0.681684 151.989 0.818234 147.5 2.8183C146.055 3.4623 140.577 9.8698 132.793 19.6334C126.233 12.8937 121.801 8.81839 120.674 8.81838C114.165 8.81833 102.982 13.3369 97.1403 16.8514C95.6227 17.7643 86.1028 29.8775 73.5704 46.3183H61.5L43 73.8183L33.9356 99.0515C15.3921 123.943 0 144.818 0 144.818H244L244 144.818H294L252.5 54.3183C252.5 54.3183 237 47.826 234.992 47.826C234.686 47.826 232.183 50.0704 228.158 53.8764L211 35.3183L190.914 31.5089Z" fill="black"/>
<path fill-rule="evenodd" clip-rule="evenodd" d="M145.854 38.0848C138.885 38.2346 129.839 54.9315 129.839 54.9315C129.839 54.9315 103.717 101.776 100.063 109.559C96.4104 117.343 87.7625 145.554 87.7625 145.554L113.951 145.663C113.951 145.663 114.032 145.477 114.184 145.128L150.931 145.128L163.189 145.128L183.689 145.128L183.599 144.993L185.189 145.512L206.967 101.293C206.967 101.293 213.942 86.5977 211.949 80.8767C209.956 75.1557 207.711 74.3323 202.6 76.7047C197.488 79.0771 187.531 92.7055 187.531 92.7055L168.627 124.262L163.189 131.512C163.189 131.512 157.814 138.512 157.189 136.012C156.69 134.017 162.402 121.829 164.729 116.99C168.188 111.383 171.195 106.5 171.768 105.542C173.239 103.082 194.231 60.7678 194.231 60.7678C194.231 60.7678 198.021 52.9845 196.071 48.0226C194.121 43.0607 193.731 42.0683 188.092 42.5524C182.452 43.0364 159.925 74.7197 159.925 74.7197L138.358 112.466C134.971 117.66 129.548 125.933 127.689 128.512C124.911 132.367 122.779 134.512 122.189 132.512C121.6 130.512 132.189 104.512 132.189 104.512L132.074 104.455C132.402 103.733 132.683 103.122 132.909 102.639C136.275 95.4508 148.904 64.9851 148.904 64.9851C148.904 64.9851 153.746 53.4845 153.627 48.0953C153.594 46.6385 153.633 45.5768 153.663 44.7449C153.745 42.4991 153.765 41.9274 152.168 39.7774C150.431 38.0836 149.136 38.0142 145.854 38.0848ZM206.576 125.023C206.576 125.023 202.558 128.231 199.485 131.811C196.412 135.391 190.633 146.077 190.633 146.077L214.271 146.069L215.01 140.343C215.01 140.343 216.849 134.246 216.519 132.333C216.437 131.855 216.432 131.342 216.427 130.793C216.412 129.145 216.394 127.168 214.263 124.805C211.422 121.655 206.576 125.023 206.576 125.023ZM65.8458 120.562C67.7705 118.476 68.5424 114.742 69.2899 111.125C69.8311 108.507 70.3594 105.951 71.3031 104.126C71.5919 103.568 71.932 103.023 72.3317 102.505C75.8473 97.9497 79.1089 98.5186 83.5293 105C87.2025 110.387 86.7753 118.923 86.5259 121.655C86.4725 122.24 86.3595 122.804 86.2144 123.373C85.4105 126.528 82.6374 137.609 82.3339 141.528C82.1518 143.879 82.1562 144.736 82.2039 145.012L56.1891 145.012C56.4391 142.262 56.4391 142.137 56.4391 142.075L56.4391 142.07C56.4393 142.011 56.4452 141.951 56.6891 139.512C56.8559 138.678 57.0322 137.656 57.2112 136.618C57.5689 134.543 57.9371 132.408 58.2608 131.596C58.5773 130.802 58.7234 130.254 58.8484 129.786C59.2874 128.14 59.4646 127.476 65.8458 120.562ZM82.3338 145.012L82.2039 145.012C82.2493 145.275 82.3338 145.012 82.3338 145.012Z" fill="white"/>
<path d="M6.788 159.446H2.396V154.658H17.624V159.446H13.268V183.818H6.788V159.446ZM20.2993 154.658H26.7433V166.466H31.2433V154.658H37.7233V183.818H31.2433V171.074H26.7433V183.818H20.2993V154.658ZM42.1639 154.658H55.2679V159.05H48.6079V166.286H53.6839V170.75H48.6079V179.462H55.3399V183.818H42.1639V154.658ZM75.8284 184.25C72.6604 184.25 70.4044 183.422 69.0604 181.766C67.7404 180.086 67.0804 177.674 67.0804 174.53V164.018C67.0804 160.802 67.7404 158.378 69.0604 156.746C70.3804 155.09 72.6364 154.262 75.8284 154.262C78.8764 154.262 81.0364 154.994 82.3084 156.458C83.5804 157.922 84.2164 159.998 84.2164 162.686V165.206H77.9164V162.29C77.9164 161.162 77.7964 160.298 77.5564 159.698C77.3164 159.098 76.7404 158.798 75.8284 158.798C74.9164 158.798 74.3164 159.122 74.0284 159.77C73.7404 160.394 73.5964 161.27 73.5964 162.398V176.114C73.5964 177.266 73.7404 178.154 74.0284 178.778C74.3404 179.378 74.9404 179.678 75.8284 179.678C76.7164 179.678 77.2804 179.378 77.5204 178.778C77.7844 178.154 77.9164 177.266 77.9164 176.114V173.054H84.2164V175.574C84.2164 178.31 83.5804 180.446 82.3084 181.982C81.0364 183.494 78.8764 184.25 75.8284 184.25ZM87.7616 154.658H94.2056V179.462H100.902V183.818H87.7616V154.658ZM103.759 154.658H110.203V183.818H103.759V154.658ZM114.947 154.658H121.859L125.063 171.614L128.519 154.658H135.179L135.683 183.818H131.111L130.571 164.414L127.187 183.818H123.119L119.519 164.27L119.087 183.818H114.443L114.947 154.658ZM139.898 154.658H147.494C149.39 154.658 150.998 154.862 152.318 155.27C153.662 155.654 154.742 156.41 155.558 157.538C156.374 158.666 156.782 160.25 156.782 162.29C156.782 164.018 156.41 165.362 155.666 166.322C154.922 167.282 153.866 167.894 152.498 168.158C154.178 168.374 155.462 169.082 156.35 170.282C157.238 171.482 157.682 173.114 157.682 175.178C157.682 180.938 154.742 183.818 148.862 183.818H139.898V154.658ZM147.602 166.322C148.97 166.322 149.894 166.01 150.374 165.386C150.878 164.762 151.13 163.79 151.13 162.47C151.13 161.318 150.818 160.454 150.194 159.878C149.57 159.278 148.658 158.978 147.458 158.978H146.342V166.322H147.602ZM147.71 179.318C149.078 179.318 150.038 178.982 150.59 178.31C151.166 177.614 151.454 176.534 151.454 175.07C151.454 173.414 151.166 172.25 150.59 171.578C150.038 170.906 149.066 170.57 147.674 170.57H146.342V179.318H147.71ZM161.098 154.658H167.542V183.818H161.098V154.658ZM171.89 154.658H176.426L182.402 168.698V154.658H187.73V183.818H183.374L177.398 168.698V183.818H171.89V154.658ZM199.666 184.25C196.786 184.25 194.734 183.374 193.51 181.622C192.286 179.87 191.674 177.386 191.674 174.17V164.378C191.674 161.09 192.334 158.582 193.654 156.854C194.998 155.126 197.254 154.262 200.422 154.262C203.47 154.262 205.654 155.006 206.974 156.494C208.294 157.982 208.954 160.082 208.954 162.794V164.666H202.654V162.29C202.654 161.138 202.522 160.274 202.258 159.698C201.994 159.098 201.406 158.798 200.494 158.798C199.558 158.798 198.946 159.122 198.658 159.77C198.394 160.418 198.262 161.318 198.262 162.47V175.97C198.262 177.122 198.43 178.034 198.766 178.706C199.126 179.354 199.762 179.678 200.674 179.678C202.354 179.678 203.194 178.418 203.194 175.898V172.478H200.566V168.698H208.99V183.818H204.742L204.382 181.406C203.47 183.302 201.898 184.25 199.666 184.25ZM222.234 154.658H229.83C231.726 154.658 233.334 154.862 234.654 155.27C235.998 155.654 237.078 156.41 237.894 157.538C238.71 158.666 239.118 160.25 239.118 162.29C239.118 164.018 238.746 165.362 238.002 166.322C237.258 167.282 236.202 167.894 234.834 168.158C236.514 168.374 237.798 169.082 238.686 170.282C239.574 171.482 240.018 173.114 240.018 175.178C240.018 180.938 237.078 183.818 231.198 183.818H222.234V154.658ZM229.938 166.322C231.306 166.322 232.23 166.01 232.71 165.386C233.214 164.762 233.466 163.79 233.466 162.47C233.466 161.318 233.154 160.454 232.53 159.878C231.906 159.278 230.994 158.978 229.794 158.978H228.678V166.322H229.938ZM230.046 179.318C231.414 179.318 232.374 178.982 232.926 178.31C233.502 177.614 233.79 176.534 233.79 175.07C233.79 173.414 233.502 172.25 232.926 171.578C232.374 170.906 231.402 170.57 230.01 170.57H228.678V179.318H230.046ZM243.398 154.658H256.502V159.05H249.842V166.286H254.918V170.75H249.842V179.462H256.574V183.818H243.398V154.658ZM262.128 159.446H257.736V154.658H272.964V159.446H268.608V183.818H262.128V159.446ZM278.334 154.658H285.678L291.114 183.818H285.174L284.202 177.662H279.918L278.91 183.818H272.826L278.334 154.658ZM283.59 173.81L282.042 162.434L280.494 173.81H283.59Z" fill="black"/>
</svg>
