<svg width="203" height="203" viewBox="0 0 203 203" fill="none" xmlns="http://www.w3.org/2000/svg">
<g clip-path="url(#clip0)">
<path d="M49.2153 96.0109L39.1973 99.4683L11.3916 19.218L21.4096 15.7607L49.2153 96.0109Z" fill="#383838"/>
<path d="M67.8262 161.014C62.0266 161.014 57.2992 159.238 53.644 155.688C50.0132 152.137 48.1978 147.407 48.1978 141.497V140.476C48.1978 136.512 48.9654 132.973 50.5006 129.86C52.0357 126.723 54.2045 124.315 57.0068 122.637C59.8335 120.935 63.05 120.084 66.6565 120.084C72.0662 120.084 76.3184 121.786 79.4131 125.191C82.5322 128.596 84.0918 133.423 84.0918 139.673V143.978H58.9075C59.2486 146.556 60.2721 148.623 61.9779 150.179C63.708 151.736 65.8889 152.514 68.5206 152.514C72.5901 152.514 75.7701 151.043 78.0607 148.1L83.2511 153.9C81.6671 156.138 79.5228 157.889 76.8179 159.153C74.1131 160.394 71.1158 161.014 67.8262 161.014ZM66.6199 128.62C64.5243 128.62 62.8185 129.325 61.5027 130.736C60.2112 132.146 59.3827 134.165 59.0171 136.791H73.711V135.952C73.6623 133.618 73.0287 131.818 71.8103 130.553C70.5919 129.264 68.8618 128.62 66.6199 128.62Z" fill="#383838"/>
<path d="M113.041 160.284C112.554 159.336 112.2 158.156 111.981 156.746C109.422 159.591 106.096 161.014 102.002 161.014C98.1276 161.014 94.911 159.895 92.3524 157.658C89.8181 155.42 88.551 152.599 88.551 149.194C88.551 145.011 90.0984 141.801 93.1931 139.564C96.3122 137.326 100.808 136.195 106.681 136.171H111.542V133.909C111.542 132.085 111.067 130.626 110.117 129.532C109.191 128.437 107.716 127.89 105.694 127.89C103.915 127.89 102.514 128.316 101.49 129.167C100.491 130.018 99.9917 131.186 99.9917 132.669H89.4282C89.4282 130.383 90.1349 128.267 91.5482 126.322C92.9616 124.376 94.9598 122.856 97.5428 121.762C100.126 120.643 103.026 120.084 106.242 120.084C111.116 120.084 114.978 121.312 117.829 123.768C120.705 126.2 122.142 129.629 122.142 134.055V151.164C122.167 154.909 122.691 157.743 123.714 159.664V160.284H113.041ZM104.305 152.952C105.865 152.952 107.302 152.611 108.618 151.93C109.934 151.225 110.909 150.289 111.542 149.121V142.336H107.595C102.307 142.336 99.4922 144.16 99.151 147.808L99.1145 148.428C99.1145 149.742 99.5775 150.824 100.504 151.675C101.43 152.526 102.697 152.952 104.305 152.952Z" fill="#383838"/>
<path d="M142.904 111.11V120.813H149.666V128.547H142.904V148.246C142.904 149.705 143.184 150.751 143.744 151.383C144.305 152.015 145.377 152.332 146.961 152.332C148.131 152.332 149.166 152.246 150.068 152.076V160.065C147.997 160.698 145.864 161.014 143.671 161.014C136.264 161.014 132.486 157.281 132.34 149.814V128.547H126.565V120.813H132.34V111.11H142.904Z" fill="#383838"/>
<path d="M72.6838 73.9915C67.2811 76.0958 62.2305 76.1571 57.532 74.1756C52.8562 72.1852 49.442 68.4374 47.2893 62.9321L46.9172 61.9805C45.4732 58.2877 44.8993 54.7127 45.1955 51.2558C45.4828 47.7762 46.6261 44.7464 48.6255 42.1664C50.6386 39.5549 53.325 37.5949 56.6847 36.2864C61.7242 34.3236 66.3056 34.3667 70.4288 36.4156C74.5747 38.4557 77.7861 42.3871 80.0628 48.2096L81.6308 52.2196L58.1698 61.3572C59.4266 63.6349 61.1331 65.1893 63.2891 66.0203C65.4678 66.8426 67.783 66.7763 70.2346 65.8214C74.0256 64.3449 76.4521 61.8204 77.514 58.248L84.4621 61.7682C83.8016 64.4272 82.4417 66.8364 80.3827 68.9959C78.3147 71.1327 75.7484 72.7979 72.6838 73.9915ZM59.7601 44.2518C57.8079 45.0122 56.4757 46.2881 55.7637 48.0795C55.0744 49.8622 55.0379 52.0432 55.6541 54.6226L69.3426 49.2913L69.0369 48.5097C68.1411 46.3524 66.8953 44.9058 65.2996 44.1697C63.6951 43.411 61.8486 43.4384 59.7601 44.2518Z" fill="#383838"/>
<path d="M87.0581 14.8235L90.5928 23.8631L96.8922 21.4096L99.7094 28.6141L93.41 31.0676L100.586 49.4187C101.117 50.778 101.759 51.6505 102.512 52.0362C103.264 52.4219 104.378 52.3274 105.854 51.7527C106.943 51.3284 107.877 50.8733 108.655 50.3876L111.565 57.83C109.866 59.1705 107.995 60.2387 105.952 61.0344C99.0507 63.7222 94.1722 61.6149 91.3164 54.7127L83.5693 34.9003L78.1892 36.9957L75.3721 29.7912L80.7521 27.6958L77.2174 18.6562L87.0581 14.8235Z" fill="#383838"/>
<path d="M106.988 20.3363L101.307 19.4552C102.063 15.6363 101.838 12.0824 100.63 8.79348L98.3845 3.05027L106.216 0L108.276 5.26744C109.073 7.30645 109.369 9.73642 109.165 12.5573C108.96 15.3782 108.234 17.9712 106.988 20.3363Z" fill="#383838"/>
<path d="M139.239 40.5597C139.239 39.2707 138.594 38.2615 137.302 37.5319C136.035 36.778 133.988 36.1092 131.161 35.5255C121.755 33.5556 117.052 29.5672 117.052 23.5602C117.052 20.0582 118.502 17.1398 121.402 14.8051C124.326 12.4461 128.14 11.2666 132.843 11.2666C137.863 11.2666 141.871 12.4461 144.868 14.8051C147.89 17.1641 149.401 20.2284 149.401 23.998H138.837C138.837 22.4901 138.35 21.2498 137.375 20.277C136.4 19.2799 134.877 18.7814 132.806 18.7814C131.027 18.7814 129.651 19.1827 128.676 19.9852C127.701 20.7878 127.214 21.8092 127.214 23.0495C127.214 24.2168 127.762 25.1653 128.859 25.8949C129.98 26.6002 131.856 27.2203 134.488 27.7554C137.119 28.2661 139.337 28.8497 141.14 29.5064C146.72 31.5492 149.51 35.0878 149.51 40.1219C149.51 43.7213 147.963 46.6396 144.868 48.877C141.774 51.0901 137.777 52.1967 132.879 52.1967C129.565 52.1967 126.617 51.613 124.034 50.4457C121.475 49.254 119.465 47.6367 118.003 45.5939C116.541 43.5267 115.81 41.3014 115.81 38.9181H125.825C125.922 40.7907 126.617 42.2256 127.908 43.2227C129.2 44.2198 130.93 44.7184 133.099 44.7184C135.121 44.7184 136.644 44.3414 137.668 43.5875C138.715 42.8093 139.239 41.8 139.239 40.5597Z" fill="#383838"/>
<path fill-rule="evenodd" clip-rule="evenodd" d="M197.421 96.2801C200.453 96.2801 202.939 98.6383 202.939 101.662C202.939 101.782 202.939 101.843 203 101.782C203 157.591 157.462 203 101.496 203C47.4086 203 2.97115 154.87 0 101.662L1.62735 98.2436L4.06839 96.2197H41.163C42.5576 88.7825 47.6511 73.1826 66.0237 73.1826C68.6917 73.1826 71.1171 73.5454 73.3 74.2105C76.5744 67.3176 82.9411 60.2432 95.3108 60.2432C98.6458 60.2432 101.556 60.8478 104.164 61.8153C109.621 55.1037 118.049 49.8433 130.965 49.8433C152.187 49.8433 162.556 65.4432 167.528 77.8989C176.078 82.3733 180.019 90.8988 181.717 96.2801H197.24H197.3H197.421ZM11.5728 107.587C14.4833 154.508 53.7147 191.814 101.496 191.814C149.277 191.814 188.508 154.508 191.479 107.587H11.5728Z" fill="#383838"/>
</g>
<defs>
<clipPath id="clip0">
<rect width="203" height="203" fill="white"/>
</clipPath>
</defs>
</svg>
