<svg width="254" height="92" viewBox="0 0 254 92" fill="none" xmlns="http://www.w3.org/2000/svg">
<path d="M92.6551 20.2357C90.5638 21.3882 88.5289 22.47 86.5838 23.8358C85.0569 24.9123 83.5857 26.0737 82.1646 27.3006C81.7431 27.6642 81.3217 28.0299 80.9171 28.421C76.8643 32.3805 73.2812 36.7113 70.0641 41.3668C66.9907 45.8121 64.1738 50.4199 61.211 54.9363C55.4463 63.5278 50.7334 72.8295 44.4785 81.0837C43.478 82.4751 40.9194 84.5529 39.4777 82.6058C38.662 81.5904 39.0953 80.1372 39.5009 79.0184C40.9928 74.9002 42.7803 70.9127 44.3605 66.8442C46.8606 60.4549 49.5085 54.1273 51.985 47.7298C52.3777 46.7148 52.9249 45.7172 53.2662 44.6899C54.3936 41.459 57.8444 36.368 53.2494 34.1794C52.091 33.6615 51.0919 33.5415 49.8713 33.4944C48.3012 33.5428 46.6238 34.4144 45.431 35.4224C39.7459 39.8496 34.382 44.8887 29.2675 49.9642C22.4965 56.6837 16.1475 63.3649 9.75958 70.3132C7.06729 73.1995 3.75779 77.0013 3.75779 79.5152C3.81191 80.3565 5.07603 78.9423 5.74293 78.4857C6.00846 78.3039 6.52967 78.7455 6.57603 79.0013C6.6793 79.5594 6.35407 79.8872 6.05482 80.3565C5.21424 81.6666 3.79466 81.8549 2.51233 81.0901C1.46339 80.3862 0.760514 78.7245 1.07605 77.5013C1.55873 74.8436 3.69074 72.8208 5.40575 70.8729C6.48427 69.5339 5.20366 71.0653 8.49305 67.1317C12.8661 61.902 17.5103 56.8926 22.2626 52.0063C25.3416 48.9658 28.4546 45.977 31.653 43.0643C34.8526 40.1529 38.348 37.0054 41.9644 34.6317C44.5384 32.8451 47.014 31.127 50.0272 30.1861C51.3257 29.8522 53.0377 29.7823 54.3452 30.1924C55.1675 30.4844 55.9951 31.0654 56.6022 31.6743C58.5211 33.6267 58.4587 35.9371 58.326 38.4939C58.1937 40.9757 56.9912 43.3572 56.0353 45.6201C54.8878 48.2512 53.9228 50.971 52.8806 53.6446C51.7278 56.483 50.7914 59.3914 49.5214 62.1808C47.2897 67.0532 45.6148 72.1965 43.625 77.175C43.5196 77.4907 43.4337 77.8127 43.3679 78.139C43.7826 78.3112 45.4217 75.0104 45.8462 74.3191C47.1217 72.2751 48.3322 70.194 49.6247 68.1611C50.6683 66.4967 51.6873 64.813 52.7436 63.1574C55.3368 59.0864 57.5842 55.0358 60.4397 51.1988C64.4472 45.7769 67.9613 40.1498 72.2663 34.9615C74.3552 32.447 76.3608 29.8756 78.5378 27.4359C81.045 24.6369 83.4142 21.3582 86.6322 19.3162C88.8695 17.9583 91.5949 17.2662 93.8542 19.0371C95.4129 20.3212 95.735 21.8092 95.2071 23.7259C91.0791 36.7994 86.4375 50.2869 80.8854 62.8023C80.758 63.203 79.4591 65.9874 79.9245 66.1466C80.742 64.9594 81.5888 63.7902 82.3943 62.5951C83.2484 61.3279 84.095 60.0565 84.9548 58.7921C88.9418 52.903 93.0391 47.0708 97.0426 41.2061C99.7081 37.3093 102.23 33.2788 105.061 29.4991C105.804 28.4329 106.372 27.7133 107.55 27.235C108.408 26.884 109.578 27.3917 110.153 28.106C113.228 31.8464 112.024 36.4334 112.252 40.9588C112.306 41.9545 112.338 42.9523 112.443 43.9416C112.549 44.9039 113.108 46.2571 113.554 47.0935C114.474 48.8249 115.983 50.6519 118.007 51.0889C118.757 51.3616 119.537 51.3595 120.325 51.3531C122.017 51.4306 123.939 50.847 125.488 50.1862C126.531 49.7398 127.58 49.2806 128.601 48.7847C135.07 45.655 141.509 42.4229 147.744 38.8449C151.896 36.5115 155.926 33.9558 159.884 31.3086C161.733 30.0678 163.606 28.874 165.446 27.6176C171.124 23.7045 176.747 19.6508 182.14 15.3483C184.056 13.8605 186.029 12.4706 188.018 11.0865C190.476 9.37201 192.907 7.63413 195.478 6.08493C196.512 5.4672 197.582 4.87821 198.635 4.29229C199.819 3.63285 201.043 2.96223 202.295 2.44258C204.158 1.64811 206.481 0.91935 208.544 1.00721C209.554 1.02644 210.493 1.43853 211.422 1.79783C213.478 2.64582 214.261 5.49469 213.983 7.49705C213.672 9.47678 213.534 11.4258 213.001 13.3611C212.694 14.4978 212.485 15.659 212.158 16.7942C211.884 17.755 211.63 18.6979 211.315 19.6459C211.077 20.3529 210.898 21.0805 210.653 21.7874C210.314 22.7604 209.91 23.6935 209.521 24.6454C209.477 24.7871 209.447 24.9331 209.433 25.0809C209.95 24.9306 210.43 24.708 210.94 24.5397C212.839 23.9131 214.784 23.2394 216.729 22.7704C222.723 21.2833 228.612 19.5635 234.675 18.3501C236.061 18.0721 237.432 17.7713 238.827 17.5087C240.437 17.2071 242.171 17.0356 243.751 16.6378C244.594 16.4264 245.465 16.3313 246.314 16.1621C247.775 15.8675 252.524 14.4846 252.986 16.2805C253.14 16.8384 253.095 17.4328 252.859 17.9611C252.581 18.5818 251.844 19.1471 251.19 19.2781C248.768 19.7532 246.268 19.8159 243.844 20.2611C242.853 20.4462 241.841 20.5322 240.845 20.6987C237.704 21.1812 234.55 21.7431 231.442 22.4046C228.493 23.0188 225.523 23.7032 222.617 24.4805C220.445 25.0599 218.259 25.6826 216.122 26.381C214.859 26.7913 213.566 27.1615 212.326 27.6367C210.38 28.5357 209.391 28.4738 207.492 31.0655C204.546 37.2636 204.973 36.2365 203.88 38.7328C203.123 40.4595 202.251 42.1012 201.41 43.7809C200.052 46.4892 198.788 49.2422 197.2 51.8182C194.417 56.5507 191.705 61.1563 188.551 65.6329C186.599 68.4025 184.529 71.1198 182.374 73.7356C179.82 77.0019 177.041 80.1767 174.168 83.1723C171.046 86.4253 167.286 89.0812 162.944 90.3957C161.104 90.9766 158.931 91.1522 157.01 90.9052C155.216 90.6674 153.202 90.2878 151.674 89.2859C148.282 87.2684 146.65 84.041 146.271 80.2635C146.068 78.0668 146.669 75.3614 147.63 73.4101C149.213 70.1287 150.701 66.964 152.854 64.0199C155.423 60.4809 158.371 57.1747 161.53 54.152C164.037 51.7378 166.643 49.4464 169.363 47.2774C173.186 44.2213 177.22 41.2868 181.377 38.699C186.222 35.6713 191.351 33.1844 196.565 30.8879C199.251 29.7218 202.371 28.793 204.388 26.5459C205.677 25.1575 206.787 23.7577 207.492 21.9924C208.655 19.2132 209.747 16.0109 210.246 13.0335C210.414 11.3064 210.778 9.53782 210.866 7.81414C210.971 5.83092 209.537 4.00417 207.589 3.60315C205.401 3.28522 203.565 4.19908 201.741 5.233C198.698 6.93754 195.874 9.11338 192.976 11.0591C188.785 13.862 184.808 16.963 180.693 19.87C175.656 23.4574 170.776 27.277 165.692 30.797C160.914 34.0988 156.144 37.4093 151.183 40.4324C148.415 42.1193 145.595 43.7711 142.751 45.3283C139.136 47.3083 135.401 49.1181 131.599 50.7147C129.589 51.5411 127.571 52.336 125.572 53.1753C124.576 53.4892 123.401 53.987 122.358 54.0674C121.194 54.2364 119.99 54.4587 118.812 54.4226C117.855 54.3746 116.903 54.2481 115.967 54.0442C114.864 53.8229 113.645 52.8077 112.861 52.0697C111.404 50.6826 110.842 48.8736 110.555 46.9582C109.693 41.2371 108.787 35.5277 108.007 29.795C107.966 29.5885 107.895 29.3892 107.797 29.2031C107.469 29.0524 106.071 31.6762 105.805 32.0865C104.97 33.3641 104.209 34.6895 103.356 35.9551C101.841 38.2053 100.499 40.5703 99.0299 42.8508C97.1173 45.811 95.2483 48.797 93.4222 51.8076C92.2998 53.715 91.0681 55.5668 89.905 57.4476C88.0156 60.476 86.3495 63.6193 84.0338 66.3579C83.4139 67.1022 82.6819 67.8629 81.8021 68.2943C80.4406 68.855 79.5338 68.8611 78.1838 68.3831C76.9216 67.9611 76.2179 66.5636 76.4326 65.3137C77.7845 58.0483 81.5673 51.3543 84.1603 44.4849C85.2659 41.544 86.3283 38.5914 87.4373 35.6549C89.0781 31.2995 90.4784 26.791 92.398 22.5505C92.6471 21.9556 93.762 19.7629 92.6551 20.2357ZM203.349 31.9407C201.115 32.7637 199.002 33.5707 196.852 34.5641C193.355 36.1882 189.951 37.875 186.547 39.6778C181.073 42.5788 175.949 46.2349 171.119 50.1059C167.176 53.2326 163.427 56.7008 160.028 60.4177C157.69 62.9532 155.583 65.6598 153.746 68.5649C152.131 71.1907 150.614 73.837 149.718 76.7988C148.334 81.3425 151.314 86.0072 155.762 87.2354C157.454 87.6851 159.613 87.799 161.29 87.2015C163.088 86.5167 164.922 85.8536 166.588 84.8762C170.636 82.0989 174.414 78.5819 177.515 74.763C180.933 70.5545 184.116 66.243 187.118 61.7347C189.004 58.8371 191.084 55.8832 192.795 52.8963C195.519 48.1822 197.668 43.1644 200.407 38.4538C201.515 36.3312 202.48 34.1683 203.349 31.9407Z" fill="#383838"/>
<path d="M159.884 31.3086C155.926 33.9558 151.896 36.5115 147.744 38.8449C141.509 42.4229 135.07 45.655 128.601 48.7847C127.58 49.2806 126.531 49.7398 125.488 50.1862C123.939 50.847 122.017 51.4306 120.325 51.3531C119.537 51.3595 118.757 51.3616 118.007 51.0889C115.983 50.6519 114.474 48.8249 113.554 47.0935C113.108 46.2571 112.549 44.9039 112.443 43.9416C112.338 42.9523 112.306 41.9545 112.252 40.9588C112.024 36.4334 113.228 31.8464 110.153 28.106C109.578 27.3917 108.408 26.884 107.55 27.235C106.372 27.7133 105.804 28.4329 105.061 29.4991C102.23 33.2788 99.7081 37.3093 97.0426 41.2061C93.0391 47.0708 88.9418 52.903 84.9548 58.7921C84.095 60.0565 83.2484 61.3279 82.3943 62.5951C81.5888 63.7902 80.742 64.9594 79.9245 66.1466C79.4591 65.9874 80.758 63.203 80.8854 62.8023C86.4375 50.2869 91.0791 36.7994 95.2071 23.7259C95.735 21.8092 95.4129 20.3212 93.8542 19.0371C91.5949 17.2662 88.8695 17.9583 86.6322 19.3162C83.4142 21.3582 81.045 24.6369 78.5378 27.4359C76.3608 29.8756 74.3552 32.447 72.2663 34.9615C67.9613 40.1498 64.4472 45.7769 60.4397 51.1988C57.5842 55.0358 55.3368 59.0864 52.7436 63.1574C51.6873 64.813 50.6683 66.4967 49.6247 68.1611C48.3322 70.194 47.1217 72.2751 45.8462 74.3191C45.4217 75.0104 43.7826 78.3112 43.3679 78.139C43.4337 77.8127 43.5196 77.4907 43.625 77.175C45.6148 72.1965 47.2897 67.0532 49.5214 62.1808C50.7914 59.3914 51.7278 56.483 52.8806 53.6446C53.9228 50.971 54.8878 48.2512 56.0353 45.6201C56.9912 43.3572 58.1937 40.9757 58.326 38.4939C58.4587 35.9371 58.5211 33.6267 56.6022 31.6743C55.9951 31.0654 55.1675 30.4844 54.3452 30.1924C53.0377 29.7823 51.3257 29.8522 50.0272 30.1861C47.014 31.127 44.5384 32.8451 41.9644 34.6317C38.348 37.0054 34.8526 40.1529 31.653 43.0643C28.4546 45.977 25.3416 48.9658 22.2626 52.0063C17.5103 56.8926 12.8661 61.902 8.49305 67.1317C5.20366 71.0653 6.48427 69.5339 5.40575 70.8729C3.69074 72.8208 1.55873 74.8436 1.07605 77.5013C0.760514 78.7245 1.46339 80.3862 2.51233 81.0901C3.79466 81.8549 5.21424 81.6666 6.05482 80.3565C6.35407 79.8872 6.6793 79.5594 6.57603 79.0013C6.52967 78.7455 6.00846 78.3039 5.74293 78.4857C5.07603 78.9423 3.81191 80.3565 3.75779 79.5152C3.75779 77.0013 7.06729 73.1995 9.75958 70.3132C16.1475 63.3649 22.4965 56.6837 29.2675 49.9642C34.382 44.8887 39.7459 39.8496 45.431 35.4224C46.6238 34.4144 48.3012 33.5428 49.8713 33.4944C51.0919 33.5415 52.091 33.6615 53.2494 34.1794C57.8444 36.368 54.3936 41.459 53.2662 44.6899C52.9249 45.7172 52.3777 46.7148 51.985 47.7298C49.5085 54.1273 46.8606 60.4549 44.3605 66.8442C42.7803 70.9127 40.9928 74.9002 39.5009 79.0184C39.0953 80.1372 38.662 81.5904 39.4777 82.6058C40.9194 84.5529 43.478 82.4751 44.4785 81.0837C50.7334 72.8295 55.4463 63.5278 61.211 54.9363C64.1738 50.4199 66.9907 45.8121 70.0641 41.3668C73.2812 36.7113 76.8643 32.3805 80.9171 28.421C81.3217 28.0299 81.7431 27.6642 82.1646 27.3006C83.5857 26.0737 85.0569 24.9123 86.5838 23.8358C88.5289 22.47 90.5638 21.3882 92.6551 20.2357C93.762 19.7629 92.6471 21.9556 92.398 22.5505C90.4784 26.791 89.0781 31.2995 87.4373 35.6549C86.3283 38.5914 85.2659 41.544 84.1603 44.4849C81.5673 51.3543 77.7845 58.0483 76.4326 65.3137C76.2179 66.5636 76.9216 67.9611 78.1838 68.3831C79.5338 68.8611 80.4406 68.855 81.8021 68.2943C82.6819 67.8629 83.4139 67.1022 84.0338 66.3579C86.3495 63.6193 88.0156 60.476 89.905 57.4476C91.0681 55.5668 92.2998 53.715 93.4222 51.8076C95.2483 48.797 97.1173 45.811 99.0299 42.8508C100.499 40.5703 101.841 38.2053 103.356 35.9551C104.209 34.6895 104.97 33.3641 105.805 32.0865C106.071 31.6762 107.469 29.0524 107.797 29.2031C107.895 29.3892 107.966 29.5885 108.007 29.795C108.787 35.5277 109.693 41.2371 110.555 46.9582C110.842 48.8736 111.404 50.6826 112.861 52.0697C113.645 52.8077 114.864 53.8229 115.967 54.0442C116.903 54.2481 117.855 54.3746 118.812 54.4226C119.99 54.4587 121.194 54.2364 122.358 54.0674C123.401 53.987 124.576 53.4892 125.572 53.1753C127.571 52.336 129.589 51.5411 131.599 50.7147C135.401 49.1181 139.136 47.3083 142.751 45.3283C145.595 43.7711 148.415 42.1193 151.183 40.4324C156.144 37.4093 160.914 34.0988 165.692 30.797C170.776 27.277 175.656 23.4574 180.693 19.87C184.808 16.963 188.785 13.862 192.976 11.0591C195.874 9.11338 198.698 6.93754 201.741 5.233C203.565 4.19908 205.401 3.28522 207.589 3.60315C209.537 4.00417 210.971 5.83092 210.866 7.81414C210.778 9.53782 210.414 11.3064 210.246 13.0335C209.747 16.0109 208.655 19.2132 207.492 21.9924C206.787 23.7577 205.677 25.1575 204.388 26.5459C202.371 28.793 199.251 29.7218 196.565 30.8879C191.351 33.1844 186.222 35.6713 181.377 38.699C177.22 41.2868 173.186 44.2213 169.363 47.2774C166.643 49.4464 164.037 51.7378 161.53 54.152C158.371 57.1747 155.423 60.4809 152.854 64.0199C150.701 66.964 149.213 70.1287 147.63 73.4101C146.669 75.3614 146.068 78.0668 146.271 80.2635C146.65 84.041 148.282 87.2684 151.674 89.2859C153.202 90.2878 155.216 90.6674 157.01 90.9052C158.931 91.1522 161.104 90.9766 162.944 90.3957C167.286 89.0812 171.046 86.4253 174.168 83.1723C177.041 80.1767 179.82 77.0019 182.374 73.7356C184.529 71.1198 186.599 68.4025 188.551 65.6329C191.705 61.1563 194.417 56.5507 197.2 51.8182C198.788 49.2422 200.052 46.4892 201.41 43.7809C202.251 42.1012 203.123 40.4595 203.88 38.7328C204.973 36.2365 204.546 37.2636 207.492 31.0655C209.391 28.4738 210.38 28.5357 212.326 27.6367C213.566 27.1615 214.859 26.7913 216.122 26.381C218.259 25.6826 220.445 25.0599 222.617 24.4805C225.523 23.7032 228.493 23.0188 231.442 22.4046C234.55 21.7431 237.704 21.1812 240.845 20.6987C241.841 20.5322 242.853 20.4462 243.844 20.2611C246.268 19.8159 248.768 19.7532 251.19 19.2781C251.844 19.1471 252.581 18.5818 252.859 17.9611C253.095 17.4328 253.14 16.8384 252.986 16.2805C252.524 14.4846 247.775 15.8675 246.314 16.1621C245.465 16.3313 244.594 16.4264 243.751 16.6378C242.171 17.0356 240.437 17.2071 238.827 17.5087C237.432 17.7713 236.061 18.0721 234.675 18.3501C228.612 19.5635 222.723 21.2833 216.729 22.7704C214.784 23.2394 212.839 23.9131 210.94 24.5397C210.43 24.708 209.95 24.9306 209.433 25.0809C209.447 24.9331 209.477 24.7871 209.521 24.6454C209.91 23.6935 210.314 22.7604 210.653 21.7874C210.898 21.0805 211.077 20.3529 211.315 19.6459C211.63 18.6979 211.884 17.755 212.158 16.7942C212.485 15.659 212.694 14.4978 213.001 13.3611C213.534 11.4258 213.672 9.47678 213.983 7.49705C214.261 5.49469 213.478 2.64582 211.422 1.79783C210.493 1.43853 209.554 1.02644 208.544 1.00721C206.481 0.91935 204.158 1.64811 202.295 2.44258C201.043 2.96223 199.819 3.63285 198.635 4.29229C197.582 4.87821 196.512 5.4672 195.478 6.08493C192.907 7.63413 190.476 9.37201 188.018 11.0865C186.029 12.4706 184.056 13.8605 182.14 15.3483C176.747 19.6508 171.124 23.7045 165.446 27.6176M159.884 31.3086C161.733 30.0678 163.606 28.874 165.446 27.6176M159.884 31.3086L165.446 27.6176M203.349 31.9407C202.48 34.1683 201.515 36.3312 200.407 38.4538C197.668 43.1644 195.519 48.1822 192.795 52.8963C191.084 55.8832 189.004 58.8371 187.118 61.7347C184.116 66.243 180.933 70.5545 177.515 74.763C174.414 78.5819 170.636 82.0989 166.588 84.8762C164.922 85.8536 163.088 86.5167 161.29 87.2015C159.613 87.799 157.454 87.6851 155.762 87.2354C151.314 86.0072 148.334 81.3425 149.718 76.7988C150.614 73.837 152.131 71.1907 153.746 68.5649C155.583 65.6598 157.69 62.9532 160.028 60.4177C163.427 56.7008 167.176 53.2326 171.119 50.1059C175.949 46.2349 181.073 42.5788 186.547 39.6778C189.951 37.875 193.355 36.1882 196.852 34.5641C199.002 33.5707 201.115 32.7637 203.349 31.9407Z" stroke="#383838" stroke-width="1.2"/>
</svg>
