<svg width="328" height="393" viewBox="0 0 328 393" fill="none" xmlns="http://www.w3.org/2000/svg">
<g filter="url(#filter0_dd)">
<rect x="4.00037" y="2" width="320" height="383" rx="7" fill="white"/>
</g>
<path d="M57.1801 284.648C57.1801 285.201 57.042 285.69 56.766 286.117C56.4899 286.544 56.1097 286.885 55.6254 287.141C56.1774 287.406 56.6149 287.773 56.9379 288.242C57.2608 288.706 57.4222 289.253 57.4222 289.883C57.4222 290.893 57.0785 291.693 56.391 292.281C55.7035 292.865 54.7686 293.156 53.5863 293.156C52.404 293.156 51.4665 292.862 50.7738 292.273C50.0811 291.685 49.7347 290.888 49.7347 289.883C49.7347 289.253 49.8962 288.703 50.2191 288.234C50.542 287.766 50.9769 287.401 51.5238 287.141C51.0394 286.885 50.6592 286.544 50.3832 286.117C50.1123 285.69 49.9769 285.201 49.9769 284.648C49.9769 283.68 50.2998 282.909 50.9457 282.336C51.5915 281.758 52.4691 281.469 53.5785 281.469C54.6827 281.469 55.5577 281.755 56.2035 282.328C56.8545 282.896 57.1801 283.669 57.1801 284.648ZM55.1566 289.719C55.1566 289.224 55.0134 288.828 54.7269 288.531C54.4405 288.234 54.0551 288.086 53.5707 288.086C53.0915 288.086 52.7087 288.234 52.4222 288.531C52.1358 288.823 51.9926 289.219 51.9926 289.719C51.9926 290.203 52.1332 290.594 52.4144 290.891C52.6957 291.188 53.0863 291.336 53.5863 291.336C54.0759 291.336 54.4587 291.193 54.7347 290.906C55.016 290.62 55.1566 290.224 55.1566 289.719ZM54.9222 284.758C54.9222 284.315 54.8051 283.961 54.5707 283.695C54.3363 283.424 54.0056 283.289 53.5785 283.289C53.1566 283.289 52.8285 283.419 52.5941 283.68C52.3597 283.94 52.2426 284.299 52.2426 284.758C52.2426 285.211 52.3597 285.576 52.5941 285.852C52.8285 286.128 53.1592 286.266 53.5863 286.266C54.0134 286.266 54.3415 286.128 54.5707 285.852C54.8051 285.576 54.9222 285.211 54.9222 284.758ZM65.0785 281.508V283.367H64.8597C63.8389 283.383 63.016 283.648 62.391 284.164C61.7712 284.68 61.3988 285.396 61.2738 286.312C61.878 285.698 62.641 285.391 63.5629 285.391C64.5524 285.391 65.3389 285.745 65.9222 286.453C66.5056 287.161 66.7972 288.094 66.7972 289.25C66.7972 289.99 66.6358 290.659 66.3129 291.258C65.9952 291.857 65.542 292.323 64.9535 292.656C64.3702 292.99 63.7087 293.156 62.9691 293.156C61.7712 293.156 60.8024 292.74 60.0629 291.906C59.3285 291.073 58.9613 289.961 58.9613 288.57V287.758C58.9613 286.523 59.1931 285.435 59.6566 284.492C60.1254 283.544 60.7946 282.812 61.6644 282.297C62.5394 281.776 63.5524 281.513 64.7035 281.508H65.0785ZM62.8754 287.203C62.5108 287.203 62.1801 287.299 61.8832 287.492C61.5863 287.68 61.3676 287.93 61.2269 288.242V288.93C61.2269 289.685 61.3754 290.276 61.6722 290.703C61.9691 291.125 62.3858 291.336 62.9222 291.336C63.4066 291.336 63.7972 291.146 64.0941 290.766C64.3962 290.38 64.5472 289.883 64.5472 289.273C64.5472 288.654 64.3962 288.154 64.0941 287.773C63.792 287.393 63.3858 287.203 62.8754 287.203ZM68.1097 283.812C68.1097 283.115 68.3363 282.549 68.7894 282.117C69.2426 281.68 69.8363 281.461 70.5707 281.461C71.3155 281.461 71.9144 281.677 72.3676 282.109C72.8207 282.536 73.0472 283.117 73.0472 283.852V284.414C73.0472 285.117 72.8207 285.682 72.3676 286.109C71.9144 286.536 71.3207 286.75 70.5863 286.75C69.8467 286.75 69.2478 286.536 68.7894 286.109C68.3363 285.677 68.1097 285.096 68.1097 284.367V283.812ZM69.6097 284.414C69.6097 284.727 69.6983 284.979 69.8754 285.172C70.0577 285.359 70.2946 285.453 70.5863 285.453C70.878 285.453 71.1097 285.357 71.2816 285.164C71.4535 284.971 71.5394 284.714 71.5394 284.391V283.812C71.5394 283.5 71.4535 283.247 71.2816 283.055C71.1097 282.862 70.8728 282.766 70.5707 282.766C70.2842 282.766 70.0524 282.862 69.8754 283.055C69.6983 283.242 69.6097 283.505 69.6097 283.844V284.414ZM73.5472 290.211C73.5472 289.508 73.7764 288.943 74.2347 288.516C74.6931 288.083 75.2868 287.867 76.016 287.867C76.7556 287.867 77.3519 288.081 77.8051 288.508C78.2634 288.93 78.4926 289.513 78.4926 290.258V290.82C78.4926 291.518 78.2686 292.083 77.8207 292.516C77.3728 292.943 76.7764 293.156 76.0316 293.156C75.2816 293.156 74.6801 292.94 74.2269 292.508C73.7738 292.076 73.5472 291.503 73.5472 290.789V290.211ZM75.0472 290.82C75.0472 291.107 75.141 291.352 75.3285 291.555C75.516 291.758 75.7504 291.859 76.0316 291.859C76.667 291.859 76.9847 291.508 76.9847 290.805V290.211C76.9847 289.898 76.8962 289.648 76.7191 289.461C76.542 289.268 76.3077 289.172 76.016 289.172C75.7243 289.172 75.4899 289.268 75.3129 289.461C75.1358 289.648 75.0472 289.906 75.0472 290.234V290.82ZM71.0316 292.148L69.9301 291.555L75.4847 282.664L76.5863 283.258L71.0316 292.148ZM83.8597 288.695C83.8597 287.867 84.0212 287.122 84.3441 286.461C84.6722 285.799 85.1254 285.289 85.7035 284.93C86.2868 284.57 86.9509 284.391 87.6957 284.391C88.8467 284.391 89.7764 284.789 90.4847 285.586C91.1983 286.383 91.5551 287.443 91.5551 288.766V288.867C91.5551 289.69 91.3962 290.43 91.0785 291.086C90.766 291.737 90.3155 292.245 89.7269 292.609C89.1436 292.974 88.4717 293.156 87.7113 293.156C86.5655 293.156 85.6358 292.758 84.9222 291.961C84.2139 291.164 83.8597 290.109 83.8597 288.797V288.695ZM85.3129 288.867C85.3129 289.805 85.529 290.557 85.9613 291.125C86.3988 291.693 86.9821 291.977 87.7113 291.977C88.4457 291.977 89.029 291.69 89.4613 291.117C89.8936 290.539 90.1097 289.732 90.1097 288.695C90.1097 287.768 89.8884 287.018 89.4457 286.445C89.0082 285.867 88.4248 285.578 87.6957 285.578C86.9821 285.578 86.4066 285.862 85.9691 286.43C85.5316 286.997 85.3129 287.81 85.3129 288.867ZM94.0785 293V285.664H92.7426V284.547H94.0785V283.68C94.0785 282.773 94.3207 282.073 94.8051 281.578C95.2894 281.083 95.9743 280.836 96.8597 280.836C97.1931 280.836 97.5238 280.88 97.8519 280.969L97.7738 282.141C97.529 282.094 97.2686 282.07 96.9926 282.07C96.5238 282.07 96.1618 282.208 95.9066 282.484C95.6514 282.755 95.5238 283.146 95.5238 283.656V284.547H97.3285V285.664H95.5238V293H94.0785ZM108.118 292.164C107.555 292.826 106.73 293.156 105.641 293.156C104.74 293.156 104.052 292.896 103.578 292.375C103.11 291.849 102.873 291.073 102.868 290.047V284.547H104.313V290.008C104.313 291.289 104.834 291.93 105.875 291.93C106.98 291.93 107.714 291.518 108.078 290.695V284.547H109.524V293H108.149L108.118 292.164ZM116.649 290.758C116.649 290.367 116.5 290.065 116.203 289.852C115.912 289.633 115.399 289.445 114.664 289.289C113.935 289.133 113.355 288.945 112.922 288.727C112.495 288.508 112.177 288.247 111.969 287.945C111.766 287.643 111.664 287.284 111.664 286.867C111.664 286.174 111.956 285.589 112.539 285.109C113.128 284.63 113.878 284.391 114.789 284.391C115.748 284.391 116.524 284.638 117.118 285.133C117.717 285.628 118.016 286.26 118.016 287.031H116.563C116.563 286.635 116.394 286.294 116.055 286.008C115.722 285.721 115.3 285.578 114.789 285.578C114.263 285.578 113.852 285.693 113.555 285.922C113.258 286.151 113.11 286.451 113.11 286.82C113.11 287.169 113.248 287.432 113.524 287.609C113.8 287.786 114.297 287.956 115.016 288.117C115.74 288.279 116.326 288.471 116.774 288.695C117.222 288.919 117.552 289.19 117.766 289.508C117.985 289.82 118.094 290.203 118.094 290.656C118.094 291.411 117.792 292.018 117.188 292.477C116.584 292.93 115.8 293.156 114.836 293.156C114.159 293.156 113.56 293.036 113.039 292.797C112.519 292.557 112.11 292.224 111.813 291.797C111.521 291.365 111.375 290.898 111.375 290.398H112.821C112.847 290.883 113.039 291.268 113.399 291.555C113.763 291.836 114.243 291.977 114.836 291.977C115.383 291.977 115.821 291.867 116.149 291.648C116.482 291.424 116.649 291.128 116.649 290.758ZM123.485 293.156C122.339 293.156 121.407 292.781 120.688 292.031C119.969 291.276 119.61 290.268 119.61 289.008V288.742C119.61 287.904 119.769 287.156 120.086 286.5C120.409 285.839 120.857 285.323 121.43 284.953C122.008 284.578 122.633 284.391 123.305 284.391C124.404 284.391 125.258 284.753 125.868 285.477C126.477 286.201 126.782 287.237 126.782 288.586V289.188H121.055C121.076 290.021 121.318 290.695 121.782 291.211C122.25 291.721 122.844 291.977 123.563 291.977C124.073 291.977 124.506 291.872 124.86 291.664C125.214 291.456 125.524 291.18 125.789 290.836L126.672 291.523C125.964 292.612 124.901 293.156 123.485 293.156ZM123.305 285.578C122.722 285.578 122.232 285.792 121.836 286.219C121.44 286.641 121.196 287.234 121.102 288H125.336V287.891C125.295 287.156 125.097 286.589 124.743 286.188C124.388 285.781 123.909 285.578 123.305 285.578ZM132.547 285.844C132.328 285.807 132.092 285.789 131.836 285.789C130.888 285.789 130.245 286.193 129.907 287V293H128.461V284.547H129.868L129.891 285.523C130.365 284.768 131.037 284.391 131.907 284.391C132.188 284.391 132.401 284.427 132.547 284.5V285.844ZM138.805 290.758C138.805 290.367 138.657 290.065 138.36 289.852C138.068 289.633 137.555 289.445 136.821 289.289C136.092 289.133 135.511 288.945 135.078 288.727C134.651 288.508 134.334 288.247 134.125 287.945C133.922 287.643 133.821 287.284 133.821 286.867C133.821 286.174 134.112 285.589 134.696 285.109C135.284 284.63 136.034 284.391 136.946 284.391C137.904 284.391 138.68 284.638 139.274 285.133C139.873 285.628 140.172 286.26 140.172 287.031H138.719C138.719 286.635 138.55 286.294 138.211 286.008C137.878 285.721 137.456 285.578 136.946 285.578C136.42 285.578 136.008 285.693 135.711 285.922C135.414 286.151 135.266 286.451 135.266 286.82C135.266 287.169 135.404 287.432 135.68 287.609C135.956 287.786 136.453 287.956 137.172 288.117C137.896 288.279 138.482 288.471 138.93 288.695C139.378 288.919 139.709 289.19 139.922 289.508C140.141 289.82 140.25 290.203 140.25 290.656C140.25 291.411 139.948 292.018 139.344 292.477C138.74 292.93 137.956 293.156 136.993 293.156C136.315 293.156 135.717 293.036 135.196 292.797C134.675 292.557 134.266 292.224 133.969 291.797C133.677 291.365 133.532 290.898 133.532 290.398H134.977C135.003 290.883 135.196 291.268 135.555 291.555C135.92 291.836 136.399 291.977 136.993 291.977C137.539 291.977 137.977 291.867 138.305 291.648C138.638 291.424 138.805 291.128 138.805 290.758ZM149.493 291.977C150.008 291.977 150.459 291.82 150.844 291.508C151.23 291.195 151.443 290.805 151.485 290.336H152.852C152.826 290.82 152.659 291.281 152.352 291.719C152.045 292.156 151.633 292.505 151.118 292.766C150.607 293.026 150.065 293.156 149.493 293.156C148.342 293.156 147.425 292.773 146.743 292.008C146.065 291.237 145.727 290.185 145.727 288.852V288.609C145.727 287.786 145.878 287.055 146.18 286.414C146.482 285.773 146.914 285.276 147.477 284.922C148.045 284.568 148.714 284.391 149.485 284.391C150.433 284.391 151.219 284.674 151.844 285.242C152.474 285.81 152.81 286.547 152.852 287.453H151.485C151.443 286.906 151.235 286.458 150.86 286.109C150.49 285.755 150.032 285.578 149.485 285.578C148.75 285.578 148.18 285.844 147.774 286.375C147.373 286.901 147.172 287.664 147.172 288.664V288.938C147.172 289.911 147.373 290.661 147.774 291.188C148.175 291.714 148.748 291.977 149.493 291.977ZM154.094 288.695C154.094 287.867 154.256 287.122 154.578 286.461C154.907 285.799 155.36 285.289 155.938 284.93C156.521 284.57 157.185 284.391 157.93 284.391C159.081 284.391 160.011 284.789 160.719 285.586C161.433 286.383 161.789 287.443 161.789 288.766V288.867C161.789 289.69 161.631 290.43 161.313 291.086C161 291.737 160.55 292.245 159.961 292.609C159.378 292.974 158.706 293.156 157.946 293.156C156.8 293.156 155.87 292.758 155.157 291.961C154.448 291.164 154.094 290.109 154.094 288.797V288.695ZM155.547 288.867C155.547 289.805 155.763 290.557 156.196 291.125C156.633 291.693 157.217 291.977 157.946 291.977C158.68 291.977 159.263 291.69 159.696 291.117C160.128 290.539 160.344 289.732 160.344 288.695C160.344 287.768 160.123 287.018 159.68 286.445C159.243 285.867 158.659 285.578 157.93 285.578C157.217 285.578 156.641 285.862 156.203 286.43C155.766 286.997 155.547 287.81 155.547 288.867ZM165.172 293H163.727V281H165.172V293ZM169.063 293H167.618V281H169.063V293ZM176.602 293C176.519 292.833 176.451 292.536 176.399 292.109C175.727 292.807 174.925 293.156 173.993 293.156C173.159 293.156 172.474 292.922 171.938 292.453C171.407 291.979 171.141 291.38 171.141 290.656C171.141 289.776 171.474 289.094 172.141 288.609C172.813 288.12 173.756 287.875 174.969 287.875H176.375V287.211C176.375 286.706 176.224 286.305 175.922 286.008C175.62 285.706 175.175 285.555 174.586 285.555C174.071 285.555 173.638 285.685 173.289 285.945C172.94 286.206 172.766 286.521 172.766 286.891H171.313C171.313 286.469 171.461 286.062 171.758 285.672C172.06 285.276 172.467 284.964 172.977 284.734C173.493 284.505 174.058 284.391 174.672 284.391C175.646 284.391 176.409 284.635 176.961 285.125C177.513 285.609 177.8 286.279 177.821 287.133V291.023C177.821 291.799 177.92 292.417 178.118 292.875V293H176.602ZM174.203 291.898C174.657 291.898 175.086 291.781 175.493 291.547C175.899 291.312 176.193 291.008 176.375 290.633V288.898H175.243C173.472 288.898 172.586 289.417 172.586 290.453C172.586 290.906 172.737 291.26 173.039 291.516C173.342 291.771 173.73 291.898 174.203 291.898ZM187.243 288.867C187.243 290.159 186.946 291.198 186.352 291.984C185.758 292.766 184.961 293.156 183.961 293.156C182.894 293.156 182.068 292.779 181.485 292.023L181.414 293H180.086V281H181.532V285.477C182.115 284.753 182.92 284.391 183.946 284.391C184.972 284.391 185.776 284.779 186.36 285.555C186.948 286.331 187.243 287.393 187.243 288.742V288.867ZM185.797 288.703C185.797 287.719 185.607 286.958 185.227 286.422C184.847 285.885 184.3 285.617 183.586 285.617C182.633 285.617 181.948 286.06 181.532 286.945V290.602C181.974 291.487 182.664 291.93 183.602 291.93C184.295 291.93 184.834 291.661 185.219 291.125C185.605 290.589 185.797 289.781 185.797 288.703ZM188.688 288.695C188.688 287.867 188.849 287.122 189.172 286.461C189.5 285.799 189.953 285.289 190.532 284.93C191.115 284.57 191.779 284.391 192.524 284.391C193.675 284.391 194.605 284.789 195.313 285.586C196.026 286.383 196.383 287.443 196.383 288.766V288.867C196.383 289.69 196.224 290.43 195.907 291.086C195.594 291.737 195.144 292.245 194.555 292.609C193.972 292.974 193.3 293.156 192.539 293.156C191.394 293.156 190.464 292.758 189.75 291.961C189.042 291.164 188.688 290.109 188.688 288.797V288.695ZM190.141 288.867C190.141 289.805 190.357 290.557 190.789 291.125C191.227 291.693 191.81 291.977 192.539 291.977C193.274 291.977 193.857 291.69 194.289 291.117C194.722 290.539 194.938 289.732 194.938 288.695C194.938 287.768 194.717 287.018 194.274 286.445C193.836 285.867 193.253 285.578 192.524 285.578C191.81 285.578 191.235 285.862 190.797 286.43C190.36 286.997 190.141 287.81 190.141 288.867ZM202.282 285.844C202.063 285.807 201.826 285.789 201.571 285.789C200.623 285.789 199.98 286.193 199.641 287V293H198.196V284.547H199.602L199.625 285.523C200.099 284.768 200.771 284.391 201.641 284.391C201.922 284.391 202.136 284.427 202.282 284.5V285.844ZM208.524 293C208.44 292.833 208.373 292.536 208.321 292.109C207.649 292.807 206.847 293.156 205.914 293.156C205.081 293.156 204.396 292.922 203.86 292.453C203.328 291.979 203.063 291.38 203.063 290.656C203.063 289.776 203.396 289.094 204.063 288.609C204.735 288.12 205.677 287.875 206.891 287.875H208.297V287.211C208.297 286.706 208.146 286.305 207.844 286.008C207.542 285.706 207.097 285.555 206.508 285.555C205.993 285.555 205.56 285.685 205.211 285.945C204.862 286.206 204.688 286.521 204.688 286.891H203.235C203.235 286.469 203.383 286.062 203.68 285.672C203.982 285.276 204.388 284.964 204.899 284.734C205.414 284.505 205.98 284.391 206.594 284.391C207.568 284.391 208.331 284.635 208.883 285.125C209.435 285.609 209.722 286.279 209.743 287.133V291.023C209.743 291.799 209.842 292.417 210.039 292.875V293H208.524ZM206.125 291.898C206.578 291.898 207.008 291.781 207.414 291.547C207.821 291.312 208.115 291.008 208.297 290.633V288.898H207.164C205.394 288.898 204.508 289.417 204.508 290.453C204.508 290.906 204.659 291.26 204.961 291.516C205.263 291.771 205.651 291.898 206.125 291.898ZM213.969 282.5V284.547H215.547V285.664H213.969V290.906C213.969 291.245 214.039 291.5 214.18 291.672C214.321 291.839 214.56 291.922 214.899 291.922C215.065 291.922 215.295 291.891 215.586 291.828V293C215.206 293.104 214.836 293.156 214.477 293.156C213.831 293.156 213.344 292.961 213.016 292.57C212.688 292.18 212.524 291.625 212.524 290.906V285.664H210.985V284.547H212.524V282.5H213.969ZM220.75 293.156C219.605 293.156 218.672 292.781 217.953 292.031C217.235 291.276 216.875 290.268 216.875 289.008V288.742C216.875 287.904 217.034 287.156 217.352 286.5C217.675 285.839 218.123 285.323 218.696 284.953C219.274 284.578 219.899 284.391 220.571 284.391C221.67 284.391 222.524 284.753 223.133 285.477C223.743 286.201 224.047 287.237 224.047 288.586V289.188H218.321C218.342 290.021 218.584 290.695 219.047 291.211C219.516 291.721 220.11 291.977 220.828 291.977C221.339 291.977 221.771 291.872 222.125 291.664C222.48 291.456 222.789 291.18 223.055 290.836L223.938 291.523C223.23 292.612 222.167 293.156 220.75 293.156ZM220.571 285.578C219.987 285.578 219.498 285.792 219.102 286.219C218.706 286.641 218.461 287.234 218.368 288H222.602V287.891C222.56 287.156 222.362 286.589 222.008 286.188C221.654 285.781 221.175 285.578 220.571 285.578ZM229.313 288.695C229.313 287.867 229.474 287.122 229.797 286.461C230.125 285.799 230.578 285.289 231.157 284.93C231.74 284.57 232.404 284.391 233.149 284.391C234.3 284.391 235.23 284.789 235.938 285.586C236.651 286.383 237.008 287.443 237.008 288.766V288.867C237.008 289.69 236.849 290.43 236.532 291.086C236.219 291.737 235.769 292.245 235.18 292.609C234.597 292.974 233.925 293.156 233.164 293.156C232.019 293.156 231.089 292.758 230.375 291.961C229.667 291.164 229.313 290.109 229.313 288.797V288.695ZM230.766 288.867C230.766 289.805 230.982 290.557 231.414 291.125C231.852 291.693 232.435 291.977 233.164 291.977C233.899 291.977 234.482 291.69 234.914 291.117C235.347 290.539 235.563 289.732 235.563 288.695C235.563 287.768 235.342 287.018 234.899 286.445C234.461 285.867 233.878 285.578 233.149 285.578C232.435 285.578 231.86 285.862 231.422 286.43C230.985 286.997 230.766 287.81 230.766 288.867ZM240.188 284.547L240.235 285.609C240.881 284.797 241.724 284.391 242.766 284.391C244.552 284.391 245.453 285.398 245.469 287.414V293H244.024V287.406C244.019 286.797 243.878 286.346 243.602 286.055C243.331 285.763 242.907 285.617 242.328 285.617C241.86 285.617 241.448 285.742 241.094 285.992C240.74 286.242 240.464 286.57 240.266 286.977V293H238.821V284.547H240.188ZM252.102 293V285.664H250.766V284.547H252.102V283.828C252.102 282.885 252.37 282.151 252.907 281.625C253.448 281.099 254.211 280.836 255.196 280.836C255.779 280.836 256.516 280.995 257.407 281.312L257.164 282.531C256.513 282.271 255.894 282.141 255.305 282.141C254.685 282.141 254.237 282.281 253.961 282.562C253.69 282.839 253.555 283.255 253.555 283.812V284.547H255.282V285.664H253.555V293H252.102ZM258.125 293H256.672V284.547H258.125V293ZM262.047 293H260.602V281H262.047V293ZM267.875 293.156C266.73 293.156 265.797 292.781 265.078 292.031C264.36 291.276 264 290.268 264 289.008V288.742C264 287.904 264.159 287.156 264.477 286.5C264.8 285.839 265.248 285.323 265.821 284.953C266.399 284.578 267.024 284.391 267.696 284.391C268.795 284.391 269.649 284.753 270.258 285.477C270.868 286.201 271.172 287.237 271.172 288.586V289.188H265.446C265.467 290.021 265.709 290.695 266.172 291.211C266.641 291.721 267.235 291.977 267.953 291.977C268.464 291.977 268.896 291.872 269.25 291.664C269.605 291.456 269.914 291.18 270.18 290.836L271.063 291.523C270.355 292.612 269.292 293.156 267.875 293.156ZM267.696 285.578C267.112 285.578 266.623 285.792 266.227 286.219C265.831 286.641 265.586 287.234 265.493 288H269.727V287.891C269.685 287.156 269.487 286.589 269.133 286.188C268.779 285.781 268.3 285.578 267.696 285.578ZM277.774 290.758C277.774 290.367 277.625 290.065 277.328 289.852C277.037 289.633 276.524 289.445 275.789 289.289C275.06 289.133 274.48 288.945 274.047 288.727C273.62 288.508 273.302 288.247 273.094 287.945C272.891 287.643 272.789 287.284 272.789 286.867C272.789 286.174 273.081 285.589 273.664 285.109C274.253 284.63 275.003 284.391 275.914 284.391C276.873 284.391 277.649 284.638 278.243 285.133C278.842 285.628 279.141 286.26 279.141 287.031H277.688C277.688 286.635 277.519 286.294 277.18 286.008C276.847 285.721 276.425 285.578 275.914 285.578C275.388 285.578 274.977 285.693 274.68 285.922C274.383 286.151 274.235 286.451 274.235 286.82C274.235 287.169 274.373 287.432 274.649 287.609C274.925 287.786 275.422 287.956 276.141 288.117C276.865 288.279 277.451 288.471 277.899 288.695C278.347 288.919 278.677 289.19 278.891 289.508C279.11 289.82 279.219 290.203 279.219 290.656C279.219 291.411 278.917 292.018 278.313 292.477C277.709 292.93 276.925 293.156 275.961 293.156C275.284 293.156 274.685 293.036 274.164 292.797C273.644 292.557 273.235 292.224 272.938 291.797C272.646 291.365 272.5 290.898 272.5 290.398H273.946C273.972 290.883 274.164 291.268 274.524 291.555C274.888 291.836 275.368 291.977 275.961 291.977C276.508 291.977 276.946 291.867 277.274 291.648C277.607 291.424 277.774 291.128 277.774 290.758ZM55.7504 318.008L57.3754 311.547H58.8207L56.3597 320H55.1879L53.1332 313.594L51.1332 320H49.9613L47.5082 311.547H48.9457L50.6097 317.875L52.5785 311.547H53.7426L55.7504 318.008ZM61.8676 320H60.4222V311.547H61.8676V320ZM60.3051 309.305C60.3051 309.07 60.3754 308.872 60.516 308.711C60.6618 308.549 60.8754 308.469 61.1566 308.469C61.4379 308.469 61.6514 308.549 61.7972 308.711C61.9431 308.872 62.016 309.07 62.016 309.305C62.016 309.539 61.9431 309.734 61.7972 309.891C61.6514 310.047 61.4379 310.125 61.1566 310.125C60.8754 310.125 60.6618 310.047 60.516 309.891C60.3754 309.734 60.3051 309.539 60.3051 309.305ZM66.1488 309.5V311.547H67.7269V312.664H66.1488V317.906C66.1488 318.245 66.2191 318.5 66.3597 318.672C66.5004 318.839 66.7399 318.922 67.0785 318.922C67.2452 318.922 67.4743 318.891 67.766 318.828V320C67.3858 320.104 67.016 320.156 66.6566 320.156C66.0108 320.156 65.5238 319.961 65.1957 319.57C64.8676 319.18 64.7035 318.625 64.7035 317.906V312.664H63.1644V311.547H64.7035V309.5H66.1488ZM70.8676 312.57C71.5082 311.784 72.3415 311.391 73.3676 311.391C75.154 311.391 76.0551 312.398 76.0707 314.414V320H74.6254V314.406C74.6202 313.797 74.4795 313.346 74.2035 313.055C73.9327 312.763 73.5082 312.617 72.9301 312.617C72.4613 312.617 72.0498 312.742 71.6957 312.992C71.3415 313.242 71.0655 313.57 70.8676 313.977V320H69.4222V308H70.8676V312.57ZM81.8207 315.695C81.8207 314.867 81.9821 314.122 82.3051 313.461C82.6332 312.799 83.0863 312.289 83.6644 311.93C84.2478 311.57 84.9118 311.391 85.6566 311.391C86.8077 311.391 87.7373 311.789 88.4457 312.586C89.1592 313.383 89.516 314.443 89.516 315.766V315.867C89.516 316.69 89.3571 317.43 89.0394 318.086C88.7269 318.737 88.2764 319.245 87.6879 319.609C87.1045 319.974 86.4327 320.156 85.6722 320.156C84.5264 320.156 83.5967 319.758 82.8832 318.961C82.1748 318.164 81.8207 317.109 81.8207 315.797V315.695ZM83.2738 315.867C83.2738 316.805 83.4899 317.557 83.9222 318.125C84.3597 318.693 84.9431 318.977 85.6722 318.977C86.4066 318.977 86.9899 318.69 87.4222 318.117C87.8545 317.539 88.0707 316.732 88.0707 315.695C88.0707 314.768 87.8493 314.018 87.4066 313.445C86.9691 312.867 86.3858 312.578 85.6566 312.578C84.9431 312.578 84.3676 312.862 83.9301 313.43C83.4926 313.997 83.2738 314.81 83.2738 315.867ZM93.2894 309.5V311.547H94.8676V312.664H93.2894V317.906C93.2894 318.245 93.3597 318.5 93.5004 318.672C93.641 318.839 93.8806 318.922 94.2191 318.922C94.3858 318.922 94.6149 318.891 94.9066 318.828V320C94.5264 320.104 94.1566 320.156 93.7972 320.156C93.1514 320.156 92.6644 319.961 92.3363 319.57C92.0082 319.18 91.8441 318.625 91.8441 317.906V312.664H90.3051V311.547H91.8441V309.5H93.2894ZM98.0082 312.57C98.6488 311.784 99.4821 311.391 100.508 311.391C102.295 311.391 103.196 312.398 103.211 314.414V320H101.766V314.406C101.761 313.797 101.62 313.346 101.344 313.055C101.073 312.763 100.649 312.617 100.071 312.617C99.6019 312.617 99.1905 312.742 98.8363 312.992C98.4821 313.242 98.2061 313.57 98.0082 313.977V320H96.5629V308H98.0082V312.57ZM108.883 320.156C107.737 320.156 106.805 319.781 106.086 319.031C105.368 318.276 105.008 317.268 105.008 316.008V315.742C105.008 314.904 105.167 314.156 105.485 313.5C105.808 312.839 106.256 312.323 106.828 311.953C107.407 311.578 108.032 311.391 108.703 311.391C109.802 311.391 110.657 311.753 111.266 312.477C111.875 313.201 112.18 314.237 112.18 315.586V316.188H106.453C106.474 317.021 106.717 317.695 107.18 318.211C107.649 318.721 108.243 318.977 108.961 318.977C109.472 318.977 109.904 318.872 110.258 318.664C110.612 318.456 110.922 318.18 111.188 317.836L112.071 318.523C111.362 319.612 110.3 320.156 108.883 320.156ZM108.703 312.578C108.12 312.578 107.631 312.792 107.235 313.219C106.839 313.641 106.594 314.234 106.5 315H110.735V314.891C110.693 314.156 110.495 313.589 110.141 313.188C109.787 312.781 109.308 312.578 108.703 312.578ZM117.946 312.844C117.727 312.807 117.49 312.789 117.235 312.789C116.287 312.789 115.644 313.193 115.305 314V320H113.86V311.547H115.266L115.289 312.523C115.763 311.768 116.435 311.391 117.305 311.391C117.586 311.391 117.8 311.427 117.946 311.5V312.844ZM124.203 317.758C124.203 317.367 124.055 317.065 123.758 316.852C123.467 316.633 122.953 316.445 122.219 316.289C121.49 316.133 120.909 315.945 120.477 315.727C120.05 315.508 119.732 315.247 119.524 314.945C119.321 314.643 119.219 314.284 119.219 313.867C119.219 313.174 119.511 312.589 120.094 312.109C120.683 311.63 121.433 311.391 122.344 311.391C123.302 311.391 124.078 311.638 124.672 312.133C125.271 312.628 125.571 313.26 125.571 314.031H124.118C124.118 313.635 123.948 313.294 123.61 313.008C123.276 312.721 122.855 312.578 122.344 312.578C121.818 312.578 121.407 312.693 121.11 312.922C120.813 313.151 120.664 313.451 120.664 313.82C120.664 314.169 120.802 314.432 121.078 314.609C121.355 314.786 121.852 314.956 122.571 315.117C123.295 315.279 123.881 315.471 124.328 315.695C124.776 315.919 125.107 316.19 125.321 316.508C125.539 316.82 125.649 317.203 125.649 317.656C125.649 318.411 125.347 319.018 124.743 319.477C124.138 319.93 123.355 320.156 122.391 320.156C121.714 320.156 121.115 320.036 120.594 319.797C120.073 319.557 119.664 319.224 119.368 318.797C119.076 318.365 118.93 317.898 118.93 317.398H120.375C120.401 317.883 120.594 318.268 120.953 318.555C121.318 318.836 121.797 318.977 122.391 318.977C122.938 318.977 123.375 318.867 123.703 318.648C124.037 318.424 124.203 318.128 124.203 317.758ZM136.719 320C136.636 319.833 136.568 319.536 136.516 319.109C135.844 319.807 135.042 320.156 134.11 320.156C133.276 320.156 132.592 319.922 132.055 319.453C131.524 318.979 131.258 318.38 131.258 317.656C131.258 316.776 131.592 316.094 132.258 315.609C132.93 315.12 133.873 314.875 135.086 314.875H136.493V314.211C136.493 313.706 136.342 313.305 136.039 313.008C135.737 312.706 135.292 312.555 134.703 312.555C134.188 312.555 133.756 312.685 133.407 312.945C133.058 313.206 132.883 313.521 132.883 313.891H131.43C131.43 313.469 131.578 313.062 131.875 312.672C132.177 312.276 132.584 311.964 133.094 311.734C133.61 311.505 134.175 311.391 134.789 311.391C135.763 311.391 136.526 311.635 137.078 312.125C137.631 312.609 137.917 313.279 137.938 314.133V318.023C137.938 318.799 138.037 319.417 138.235 319.875V320H136.719ZM134.321 318.898C134.774 318.898 135.203 318.781 135.61 318.547C136.016 318.312 136.31 318.008 136.493 317.633V315.898H135.36C133.589 315.898 132.703 316.417 132.703 317.453C132.703 317.906 132.855 318.26 133.157 318.516C133.459 318.771 133.847 318.898 134.321 318.898ZM141.571 311.547L141.618 312.609C142.263 311.797 143.107 311.391 144.149 311.391C145.935 311.391 146.836 312.398 146.852 314.414V320H145.407V314.406C145.401 313.797 145.261 313.346 144.985 313.055C144.714 312.763 144.289 312.617 143.711 312.617C143.243 312.617 142.831 312.742 142.477 312.992C142.123 313.242 141.847 313.57 141.649 313.977V320H140.203V311.547H141.571ZM148.68 315.703C148.68 314.406 148.987 313.365 149.602 312.578C150.217 311.786 151.021 311.391 152.016 311.391C153.006 311.391 153.789 311.729 154.368 312.406V308H155.813V320H154.485L154.414 319.094C153.836 319.802 153.032 320.156 152 320.156C151.021 320.156 150.222 319.755 149.602 318.953C148.987 318.151 148.68 317.104 148.68 315.812V315.703ZM150.125 315.867C150.125 316.826 150.323 317.576 150.719 318.117C151.115 318.659 151.662 318.93 152.36 318.93C153.276 318.93 153.946 318.518 154.368 317.695V313.812C153.935 313.016 153.271 312.617 152.375 312.617C151.667 312.617 151.115 312.891 150.719 313.438C150.323 313.984 150.125 314.794 150.125 315.867ZM167.836 308.508V310.367H167.618C166.597 310.383 165.774 310.648 165.149 311.164C164.529 311.68 164.157 312.396 164.032 313.312C164.636 312.698 165.399 312.391 166.321 312.391C167.31 312.391 168.097 312.745 168.68 313.453C169.263 314.161 169.555 315.094 169.555 316.25C169.555 316.99 169.394 317.659 169.071 318.258C168.753 318.857 168.3 319.323 167.711 319.656C167.128 319.99 166.467 320.156 165.727 320.156C164.529 320.156 163.56 319.74 162.821 318.906C162.086 318.073 161.719 316.961 161.719 315.57V314.758C161.719 313.523 161.951 312.435 162.414 311.492C162.883 310.544 163.552 309.812 164.422 309.297C165.297 308.776 166.31 308.513 167.461 308.508H167.836ZM165.633 314.203C165.269 314.203 164.938 314.299 164.641 314.492C164.344 314.68 164.125 314.93 163.985 315.242V315.93C163.985 316.685 164.133 317.276 164.43 317.703C164.727 318.125 165.144 318.336 165.68 318.336C166.164 318.336 166.555 318.146 166.852 317.766C167.154 317.38 167.305 316.883 167.305 316.273C167.305 315.654 167.154 315.154 166.852 314.773C166.55 314.393 166.144 314.203 165.633 314.203ZM178.555 315.297C178.555 316.87 178.23 318.073 177.578 318.906C176.927 319.74 175.974 320.156 174.719 320.156C173.48 320.156 172.532 319.747 171.875 318.93C171.219 318.112 170.883 316.94 170.868 315.414V313.32C170.868 311.732 171.196 310.526 171.852 309.703C172.513 308.88 173.464 308.469 174.703 308.469C175.943 308.469 176.891 308.878 177.547 309.695C178.203 310.508 178.539 311.677 178.555 313.203V315.297ZM176.297 313C176.297 312.057 176.167 311.372 175.907 310.945C175.651 310.513 175.25 310.297 174.703 310.297C174.172 310.297 173.779 310.503 173.524 310.914C173.274 311.32 173.141 311.958 173.125 312.828V315.594C173.125 316.521 173.25 317.211 173.5 317.664C173.756 318.112 174.162 318.336 174.719 318.336C175.271 318.336 175.67 318.12 175.914 317.688C176.159 317.255 176.287 316.594 176.297 315.703V313ZM180.055 310.812C180.055 310.115 180.282 309.549 180.735 309.117C181.188 308.68 181.782 308.461 182.516 308.461C183.261 308.461 183.86 308.677 184.313 309.109C184.766 309.536 184.993 310.117 184.993 310.852V311.414C184.993 312.117 184.766 312.682 184.313 313.109C183.86 313.536 183.266 313.75 182.532 313.75C181.792 313.75 181.193 313.536 180.735 313.109C180.282 312.677 180.055 312.096 180.055 311.367V310.812ZM181.555 311.414C181.555 311.727 181.644 311.979 181.821 312.172C182.003 312.359 182.24 312.453 182.532 312.453C182.823 312.453 183.055 312.357 183.227 312.164C183.399 311.971 183.485 311.714 183.485 311.391V310.812C183.485 310.5 183.399 310.247 183.227 310.055C183.055 309.862 182.818 309.766 182.516 309.766C182.23 309.766 181.998 309.862 181.821 310.055C181.644 310.242 181.555 310.505 181.555 310.844V311.414ZM185.493 317.211C185.493 316.508 185.722 315.943 186.18 315.516C186.638 315.083 187.232 314.867 187.961 314.867C188.701 314.867 189.297 315.081 189.75 315.508C190.209 315.93 190.438 316.513 190.438 317.258V317.82C190.438 318.518 190.214 319.083 189.766 319.516C189.318 319.943 188.722 320.156 187.977 320.156C187.227 320.156 186.625 319.94 186.172 319.508C185.719 319.076 185.493 318.503 185.493 317.789V317.211ZM186.993 317.82C186.993 318.107 187.086 318.352 187.274 318.555C187.461 318.758 187.696 318.859 187.977 318.859C188.612 318.859 188.93 318.508 188.93 317.805V317.211C188.93 316.898 188.842 316.648 188.664 316.461C188.487 316.268 188.253 316.172 187.961 316.172C187.67 316.172 187.435 316.268 187.258 316.461C187.081 316.648 186.993 316.906 186.993 317.234V317.82ZM182.977 319.148L181.875 318.555L187.43 309.664L188.532 310.258L182.977 319.148ZM195.821 315.695C195.821 314.867 195.982 314.122 196.305 313.461C196.633 312.799 197.086 312.289 197.664 311.93C198.248 311.57 198.912 311.391 199.657 311.391C200.808 311.391 201.737 311.789 202.446 312.586C203.159 313.383 203.516 314.443 203.516 315.766V315.867C203.516 316.69 203.357 317.43 203.039 318.086C202.727 318.737 202.276 319.245 201.688 319.609C201.105 319.974 200.433 320.156 199.672 320.156C198.526 320.156 197.597 319.758 196.883 318.961C196.175 318.164 195.821 317.109 195.821 315.797V315.695ZM197.274 315.867C197.274 316.805 197.49 317.557 197.922 318.125C198.36 318.693 198.943 318.977 199.672 318.977C200.407 318.977 200.99 318.69 201.422 318.117C201.855 317.539 202.071 316.732 202.071 315.695C202.071 314.768 201.849 314.018 201.407 313.445C200.969 312.867 200.386 312.578 199.657 312.578C198.943 312.578 198.368 312.862 197.93 313.43C197.493 313.997 197.274 314.81 197.274 315.867ZM206.039 320V312.664H204.703V311.547H206.039V310.68C206.039 309.773 206.282 309.073 206.766 308.578C207.25 308.083 207.935 307.836 208.821 307.836C209.154 307.836 209.485 307.88 209.813 307.969L209.735 309.141C209.49 309.094 209.23 309.07 208.953 309.07C208.485 309.07 208.123 309.208 207.868 309.484C207.612 309.755 207.485 310.146 207.485 310.656V311.547H209.289V312.664H207.485V320H206.039ZM216.821 309.5V311.547H218.399V312.664H216.821V317.906C216.821 318.245 216.891 318.5 217.032 318.672C217.172 318.839 217.412 318.922 217.75 318.922C217.917 318.922 218.146 318.891 218.438 318.828V320C218.058 320.104 217.688 320.156 217.328 320.156C216.683 320.156 216.196 319.961 215.868 319.57C215.539 319.18 215.375 318.625 215.375 317.906V312.664H213.836V311.547H215.375V309.5H216.821ZM221.539 312.57C222.18 311.784 223.013 311.391 224.039 311.391C225.826 311.391 226.727 312.398 226.743 314.414V320H225.297V314.406C225.292 313.797 225.151 313.346 224.875 313.055C224.605 312.763 224.18 312.617 223.602 312.617C223.133 312.617 222.722 312.742 222.368 312.992C222.013 313.242 221.737 313.57 221.539 313.977V320H220.094V308H221.539V312.57ZM232.414 320.156C231.269 320.156 230.336 319.781 229.618 319.031C228.899 318.276 228.539 317.268 228.539 316.008V315.742C228.539 314.904 228.698 314.156 229.016 313.5C229.339 312.839 229.787 312.323 230.36 311.953C230.938 311.578 231.563 311.391 232.235 311.391C233.334 311.391 234.188 311.753 234.797 312.477C235.407 313.201 235.711 314.237 235.711 315.586V316.188H229.985C230.006 317.021 230.248 317.695 230.711 318.211C231.18 318.721 231.774 318.977 232.493 318.977C233.003 318.977 233.435 318.872 233.789 318.664C234.144 318.456 234.453 318.18 234.719 317.836L235.602 318.523C234.894 319.612 233.831 320.156 232.414 320.156ZM232.235 312.578C231.651 312.578 231.162 312.792 230.766 313.219C230.37 313.641 230.125 314.234 230.032 315H234.266V314.891C234.224 314.156 234.026 313.589 233.672 313.188C233.318 312.781 232.839 312.578 232.235 312.578ZM238.75 311.547L238.789 312.484C239.409 311.755 240.245 311.391 241.297 311.391C242.48 311.391 243.284 311.844 243.711 312.75C243.993 312.344 244.357 312.016 244.805 311.766C245.258 311.516 245.792 311.391 246.407 311.391C248.261 311.391 249.203 312.372 249.235 314.336V320H247.789V314.422C247.789 313.818 247.651 313.367 247.375 313.07C247.099 312.768 246.636 312.617 245.985 312.617C245.448 312.617 245.003 312.779 244.649 313.102C244.295 313.419 244.089 313.849 244.032 314.391V320H242.578V314.461C242.578 313.232 241.977 312.617 240.774 312.617C239.826 312.617 239.177 313.021 238.828 313.828V320H237.383V311.547H238.75ZM259.477 312.844C259.258 312.807 259.021 312.789 258.766 312.789C257.818 312.789 257.175 313.193 256.836 314V320H255.391V311.547H256.797L256.821 312.523C257.295 311.768 257.967 311.391 258.836 311.391C259.118 311.391 259.331 311.427 259.477 311.5V312.844ZM265.719 320C265.636 319.833 265.568 319.536 265.516 319.109C264.844 319.807 264.042 320.156 263.11 320.156C262.276 320.156 261.592 319.922 261.055 319.453C260.524 318.979 260.258 318.38 260.258 317.656C260.258 316.776 260.592 316.094 261.258 315.609C261.93 315.12 262.873 314.875 264.086 314.875H265.493V314.211C265.493 313.706 265.342 313.305 265.039 313.008C264.737 312.706 264.292 312.555 263.703 312.555C263.188 312.555 262.756 312.685 262.407 312.945C262.058 313.206 261.883 313.521 261.883 313.891H260.43C260.43 313.469 260.578 313.062 260.875 312.672C261.177 312.276 261.584 311.964 262.094 311.734C262.61 311.505 263.175 311.391 263.789 311.391C264.763 311.391 265.526 311.635 266.078 312.125C266.631 312.609 266.917 313.279 266.938 314.133V318.023C266.938 318.799 267.037 319.417 267.235 319.875V320H265.719ZM263.321 318.898C263.774 318.898 264.203 318.781 264.61 318.547C265.016 318.312 265.31 318.008 265.493 317.633V315.898H264.36C262.589 315.898 261.703 316.417 261.703 317.453C261.703 317.906 261.855 318.26 262.157 318.516C262.459 318.771 262.847 318.898 263.321 318.898ZM271.164 309.5V311.547H272.743V312.664H271.164V317.906C271.164 318.245 271.235 318.5 271.375 318.672C271.516 318.839 271.756 318.922 272.094 318.922C272.261 318.922 272.49 318.891 272.782 318.828V320C272.401 320.104 272.032 320.156 271.672 320.156C271.026 320.156 270.539 319.961 270.211 319.57C269.883 319.18 269.719 318.625 269.719 317.906V312.664H268.18V311.547H269.719V309.5H271.164ZM277.946 320.156C276.8 320.156 275.868 319.781 275.149 319.031C274.43 318.276 274.071 317.268 274.071 316.008V315.742C274.071 314.904 274.23 314.156 274.547 313.5C274.87 312.839 275.318 312.323 275.891 311.953C276.469 311.578 277.094 311.391 277.766 311.391C278.865 311.391 279.719 311.753 280.328 312.477C280.938 313.201 281.243 314.237 281.243 315.586V316.188H275.516C275.537 317.021 275.779 317.695 276.243 318.211C276.711 318.721 277.305 318.977 278.024 318.977C278.534 318.977 278.967 318.872 279.321 318.664C279.675 318.456 279.985 318.18 280.25 317.836L281.133 318.523C280.425 319.612 279.362 320.156 277.946 320.156ZM277.766 312.578C277.183 312.578 276.693 312.792 276.297 313.219C275.901 313.641 275.657 314.234 275.563 315H279.797V314.891C279.756 314.156 279.558 313.589 279.203 313.188C278.849 312.781 278.37 312.578 277.766 312.578ZM63.0004 347H61.5551V338.547H63.0004V347ZM61.4379 336.305C61.4379 336.07 61.5082 335.872 61.6488 335.711C61.7946 335.549 62.0082 335.469 62.2894 335.469C62.5707 335.469 62.7842 335.549 62.9301 335.711C63.0759 335.872 63.1488 336.07 63.1488 336.305C63.1488 336.539 63.0759 336.734 62.9301 336.891C62.7842 337.047 62.5707 337.125 62.2894 337.125C62.0082 337.125 61.7946 337.047 61.6488 336.891C61.5082 336.734 61.4379 336.539 61.4379 336.305ZM67.2816 336.5V338.547H68.8597V339.664H67.2816V344.906C67.2816 345.245 67.3519 345.5 67.4926 345.672C67.6332 345.839 67.8728 345.922 68.2113 345.922C68.378 345.922 68.6071 345.891 68.8988 345.828V347C68.5186 347.104 68.1488 347.156 67.7894 347.156C67.1436 347.156 66.6566 346.961 66.3285 346.57C66.0004 346.18 65.8363 345.625 65.8363 344.906V339.664H64.2972V338.547H65.8363V336.5H67.2816ZM79.7426 347C79.6592 346.833 79.5915 346.536 79.5394 346.109C78.8676 346.807 78.0655 347.156 77.1332 347.156C76.2998 347.156 75.6149 346.922 75.0785 346.453C74.5472 345.979 74.2816 345.38 74.2816 344.656C74.2816 343.776 74.6149 343.094 75.2816 342.609C75.9535 342.12 76.8962 341.875 78.1097 341.875H79.516V341.211C79.516 340.706 79.3649 340.305 79.0629 340.008C78.7608 339.706 78.3155 339.555 77.7269 339.555C77.2113 339.555 76.779 339.685 76.4301 339.945C76.0811 340.206 75.9066 340.521 75.9066 340.891H74.4535C74.4535 340.469 74.6019 340.062 74.8988 339.672C75.2009 339.276 75.6071 338.964 76.1176 338.734C76.6332 338.505 77.1983 338.391 77.8129 338.391C78.7868 338.391 79.5498 338.635 80.1019 339.125C80.654 339.609 80.9405 340.279 80.9613 341.133V345.023C80.9613 345.799 81.0603 346.417 81.2582 346.875V347H79.7426ZM77.3441 345.898C77.7972 345.898 78.2269 345.781 78.6332 345.547C79.0394 345.312 79.3337 345.008 79.516 344.633V342.898H78.3832C76.6123 342.898 75.7269 343.417 75.7269 344.453C75.7269 344.906 75.878 345.26 76.1801 345.516C76.4821 345.771 76.8702 345.898 77.3441 345.898ZM88.1488 344.758C88.1488 344.367 88.0004 344.065 87.7035 343.852C87.4118 343.633 86.8988 343.445 86.1644 343.289C85.4353 343.133 84.8545 342.945 84.4222 342.727C83.9952 342.508 83.6774 342.247 83.4691 341.945C83.266 341.643 83.1644 341.284 83.1644 340.867C83.1644 340.174 83.4561 339.589 84.0394 339.109C84.628 338.63 85.378 338.391 86.2894 338.391C87.2478 338.391 88.0238 338.638 88.6176 339.133C89.2165 339.628 89.516 340.26 89.516 341.031H88.0629C88.0629 340.635 87.8936 340.294 87.5551 340.008C87.2217 339.721 86.7998 339.578 86.2894 339.578C85.7634 339.578 85.3519 339.693 85.0551 339.922C84.7582 340.151 84.6097 340.451 84.6097 340.82C84.6097 341.169 84.7478 341.432 85.0238 341.609C85.2998 341.786 85.7972 341.956 86.516 342.117C87.2399 342.279 87.8259 342.471 88.2738 342.695C88.7217 342.919 89.0524 343.19 89.266 343.508C89.4847 343.82 89.5941 344.203 89.5941 344.656C89.5941 345.411 89.292 346.018 88.6879 346.477C88.0837 346.93 87.2998 347.156 86.3363 347.156C85.6592 347.156 85.0603 347.036 84.5394 346.797C84.0186 346.557 83.6097 346.224 83.3129 345.797C83.0212 345.365 82.8754 344.898 82.8754 344.398H84.3207C84.3467 344.883 84.5394 345.268 84.8988 345.555C85.2634 345.836 85.7426 345.977 86.3363 345.977C86.8832 345.977 87.3207 345.867 87.6488 345.648C87.9821 345.424 88.1488 345.128 88.1488 344.758ZM100.664 347C100.581 346.833 100.513 346.536 100.461 346.109C99.7894 346.807 98.9873 347.156 98.0551 347.156C97.2217 347.156 96.5368 346.922 96.0004 346.453C95.4691 345.979 95.2035 345.38 95.2035 344.656C95.2035 343.776 95.5368 343.094 96.2035 342.609C96.8754 342.12 97.8181 341.875 99.0316 341.875H100.438V341.211C100.438 340.706 100.287 340.305 99.9847 340.008C99.6827 339.706 99.2373 339.555 98.6488 339.555C98.1332 339.555 97.7009 339.685 97.3519 339.945C97.003 340.206 96.8285 340.521 96.8285 340.891H95.3754C95.3754 340.469 95.5238 340.062 95.8207 339.672C96.1228 339.276 96.529 338.964 97.0394 338.734C97.5551 338.505 98.1202 338.391 98.7347 338.391C99.7087 338.391 100.472 338.635 101.024 339.125C101.576 339.609 101.862 340.279 101.883 341.133V345.023C101.883 345.799 101.982 346.417 102.18 346.875V347H100.664ZM98.266 345.898C98.7191 345.898 99.1488 345.781 99.5551 345.547C99.9613 345.312 100.256 345.008 100.438 344.633V342.898H99.3051C97.5342 342.898 96.6488 343.417 96.6488 344.453C96.6488 344.906 96.7998 345.26 97.1019 345.516C97.404 345.771 97.792 345.898 98.266 345.898ZM110.907 345.039L113 338.547H114.477L111.446 347H110.344L107.282 338.547H108.758L110.907 345.039ZM119.266 347.156C118.12 347.156 117.188 346.781 116.469 346.031C115.75 345.276 115.391 344.268 115.391 343.008V342.742C115.391 341.904 115.55 341.156 115.868 340.5C116.19 339.839 116.638 339.323 117.211 338.953C117.789 338.578 118.414 338.391 119.086 338.391C120.185 338.391 121.039 338.753 121.649 339.477C122.258 340.201 122.563 341.237 122.563 342.586V343.188H116.836C116.857 344.021 117.099 344.695 117.563 345.211C118.032 345.721 118.625 345.977 119.344 345.977C119.855 345.977 120.287 345.872 120.641 345.664C120.995 345.456 121.305 345.18 121.571 344.836L122.453 345.523C121.745 346.612 120.683 347.156 119.266 347.156ZM119.086 339.578C118.503 339.578 118.013 339.792 117.618 340.219C117.222 340.641 116.977 341.234 116.883 342H121.118V341.891C121.076 341.156 120.878 340.589 120.524 340.188C120.17 339.781 119.69 339.578 119.086 339.578ZM128.328 339.844C128.11 339.807 127.873 339.789 127.618 339.789C126.67 339.789 126.026 340.193 125.688 341V347H124.243V338.547H125.649L125.672 339.523C126.146 338.768 126.818 338.391 127.688 338.391C127.969 338.391 128.183 338.427 128.328 338.5V339.844ZM132.571 344.883L134.539 338.547H136.086L132.688 348.305C132.162 349.711 131.326 350.414 130.18 350.414L129.907 350.391L129.368 350.289V349.117L129.758 349.148C130.248 349.148 130.628 349.049 130.899 348.852C131.175 348.654 131.401 348.292 131.578 347.766L131.899 346.906L128.883 338.547H130.461L132.571 344.883ZM142.922 347H141.477V338.547H142.922V347ZM141.36 336.305C141.36 336.07 141.43 335.872 141.571 335.711C141.717 335.549 141.93 335.469 142.211 335.469C142.493 335.469 142.706 335.549 142.852 335.711C142.998 335.872 143.071 336.07 143.071 336.305C143.071 336.539 142.998 336.734 142.852 336.891C142.706 337.047 142.493 337.125 142.211 337.125C141.93 337.125 141.717 337.047 141.571 336.891C141.43 336.734 141.36 336.539 141.36 336.305ZM146.602 338.547L146.641 339.484C147.261 338.755 148.097 338.391 149.149 338.391C150.331 338.391 151.136 338.844 151.563 339.75C151.844 339.344 152.209 339.016 152.657 338.766C153.11 338.516 153.644 338.391 154.258 338.391C156.112 338.391 157.055 339.372 157.086 341.336V347H155.641V341.422C155.641 340.818 155.503 340.367 155.227 340.07C154.951 339.768 154.487 339.617 153.836 339.617C153.3 339.617 152.855 339.779 152.5 340.102C152.146 340.419 151.94 340.849 151.883 341.391V347H150.43V341.461C150.43 340.232 149.828 339.617 148.625 339.617C147.677 339.617 147.029 340.021 146.68 340.828V347H145.235V338.547H146.602ZM166.414 342.867C166.414 344.154 166.12 345.19 165.532 345.977C164.943 346.763 164.146 347.156 163.141 347.156C162.115 347.156 161.308 346.831 160.719 346.18V350.25H159.274V338.547H160.594L160.664 339.484C161.253 338.755 162.071 338.391 163.118 338.391C164.133 338.391 164.935 338.773 165.524 339.539C166.118 340.305 166.414 341.37 166.414 342.734V342.867ZM164.969 342.703C164.969 341.75 164.766 340.997 164.36 340.445C163.953 339.893 163.396 339.617 162.688 339.617C161.813 339.617 161.157 340.005 160.719 340.781V344.82C161.151 345.591 161.813 345.977 162.703 345.977C163.396 345.977 163.946 345.703 164.352 345.156C164.763 344.604 164.969 343.786 164.969 342.703ZM167.875 342.695C167.875 341.867 168.037 341.122 168.36 340.461C168.688 339.799 169.141 339.289 169.719 338.93C170.302 338.57 170.967 338.391 171.711 338.391C172.862 338.391 173.792 338.789 174.5 339.586C175.214 340.383 175.571 341.443 175.571 342.766V342.867C175.571 343.69 175.412 344.43 175.094 345.086C174.782 345.737 174.331 346.245 173.743 346.609C173.159 346.974 172.487 347.156 171.727 347.156C170.581 347.156 169.651 346.758 168.938 345.961C168.23 345.164 167.875 344.109 167.875 342.797V342.695ZM169.328 342.867C169.328 343.805 169.545 344.557 169.977 345.125C170.414 345.693 170.998 345.977 171.727 345.977C172.461 345.977 173.045 345.69 173.477 345.117C173.909 344.539 174.125 343.732 174.125 342.695C174.125 341.768 173.904 341.018 173.461 340.445C173.024 339.867 172.44 339.578 171.711 339.578C170.998 339.578 170.422 339.862 169.985 340.43C169.547 340.997 169.328 341.81 169.328 342.867ZM181.469 339.844C181.25 339.807 181.013 339.789 180.758 339.789C179.81 339.789 179.167 340.193 178.828 341V347H177.383V338.547H178.789L178.813 339.523C179.287 338.768 179.959 338.391 180.828 338.391C181.11 338.391 181.323 338.427 181.469 338.5V339.844ZM185.157 336.5V338.547H186.735V339.664H185.157V344.906C185.157 345.245 185.227 345.5 185.368 345.672C185.508 345.839 185.748 345.922 186.086 345.922C186.253 345.922 186.482 345.891 186.774 345.828V347C186.394 347.104 186.024 347.156 185.664 347.156C185.019 347.156 184.532 346.961 184.203 346.57C183.875 346.18 183.711 345.625 183.711 344.906V339.664H182.172V338.547H183.711V336.5H185.157ZM193.649 347C193.565 346.833 193.498 346.536 193.446 346.109C192.774 346.807 191.972 347.156 191.039 347.156C190.206 347.156 189.521 346.922 188.985 346.453C188.453 345.979 188.188 345.38 188.188 344.656C188.188 343.776 188.521 343.094 189.188 342.609C189.86 342.12 190.802 341.875 192.016 341.875H193.422V341.211C193.422 340.706 193.271 340.305 192.969 340.008C192.667 339.706 192.222 339.555 191.633 339.555C191.118 339.555 190.685 339.685 190.336 339.945C189.987 340.206 189.813 340.521 189.813 340.891H188.36C188.36 340.469 188.508 340.062 188.805 339.672C189.107 339.276 189.513 338.964 190.024 338.734C190.539 338.505 191.105 338.391 191.719 338.391C192.693 338.391 193.456 338.635 194.008 339.125C194.56 339.609 194.847 340.279 194.868 341.133V345.023C194.868 345.799 194.967 346.417 195.164 346.875V347H193.649ZM191.25 345.898C191.703 345.898 192.133 345.781 192.539 345.547C192.946 345.312 193.24 345.008 193.422 344.633V342.898H192.289C190.519 342.898 189.633 343.417 189.633 344.453C189.633 344.906 189.784 345.26 190.086 345.516C190.388 345.771 190.776 345.898 191.25 345.898ZM198.5 338.547L198.547 339.609C199.193 338.797 200.037 338.391 201.078 338.391C202.865 338.391 203.766 339.398 203.782 341.414V347H202.336V341.406C202.331 340.797 202.19 340.346 201.914 340.055C201.644 339.763 201.219 339.617 200.641 339.617C200.172 339.617 199.761 339.742 199.407 339.992C199.052 340.242 198.776 340.57 198.578 340.977V347H197.133V338.547H198.5ZM207.922 336.5V338.547H209.5V339.664H207.922V344.906C207.922 345.245 207.993 345.5 208.133 345.672C208.274 345.839 208.513 345.922 208.852 345.922C209.019 345.922 209.248 345.891 209.539 345.828V347C209.159 347.104 208.789 347.156 208.43 347.156C207.784 347.156 207.297 346.961 206.969 346.57C206.641 346.18 206.477 345.625 206.477 344.906V339.664H204.938V338.547H206.477V336.5H207.922ZM215.875 347V339.664H214.539V338.547H215.875V337.68C215.875 336.773 216.118 336.073 216.602 335.578C217.086 335.083 217.771 334.836 218.657 334.836C218.99 334.836 219.321 334.88 219.649 334.969L219.571 336.141C219.326 336.094 219.065 336.07 218.789 336.07C218.321 336.07 217.959 336.208 217.703 336.484C217.448 336.755 217.321 337.146 217.321 337.656V338.547H219.125V339.664H217.321V347H215.875ZM224.047 347.156C222.901 347.156 221.969 346.781 221.25 346.031C220.532 345.276 220.172 344.268 220.172 343.008V342.742C220.172 341.904 220.331 341.156 220.649 340.5C220.972 339.839 221.42 339.323 221.993 338.953C222.571 338.578 223.196 338.391 223.868 338.391C224.967 338.391 225.821 338.753 226.43 339.477C227.039 340.201 227.344 341.237 227.344 342.586V343.188H221.618C221.638 344.021 221.881 344.695 222.344 345.211C222.813 345.721 223.407 345.977 224.125 345.977C224.636 345.977 225.068 345.872 225.422 345.664C225.776 345.456 226.086 345.18 226.352 344.836L227.235 345.523C226.526 346.612 225.464 347.156 224.047 347.156ZM223.868 339.578C223.284 339.578 222.795 339.792 222.399 340.219C222.003 340.641 221.758 341.234 221.664 342H225.899V341.891C225.857 341.156 225.659 340.589 225.305 340.188C224.951 339.781 224.472 339.578 223.868 339.578ZM234.243 347C234.159 346.833 234.092 346.536 234.039 346.109C233.368 346.807 232.565 347.156 231.633 347.156C230.8 347.156 230.115 346.922 229.578 346.453C229.047 345.979 228.782 345.38 228.782 344.656C228.782 343.776 229.115 343.094 229.782 342.609C230.453 342.12 231.396 341.875 232.61 341.875H234.016V341.211C234.016 340.706 233.865 340.305 233.563 340.008C233.261 339.706 232.815 339.555 232.227 339.555C231.711 339.555 231.279 339.685 230.93 339.945C230.581 340.206 230.407 340.521 230.407 340.891H228.953C228.953 340.469 229.102 340.062 229.399 339.672C229.701 339.276 230.107 338.964 230.618 338.734C231.133 338.505 231.698 338.391 232.313 338.391C233.287 338.391 234.05 338.635 234.602 339.125C235.154 339.609 235.44 340.279 235.461 341.133V345.023C235.461 345.799 235.56 346.417 235.758 346.875V347H234.243ZM231.844 345.898C232.297 345.898 232.727 345.781 233.133 345.547C233.539 345.312 233.834 345.008 234.016 344.633V342.898H232.883C231.112 342.898 230.227 343.417 230.227 344.453C230.227 344.906 230.378 345.26 230.68 345.516C230.982 345.771 231.37 345.898 231.844 345.898ZM239.688 336.5V338.547H241.266V339.664H239.688V344.906C239.688 345.245 239.758 345.5 239.899 345.672C240.039 345.839 240.279 345.922 240.618 345.922C240.784 345.922 241.013 345.891 241.305 345.828V347C240.925 347.104 240.555 347.156 240.196 347.156C239.55 347.156 239.063 346.961 238.735 346.57C238.407 346.18 238.243 345.625 238.243 344.906V339.664H236.703V338.547H238.243V336.5H239.688ZM248.18 346.164C247.618 346.826 246.792 347.156 245.703 347.156C244.802 347.156 244.115 346.896 243.641 346.375C243.172 345.849 242.935 345.073 242.93 344.047V338.547H244.375V344.008C244.375 345.289 244.896 345.93 245.938 345.93C247.042 345.93 247.776 345.518 248.141 344.695V338.547H249.586V347H248.211L248.18 346.164ZM255.875 339.844C255.657 339.807 255.42 339.789 255.164 339.789C254.217 339.789 253.573 340.193 253.235 341V347H251.789V338.547H253.196L253.219 339.523C253.693 338.768 254.365 338.391 255.235 338.391C255.516 338.391 255.73 338.427 255.875 338.5V339.844ZM260.563 347.156C259.417 347.156 258.485 346.781 257.766 346.031C257.047 345.276 256.688 344.268 256.688 343.008V342.742C256.688 341.904 256.847 341.156 257.164 340.5C257.487 339.839 257.935 339.323 258.508 338.953C259.086 338.578 259.711 338.391 260.383 338.391C261.482 338.391 262.336 338.753 262.946 339.477C263.555 340.201 263.86 341.237 263.86 342.586V343.188H258.133C258.154 344.021 258.396 344.695 258.86 345.211C259.328 345.721 259.922 345.977 260.641 345.977C261.151 345.977 261.584 345.872 261.938 345.664C262.292 345.456 262.602 345.18 262.868 344.836L263.75 345.523C263.042 346.612 261.98 347.156 260.563 347.156ZM260.383 339.578C259.8 339.578 259.31 339.792 258.914 340.219C258.519 340.641 258.274 341.234 258.18 342H262.414V341.891C262.373 341.156 262.175 340.589 261.821 340.188C261.467 339.781 260.987 339.578 260.383 339.578ZM265.571 346.242C265.571 345.992 265.644 345.784 265.789 345.617C265.94 345.451 266.164 345.367 266.461 345.367C266.758 345.367 266.982 345.451 267.133 345.617C267.289 345.784 267.368 345.992 267.368 346.242C267.368 346.482 267.289 346.682 267.133 346.844C266.982 347.005 266.758 347.086 266.461 347.086C266.164 347.086 265.94 347.005 265.789 346.844C265.644 346.682 265.571 346.482 265.571 346.242Z" fill="#383838"/>
<g filter="url(#filter1_d)">
<circle cx="163.5" cy="130.5" r="99.5" fill="#6B66A1"/>
</g>
<g filter="url(#filter2_d)">
<path fill-rule="evenodd" clip-rule="evenodd" d="M263.057 130.078L163.53 130.469L84.3302 70.1955C78.4125 77.9766 73.5503 86.7686 70.0311 96.4375C51.2363 148.076 77.8612 205.173 129.5 223.968C181.138 242.763 238.235 216.138 257.03 164.5C261.166 153.135 263.103 141.505 263.057 130.078Z" fill="#D3D0FF"/>
</g>
<defs>
<filter id="filter0_dd" x="0.000366211" y="0" width="328" height="393" filterUnits="userSpaceOnUse" color-interpolation-filters="sRGB">
<feFlood flood-opacity="0" result="BackgroundImageFix"/>
<feColorMatrix in="SourceAlpha" type="matrix" values="0 0 0 0 0 0 0 0 0 0 0 0 0 0 0 0 0 0 127 0"/>
<feOffset dy="-1"/>
<feGaussianBlur stdDeviation="0.5"/>
<feColorMatrix type="matrix" values="0 0 0 0 0 0 0 0 0 0 0 0 0 0 0 0 0 0 0.12 0"/>
<feBlend mode="normal" in2="BackgroundImageFix" result="effect1_dropShadow"/>
<feColorMatrix in="SourceAlpha" type="matrix" values="0 0 0 0 0 0 0 0 0 0 0 0 0 0 0 0 0 0 127 0"/>
<feOffset dy="4"/>
<feGaussianBlur stdDeviation="2"/>
<feColorMatrix type="matrix" values="0 0 0 0 0 0 0 0 0 0 0 0 0 0 0 0 0 0 0.25 0"/>
<feBlend mode="normal" in2="effect1_dropShadow" result="effect2_dropShadow"/>
<feBlend mode="normal" in="SourceGraphic" in2="effect2_dropShadow" result="shape"/>
</filter>
<filter id="filter1_d" x="64" y="31" width="203" height="203" filterUnits="userSpaceOnUse" color-interpolation-filters="sRGB">
<feFlood flood-opacity="0" result="BackgroundImageFix"/>
<feColorMatrix in="SourceAlpha" type="matrix" values="0 0 0 0 0 0 0 0 0 0 0 0 0 0 0 0 0 0 127 0"/>
<feOffset dx="2" dy="2"/>
<feGaussianBlur stdDeviation="1"/>
<feColorMatrix type="matrix" values="0 0 0 0 0 0 0 0 0 0 0 0 0 0 0 0 0 0 0.25 0"/>
<feBlend mode="normal" in2="BackgroundImageFix" result="effect1_dropShadow"/>
<feBlend mode="normal" in="SourceGraphic" in2="effect1_dropShadow" result="shape"/>
</filter>
<filter id="filter2_d" x="36.0001" y="64.1055" width="236.798" height="197.893" filterUnits="userSpaceOnUse" color-interpolation-filters="sRGB">
<feFlood flood-opacity="0" result="BackgroundImageFix"/>
<feColorMatrix in="SourceAlpha" type="matrix" values="0 0 0 0 0 0 0 0 0 0 0 0 0 0 0 0 0 0 127 0"/>
<feOffset dx="2" dy="2"/>
<feGaussianBlur stdDeviation="1"/>
<feColorMatrix type="matrix" values="0 0 0 0 0 0 0 0 0 0 0 0 0 0 0 0 0 0 0.25 0"/>
<feBlend mode="normal" in2="BackgroundImageFix" result="effect1_dropShadow"/>
<feBlend mode="normal" in="SourceGraphic" in2="effect1_dropShadow" result="shape"/>
</filter>
</defs>
</svg>
