<svg width="328" height="393" viewBox="0 0 328 393" fill="none" xmlns="http://www.w3.org/2000/svg">
<g filter="url(#filter0_dd)">
<rect x="4" y="2" width="320" height="383" rx="7" fill="white"/>
</g>
<g filter="url(#filter1_d)">
<path fill-rule="evenodd" clip-rule="evenodd" d="M130.469 223.968C78.8306 205.173 52.2057 148.076 71.0005 96.4374C89.7953 44.7991 146.893 18.1742 198.531 36.969C212.198 41.9433 224.112 49.6005 233.897 59.1295L164.5 130.468L264.026 130.078C264.072 141.505 262.136 153.134 257.999 164.499C239.205 216.138 182.107 242.763 130.469 223.968Z" fill="#6E61FF"/>
</g>
<path d="M65.3671 257.648C65.3671 258.201 65.2291 258.69 64.9531 259.117C64.677 259.544 64.2968 259.885 63.8124 260.141C64.3645 260.406 64.802 260.773 65.1249 261.242C65.4479 261.706 65.6093 262.253 65.6093 262.883C65.6093 263.893 65.2656 264.693 64.5781 265.281C63.8906 265.865 62.9557 266.156 61.7734 266.156C60.5911 266.156 59.6536 265.862 58.9609 265.273C58.2682 264.685 57.9218 263.888 57.9218 262.883C57.9218 262.253 58.0833 261.703 58.4062 261.234C58.7291 260.766 59.164 260.401 59.7109 260.141C59.2265 259.885 58.8463 259.544 58.5703 259.117C58.2994 258.69 58.164 258.201 58.164 257.648C58.164 256.68 58.4869 255.909 59.1328 255.336C59.7786 254.758 60.6562 254.469 61.7656 254.469C62.8697 254.469 63.7447 254.755 64.3906 255.328C65.0416 255.896 65.3671 256.669 65.3671 257.648ZM63.3437 262.719C63.3437 262.224 63.2005 261.828 62.914 261.531C62.6275 261.234 62.2421 261.086 61.7578 261.086C61.2786 261.086 60.8958 261.234 60.6093 261.531C60.3229 261.823 60.1796 262.219 60.1796 262.719C60.1796 263.203 60.3203 263.594 60.6015 263.891C60.8828 264.188 61.2734 264.336 61.7734 264.336C62.263 264.336 62.6458 264.193 62.9218 263.906C63.2031 263.62 63.3437 263.224 63.3437 262.719ZM63.1093 257.758C63.1093 257.315 62.9921 256.961 62.7578 256.695C62.5234 256.425 62.1926 256.289 61.7656 256.289C61.3437 256.289 61.0156 256.419 60.7812 256.68C60.5468 256.94 60.4296 257.3 60.4296 257.758C60.4296 258.211 60.5468 258.576 60.7812 258.852C61.0156 259.128 61.3463 259.266 61.7734 259.266C62.2005 259.266 62.5286 259.128 62.7578 258.852C62.9921 258.576 63.1093 258.211 63.1093 257.758ZM74.7968 261.297C74.7968 262.87 74.4713 264.073 73.8203 264.906C73.1692 265.74 72.2161 266.156 70.9609 266.156C69.7213 266.156 68.7734 265.747 68.1171 264.93C67.4609 264.112 67.1249 262.94 67.1093 261.414V259.32C67.1093 257.732 67.4374 256.526 68.0937 255.703C68.7551 254.88 69.7057 254.469 70.9453 254.469C72.1848 254.469 73.1328 254.878 73.789 255.695C74.4453 256.508 74.7812 257.677 74.7968 259.203V261.297ZM72.539 259C72.539 258.057 72.4088 257.372 72.1484 256.945C71.8932 256.513 71.4921 256.297 70.9453 256.297C70.414 256.297 70.0208 256.503 69.7656 256.914C69.5156 257.32 69.3828 257.958 69.3671 258.828V261.594C69.3671 262.521 69.4921 263.211 69.7421 263.664C69.9973 264.112 70.4036 264.336 70.9609 264.336C71.513 264.336 71.9114 264.12 72.1562 263.688C72.401 263.255 72.5286 262.594 72.539 261.703V259ZM76.2968 256.813C76.2968 256.115 76.5234 255.55 76.9765 255.117C77.4296 254.68 78.0234 254.461 78.7578 254.461C79.5025 254.461 80.1015 254.677 80.5546 255.109C81.0078 255.537 81.2343 256.117 81.2343 256.852V257.414C81.2343 258.117 81.0078 258.682 80.5546 259.109C80.1015 259.537 79.5078 259.75 78.7734 259.75C78.0338 259.75 77.4348 259.537 76.9765 259.109C76.5234 258.677 76.2968 258.096 76.2968 257.367V256.813ZM77.7968 257.414C77.7968 257.727 77.8854 257.979 78.0624 258.172C78.2447 258.359 78.4817 258.453 78.7734 258.453C79.065 258.453 79.2968 258.357 79.4687 258.164C79.6406 257.971 79.7265 257.714 79.7265 257.391V256.813C79.7265 256.5 79.6406 256.247 79.4687 256.055C79.2968 255.862 79.0598 255.766 78.7578 255.766C78.4713 255.766 78.2395 255.862 78.0624 256.055C77.8854 256.242 77.7968 256.505 77.7968 256.844V257.414ZM81.7343 263.211C81.7343 262.508 81.9635 261.943 82.4218 261.516C82.8801 261.083 83.4739 260.867 84.2031 260.867C84.9426 260.867 85.539 261.081 85.9921 261.508C86.4505 261.93 86.6796 262.513 86.6796 263.258V263.82C86.6796 264.518 86.4557 265.083 86.0078 265.516C85.5598 265.943 84.9635 266.156 84.2187 266.156C83.4687 266.156 82.8671 265.94 82.414 265.508C81.9609 265.076 81.7343 264.503 81.7343 263.789V263.211ZM83.2343 263.82C83.2343 264.107 83.3281 264.352 83.5156 264.555C83.7031 264.758 83.9374 264.859 84.2187 264.859C84.8541 264.859 85.1718 264.508 85.1718 263.805V263.211C85.1718 262.898 85.0833 262.648 84.9062 262.461C84.7291 262.268 84.4947 262.172 84.2031 262.172C83.9114 262.172 83.677 262.268 83.4999 262.461C83.3229 262.648 83.2343 262.906 83.2343 263.234V263.82ZM79.2187 265.148L78.1171 264.555L83.6718 255.664L84.7734 256.258L79.2187 265.148ZM92.0468 261.695C92.0468 260.867 92.2083 260.122 92.5312 259.461C92.8593 258.8 93.3124 258.289 93.8906 257.93C94.4739 257.57 95.138 257.391 95.8828 257.391C97.0338 257.391 97.9635 257.789 98.6718 258.586C99.3854 259.383 99.7421 260.443 99.7421 261.766V261.867C99.7421 262.69 99.5833 263.43 99.2656 264.086C98.9531 264.737 98.5025 265.245 97.914 265.609C97.3307 265.974 96.6588 266.156 95.8984 266.156C94.7525 266.156 93.8229 265.758 93.1093 264.961C92.401 264.164 92.0468 263.109 92.0468 261.797V261.695ZM93.4999 261.867C93.4999 262.805 93.7161 263.557 94.1484 264.125C94.5859 264.693 95.1692 264.977 95.8984 264.977C96.6328 264.977 97.2161 264.69 97.6484 264.117C98.0807 263.539 98.2968 262.732 98.2968 261.695C98.2968 260.768 98.0755 260.018 97.6328 259.445C97.1953 258.867 96.6119 258.578 95.8828 258.578C95.1692 258.578 94.5937 258.862 94.1562 259.43C93.7187 259.997 93.4999 260.81 93.4999 261.867ZM102.266 266V258.664H100.93V257.547H102.266V256.68C102.266 255.773 102.508 255.073 102.992 254.578C103.477 254.083 104.161 253.836 105.047 253.836C105.38 253.836 105.711 253.88 106.039 253.969L105.961 255.141C105.716 255.094 105.456 255.07 105.18 255.07C104.711 255.07 104.349 255.208 104.094 255.484C103.838 255.755 103.711 256.146 103.711 256.656V257.547H105.516V258.664H103.711V266H102.266ZM118.227 261.867C118.227 263.154 117.932 264.19 117.344 264.977C116.755 265.763 115.958 266.156 114.953 266.156C113.927 266.156 113.12 265.831 112.531 265.18V269.25H111.086V257.547H112.406L112.477 258.484C113.065 257.755 113.883 257.391 114.93 257.391C115.945 257.391 116.747 257.773 117.336 258.539C117.93 259.305 118.227 260.37 118.227 261.734V261.867ZM116.781 261.703C116.781 260.75 116.578 259.997 116.172 259.445C115.766 258.893 115.208 258.617 114.5 258.617C113.625 258.617 112.969 259.005 112.531 259.781V263.82C112.963 264.591 113.625 264.977 114.516 264.977C115.208 264.977 115.758 264.703 116.164 264.156C116.575 263.604 116.781 262.787 116.781 261.703ZM125.289 266C125.206 265.833 125.138 265.537 125.086 265.109C124.414 265.807 123.612 266.156 122.68 266.156C121.846 266.156 121.161 265.922 120.625 265.453C120.094 264.979 119.828 264.38 119.828 263.656C119.828 262.776 120.161 262.094 120.828 261.609C121.5 261.12 122.443 260.875 123.656 260.875H125.062V260.211C125.062 259.706 124.911 259.305 124.609 259.008C124.307 258.706 123.862 258.555 123.273 258.555C122.758 258.555 122.325 258.685 121.977 258.945C121.628 259.206 121.453 259.521 121.453 259.891H120C120 259.469 120.148 259.063 120.445 258.672C120.747 258.276 121.154 257.964 121.664 257.734C122.18 257.505 122.745 257.391 123.359 257.391C124.333 257.391 125.096 257.635 125.648 258.125C126.2 258.609 126.487 259.279 126.508 260.133V264.023C126.508 264.8 126.607 265.417 126.805 265.875V266H125.289ZM122.891 264.898C123.344 264.898 123.773 264.781 124.18 264.547C124.586 264.313 124.88 264.008 125.062 263.633V261.898H123.93C122.159 261.898 121.273 262.417 121.273 263.453C121.273 263.906 121.424 264.26 121.727 264.516C122.029 264.771 122.417 264.898 122.891 264.898ZM132.859 258.844C132.641 258.807 132.404 258.789 132.148 258.789C131.2 258.789 130.557 259.193 130.219 260V266H128.773V257.547H130.18L130.203 258.523C130.677 257.768 131.349 257.391 132.219 257.391C132.5 257.391 132.713 257.427 132.859 257.5V258.844ZM136.547 255.5V257.547H138.125V258.664H136.547V263.906C136.547 264.245 136.617 264.5 136.758 264.672C136.898 264.839 137.138 264.922 137.477 264.922C137.643 264.922 137.872 264.891 138.164 264.828V266C137.784 266.104 137.414 266.156 137.055 266.156C136.409 266.156 135.922 265.961 135.594 265.57C135.266 265.18 135.102 264.625 135.102 263.906V258.664H133.562V257.547H135.102V255.5H136.547ZM141.391 266H139.945V257.547H141.391V266ZM139.828 255.305C139.828 255.07 139.898 254.872 140.039 254.711C140.185 254.55 140.398 254.469 140.68 254.469C140.961 254.469 141.174 254.55 141.32 254.711C141.466 254.872 141.539 255.07 141.539 255.305C141.539 255.539 141.466 255.734 141.32 255.891C141.174 256.047 140.961 256.125 140.68 256.125C140.398 256.125 140.185 256.047 140.039 255.891C139.898 255.734 139.828 255.539 139.828 255.305ZM147.102 264.977C147.617 264.977 148.068 264.82 148.453 264.508C148.838 264.195 149.052 263.805 149.094 263.336H150.461C150.435 263.82 150.268 264.281 149.961 264.719C149.654 265.156 149.242 265.505 148.727 265.766C148.216 266.026 147.674 266.156 147.102 266.156C145.95 266.156 145.034 265.773 144.352 265.008C143.674 264.237 143.336 263.185 143.336 261.852V261.609C143.336 260.787 143.487 260.055 143.789 259.414C144.091 258.773 144.523 258.276 145.086 257.922C145.654 257.568 146.323 257.391 147.094 257.391C148.042 257.391 148.828 257.675 149.453 258.242C150.083 258.81 150.419 259.547 150.461 260.453H149.094C149.052 259.906 148.844 259.458 148.469 259.109C148.099 258.755 147.641 258.578 147.094 258.578C146.359 258.578 145.789 258.844 145.383 259.375C144.982 259.901 144.781 260.664 144.781 261.664V261.938C144.781 262.912 144.982 263.662 145.383 264.188C145.784 264.714 146.357 264.977 147.102 264.977ZM153.656 266H152.211V257.547H153.656V266ZM152.094 255.305C152.094 255.07 152.164 254.872 152.305 254.711C152.45 254.55 152.664 254.469 152.945 254.469C153.227 254.469 153.44 254.55 153.586 254.711C153.732 254.872 153.805 255.07 153.805 255.305C153.805 255.539 153.732 255.734 153.586 255.891C153.44 256.047 153.227 256.125 152.945 256.125C152.664 256.125 152.45 256.047 152.305 255.891C152.164 255.734 152.094 255.539 152.094 255.305ZM163.117 261.867C163.117 263.154 162.823 264.19 162.234 264.977C161.646 265.763 160.849 266.156 159.844 266.156C158.818 266.156 158.01 265.831 157.422 265.18V269.25H155.977V257.547H157.297L157.367 258.484C157.956 257.755 158.773 257.391 159.82 257.391C160.836 257.391 161.638 257.773 162.227 258.539C162.82 259.305 163.117 260.37 163.117 261.734V261.867ZM161.672 261.703C161.672 260.75 161.469 259.997 161.062 259.445C160.656 258.893 160.099 258.617 159.391 258.617C158.516 258.617 157.859 259.005 157.422 259.781V263.82C157.854 264.591 158.516 264.977 159.406 264.977C160.099 264.977 160.648 264.703 161.055 264.156C161.466 263.604 161.672 262.787 161.672 261.703ZM170.18 266C170.096 265.833 170.029 265.537 169.977 265.109C169.305 265.807 168.503 266.156 167.57 266.156C166.737 266.156 166.052 265.922 165.516 265.453C164.984 264.979 164.719 264.38 164.719 263.656C164.719 262.776 165.052 262.094 165.719 261.609C166.391 261.12 167.333 260.875 168.547 260.875H169.953V260.211C169.953 259.706 169.802 259.305 169.5 259.008C169.198 258.706 168.753 258.555 168.164 258.555C167.648 258.555 167.216 258.685 166.867 258.945C166.518 259.206 166.344 259.521 166.344 259.891H164.891C164.891 259.469 165.039 259.063 165.336 258.672C165.638 258.276 166.044 257.964 166.555 257.734C167.07 257.505 167.635 257.391 168.25 257.391C169.224 257.391 169.987 257.635 170.539 258.125C171.091 258.609 171.378 259.279 171.398 260.133V264.023C171.398 264.8 171.497 265.417 171.695 265.875V266H170.18ZM167.781 264.898C168.234 264.898 168.664 264.781 169.07 264.547C169.477 264.313 169.771 264.008 169.953 263.633V261.898H168.82C167.049 261.898 166.164 262.417 166.164 263.453C166.164 263.906 166.315 264.26 166.617 264.516C166.919 264.771 167.307 264.898 167.781 264.898ZM175.031 257.547L175.078 258.609C175.724 257.797 176.568 257.391 177.609 257.391C179.396 257.391 180.297 258.398 180.312 260.414V266H178.867V260.406C178.862 259.797 178.721 259.346 178.445 259.055C178.174 258.763 177.75 258.617 177.172 258.617C176.703 258.617 176.292 258.742 175.937 258.992C175.583 259.242 175.307 259.57 175.109 259.977V266H173.664V257.547H175.031ZM184.453 255.5V257.547H186.031V258.664H184.453V263.906C184.453 264.245 184.523 264.5 184.664 264.672C184.805 264.839 185.044 264.922 185.383 264.922C185.549 264.922 185.779 264.891 186.07 264.828V266C185.69 266.104 185.32 266.156 184.961 266.156C184.315 266.156 183.828 265.961 183.5 265.57C183.172 265.18 183.008 264.625 183.008 263.906V258.664H181.469V257.547H183.008V255.5H184.453ZM192.648 263.758C192.648 263.367 192.5 263.065 192.203 262.852C191.911 262.633 191.398 262.445 190.664 262.289C189.935 262.133 189.354 261.945 188.922 261.727C188.495 261.508 188.177 261.247 187.969 260.945C187.766 260.643 187.664 260.284 187.664 259.867C187.664 259.175 187.956 258.589 188.539 258.109C189.128 257.63 189.878 257.391 190.789 257.391C191.747 257.391 192.523 257.638 193.117 258.133C193.716 258.628 194.016 259.26 194.016 260.031H192.562C192.562 259.635 192.393 259.294 192.055 259.008C191.721 258.721 191.299 258.578 190.789 258.578C190.263 258.578 189.852 258.693 189.555 258.922C189.258 259.151 189.109 259.451 189.109 259.82C189.109 260.169 189.247 260.432 189.523 260.609C189.799 260.787 190.297 260.956 191.016 261.117C191.74 261.279 192.325 261.471 192.773 261.695C193.221 261.919 193.552 262.19 193.766 262.508C193.984 262.82 194.094 263.203 194.094 263.656C194.094 264.412 193.792 265.018 193.187 265.477C192.583 265.93 191.799 266.156 190.836 266.156C190.159 266.156 189.56 266.037 189.039 265.797C188.518 265.557 188.109 265.224 187.812 264.797C187.521 264.365 187.375 263.898 187.375 263.398H188.82C188.846 263.883 189.039 264.268 189.398 264.555C189.763 264.836 190.242 264.977 190.836 264.977C191.383 264.977 191.82 264.867 192.148 264.648C192.482 264.425 192.648 264.128 192.648 263.758ZM204.867 263.758C204.867 263.367 204.719 263.065 204.422 262.852C204.13 262.633 203.617 262.445 202.883 262.289C202.154 262.133 201.573 261.945 201.141 261.727C200.713 261.508 200.396 261.247 200.187 260.945C199.984 260.643 199.883 260.284 199.883 259.867C199.883 259.175 200.174 258.589 200.758 258.109C201.346 257.63 202.096 257.391 203.008 257.391C203.966 257.391 204.742 257.638 205.336 258.133C205.935 258.628 206.234 259.26 206.234 260.031H204.781C204.781 259.635 204.612 259.294 204.273 259.008C203.94 258.721 203.518 258.578 203.008 258.578C202.482 258.578 202.07 258.693 201.773 258.922C201.477 259.151 201.328 259.451 201.328 259.82C201.328 260.169 201.466 260.432 201.742 260.609C202.018 260.787 202.516 260.956 203.234 261.117C203.958 261.279 204.544 261.471 204.992 261.695C205.44 261.919 205.771 262.19 205.984 262.508C206.203 262.82 206.312 263.203 206.312 263.656C206.312 264.412 206.01 265.018 205.406 265.477C204.802 265.93 204.018 266.156 203.055 266.156C202.378 266.156 201.779 266.037 201.258 265.797C200.737 265.557 200.328 265.224 200.031 264.797C199.74 264.365 199.594 263.898 199.594 263.398H201.039C201.065 263.883 201.258 264.268 201.617 264.555C201.982 264.836 202.461 264.977 203.055 264.977C203.602 264.977 204.039 264.867 204.367 264.648C204.7 264.425 204.867 264.128 204.867 263.758ZM209.641 258.57C210.281 257.784 211.115 257.391 212.141 257.391C213.927 257.391 214.828 258.398 214.844 260.414V266H213.398V260.406C213.393 259.797 213.253 259.346 212.977 259.055C212.706 258.763 212.281 258.617 211.703 258.617C211.234 258.617 210.823 258.742 210.469 258.992C210.115 259.242 209.838 259.57 209.641 259.977V266H208.195V254H209.641V258.57ZM222.227 266C222.143 265.833 222.075 265.537 222.023 265.109C221.352 265.807 220.549 266.156 219.617 266.156C218.784 266.156 218.099 265.922 217.562 265.453C217.031 264.979 216.766 264.38 216.766 263.656C216.766 262.776 217.099 262.094 217.766 261.609C218.437 261.12 219.38 260.875 220.594 260.875H222V260.211C222 259.706 221.849 259.305 221.547 259.008C221.245 258.706 220.799 258.555 220.211 258.555C219.695 258.555 219.263 258.685 218.914 258.945C218.565 259.206 218.391 259.521 218.391 259.891H216.937C216.937 259.469 217.086 259.063 217.383 258.672C217.685 258.276 218.091 257.964 218.602 257.734C219.117 257.505 219.682 257.391 220.297 257.391C221.271 257.391 222.034 257.635 222.586 258.125C223.138 258.609 223.424 259.279 223.445 260.133V264.023C223.445 264.8 223.544 265.417 223.742 265.875V266H222.227ZM219.828 264.898C220.281 264.898 220.711 264.781 221.117 264.547C221.523 264.313 221.818 264.008 222 263.633V261.898H220.867C219.096 261.898 218.211 262.417 218.211 263.453C218.211 263.906 218.362 264.26 218.664 264.516C218.966 264.771 219.354 264.898 219.828 264.898ZM229.797 258.844C229.578 258.807 229.341 258.789 229.086 258.789C228.138 258.789 227.495 259.193 227.156 260V266H225.711V257.547H227.117L227.141 258.523C227.615 257.768 228.286 257.391 229.156 257.391C229.437 257.391 229.651 257.427 229.797 257.5V258.844ZM234.484 266.156C233.338 266.156 232.406 265.781 231.687 265.031C230.969 264.276 230.609 263.268 230.609 262.008V261.742C230.609 260.904 230.768 260.156 231.086 259.5C231.409 258.839 231.857 258.323 232.43 257.953C233.008 257.578 233.633 257.391 234.305 257.391C235.404 257.391 236.258 257.753 236.867 258.477C237.477 259.201 237.781 260.237 237.781 261.586V262.188H232.055C232.075 263.021 232.318 263.695 232.781 264.211C233.25 264.721 233.844 264.977 234.562 264.977C235.073 264.977 235.505 264.872 235.859 264.664C236.213 264.456 236.523 264.18 236.789 263.836L237.672 264.523C236.963 265.612 235.901 266.156 234.484 266.156ZM234.305 258.578C233.721 258.578 233.232 258.792 232.836 259.219C232.44 259.641 232.195 260.234 232.102 261H236.336V260.891C236.294 260.156 236.096 259.589 235.742 259.188C235.388 258.781 234.909 258.578 234.305 258.578ZM243.914 266V258.664H242.578V257.547H243.914V256.828C243.914 255.885 244.182 255.151 244.719 254.625C245.26 254.099 246.023 253.836 247.008 253.836C247.591 253.836 248.328 253.995 249.219 254.313L248.977 255.531C248.325 255.271 247.706 255.141 247.117 255.141C246.497 255.141 246.049 255.281 245.773 255.563C245.503 255.839 245.367 256.255 245.367 256.813V257.547H247.094V258.664H245.367V266H243.914ZM249.937 266H248.484V257.547H249.937V266ZM253.859 266H252.414V254H253.859V266ZM259.687 266.156C258.542 266.156 257.609 265.781 256.891 265.031C256.172 264.276 255.812 263.268 255.812 262.008V261.742C255.812 260.904 255.971 260.156 256.289 259.5C256.612 258.839 257.06 258.323 257.633 257.953C258.211 257.578 258.836 257.391 259.508 257.391C260.607 257.391 261.461 257.753 262.07 258.477C262.68 259.201 262.984 260.237 262.984 261.586V262.188H257.258C257.279 263.021 257.521 263.695 257.984 264.211C258.453 264.721 259.047 264.977 259.766 264.977C260.276 264.977 260.708 264.872 261.062 264.664C261.417 264.456 261.727 264.18 261.992 263.836L262.875 264.523C262.167 265.612 261.104 266.156 259.687 266.156ZM259.508 258.578C258.924 258.578 258.435 258.792 258.039 259.219C257.643 259.641 257.398 260.234 257.305 261H261.539V260.891C261.497 260.156 261.299 259.589 260.945 259.188C260.591 258.781 260.112 258.578 259.508 258.578ZM269.586 263.758C269.586 263.367 269.437 263.065 269.141 262.852C268.849 262.633 268.336 262.445 267.602 262.289C266.872 262.133 266.292 261.945 265.859 261.727C265.432 261.508 265.115 261.247 264.906 260.945C264.703 260.643 264.602 260.284 264.602 259.867C264.602 259.175 264.893 258.589 265.477 258.109C266.065 257.63 266.815 257.391 267.727 257.391C268.685 257.391 269.461 257.638 270.055 258.133C270.654 258.628 270.953 259.26 270.953 260.031H269.5C269.5 259.635 269.331 259.294 268.992 259.008C268.659 258.721 268.237 258.578 267.727 258.578C267.2 258.578 266.789 258.693 266.492 258.922C266.195 259.151 266.047 259.451 266.047 259.82C266.047 260.169 266.185 260.432 266.461 260.609C266.737 260.787 267.234 260.956 267.953 261.117C268.677 261.279 269.263 261.471 269.711 261.695C270.159 261.919 270.49 262.19 270.703 262.508C270.922 262.82 271.031 263.203 271.031 263.656C271.031 264.412 270.729 265.018 270.125 265.477C269.521 265.93 268.737 266.156 267.773 266.156C267.096 266.156 266.497 266.037 265.977 265.797C265.456 265.557 265.047 265.224 264.75 264.797C264.458 264.365 264.312 263.898 264.312 263.398H265.758C265.784 263.883 265.977 264.268 266.336 264.555C266.7 264.836 267.18 264.977 267.773 264.977C268.32 264.977 268.758 264.867 269.086 264.648C269.419 264.425 269.586 264.128 269.586 263.758ZM72.0234 291.008L73.6484 284.547H75.0937L72.6328 293H71.4609L69.4062 286.594L67.4062 293H66.2343L63.7812 284.547H65.2187L66.8828 290.875L68.8515 284.547H70.0156L72.0234 291.008ZM78.1406 293H76.6953V284.547H78.1406V293ZM76.5781 282.305C76.5781 282.07 76.6484 281.872 76.789 281.711C76.9348 281.55 77.1484 281.469 77.4296 281.469C77.7109 281.469 77.9244 281.55 78.0703 281.711C78.2161 281.872 78.289 282.07 78.289 282.305C78.289 282.539 78.2161 282.734 78.0703 282.891C77.9244 283.047 77.7109 283.125 77.4296 283.125C77.1484 283.125 76.9348 283.047 76.789 282.891C76.6484 282.734 76.5781 282.539 76.5781 282.305ZM82.4218 282.5V284.547H83.9999V285.664H82.4218V290.906C82.4218 291.245 82.4921 291.5 82.6328 291.672C82.7734 291.839 83.013 291.922 83.3515 291.922C83.5182 291.922 83.7473 291.891 84.039 291.828V293C83.6588 293.104 83.289 293.156 82.9296 293.156C82.2838 293.156 81.7968 292.961 81.4687 292.57C81.1406 292.18 80.9765 291.625 80.9765 290.906V285.664H79.4374V284.547H80.9765V282.5H82.4218ZM87.1406 285.57C87.7812 284.784 88.6145 284.391 89.6406 284.391C91.427 284.391 92.3281 285.398 92.3437 287.414V293H90.8984V287.406C90.8932 286.797 90.7525 286.346 90.4765 286.055C90.2057 285.763 89.7812 285.617 89.2031 285.617C88.7343 285.617 88.3229 285.742 87.9687 285.992C87.6145 286.242 87.3385 286.57 87.1406 286.977V293H85.6953V281H87.1406V285.57ZM98.0937 288.695C98.0937 287.867 98.2551 287.122 98.5781 286.461C98.9062 285.8 99.3593 285.289 99.9374 284.93C100.521 284.57 101.185 284.391 101.93 284.391C103.081 284.391 104.01 284.789 104.719 285.586C105.432 286.383 105.789 287.443 105.789 288.766V288.867C105.789 289.69 105.63 290.43 105.312 291.086C105 291.737 104.549 292.245 103.961 292.609C103.378 292.974 102.706 293.156 101.945 293.156C100.799 293.156 99.8697 292.758 99.1562 291.961C98.4479 291.164 98.0937 290.109 98.0937 288.797V288.695ZM99.5468 288.867C99.5468 289.805 99.763 290.557 100.195 291.125C100.633 291.693 101.216 291.977 101.945 291.977C102.68 291.977 103.263 291.69 103.695 291.117C104.128 290.539 104.344 289.732 104.344 288.695C104.344 287.768 104.122 287.018 103.68 286.445C103.242 285.867 102.659 285.578 101.93 285.578C101.216 285.578 100.641 285.862 100.203 286.43C99.7656 286.997 99.5468 287.81 99.5468 288.867ZM109.562 282.5V284.547H111.141V285.664H109.562V290.906C109.562 291.245 109.633 291.5 109.773 291.672C109.914 291.839 110.154 291.922 110.492 291.922C110.659 291.922 110.888 291.891 111.18 291.828V293C110.799 293.104 110.43 293.156 110.07 293.156C109.424 293.156 108.937 292.961 108.609 292.57C108.281 292.18 108.117 291.625 108.117 290.906V285.664H106.578V284.547H108.117V282.5H109.562ZM114.281 285.57C114.922 284.784 115.755 284.391 116.781 284.391C118.568 284.391 119.469 285.398 119.484 287.414V293H118.039V287.406C118.034 286.797 117.893 286.346 117.617 286.055C117.346 285.763 116.922 285.617 116.344 285.617C115.875 285.617 115.463 285.742 115.109 285.992C114.755 286.242 114.479 286.57 114.281 286.977V293H112.836V281H114.281V285.57ZM125.156 293.156C124.01 293.156 123.078 292.781 122.359 292.031C121.641 291.276 121.281 290.268 121.281 289.008V288.742C121.281 287.904 121.44 287.156 121.758 286.5C122.081 285.839 122.529 285.323 123.102 284.953C123.68 284.578 124.305 284.391 124.977 284.391C126.075 284.391 126.93 284.753 127.539 285.477C128.148 286.201 128.453 287.237 128.453 288.586V289.188H122.727C122.747 290.021 122.99 290.695 123.453 291.211C123.922 291.721 124.516 291.977 125.234 291.977C125.745 291.977 126.177 291.872 126.531 291.664C126.885 291.456 127.195 291.18 127.461 290.836L128.344 291.523C127.635 292.612 126.573 293.156 125.156 293.156ZM124.977 285.578C124.393 285.578 123.904 285.792 123.508 286.219C123.112 286.641 122.867 287.234 122.773 288H127.008V287.891C126.966 287.156 126.768 286.589 126.414 286.188C126.06 285.781 125.581 285.578 124.977 285.578ZM134.219 285.844C134 285.807 133.763 285.789 133.508 285.789C132.56 285.789 131.917 286.193 131.578 287V293H130.133V284.547H131.539L131.562 285.523C132.036 284.768 132.708 284.391 133.578 284.391C133.859 284.391 134.073 284.427 134.219 284.5V285.844ZM140.477 290.758C140.477 290.367 140.328 290.065 140.031 289.852C139.74 289.633 139.227 289.445 138.492 289.289C137.763 289.133 137.182 288.945 136.75 288.727C136.323 288.508 136.005 288.247 135.797 287.945C135.594 287.643 135.492 287.284 135.492 286.867C135.492 286.175 135.784 285.589 136.367 285.109C136.956 284.63 137.706 284.391 138.617 284.391C139.575 284.391 140.352 284.638 140.945 285.133C141.544 285.628 141.844 286.26 141.844 287.031H140.391C140.391 286.635 140.221 286.294 139.883 286.008C139.549 285.721 139.128 285.578 138.617 285.578C138.091 285.578 137.68 285.693 137.383 285.922C137.086 286.151 136.937 286.451 136.937 286.82C136.937 287.169 137.075 287.432 137.352 287.609C137.628 287.787 138.125 287.956 138.844 288.117C139.568 288.279 140.154 288.471 140.602 288.695C141.049 288.919 141.38 289.19 141.594 289.508C141.812 289.82 141.922 290.203 141.922 290.656C141.922 291.412 141.62 292.018 141.016 292.477C140.411 292.93 139.628 293.156 138.664 293.156C137.987 293.156 137.388 293.037 136.867 292.797C136.346 292.557 135.937 292.224 135.641 291.797C135.349 291.365 135.203 290.898 135.203 290.398H136.648C136.674 290.883 136.867 291.268 137.227 291.555C137.591 291.836 138.07 291.977 138.664 291.977C139.211 291.977 139.648 291.867 139.977 291.648C140.31 291.425 140.477 291.128 140.477 290.758ZM147.391 288.695C147.391 287.867 147.552 287.122 147.875 286.461C148.203 285.8 148.656 285.289 149.234 284.93C149.818 284.57 150.482 284.391 151.227 284.391C152.378 284.391 153.307 284.789 154.016 285.586C154.729 286.383 155.086 287.443 155.086 288.766V288.867C155.086 289.69 154.927 290.43 154.609 291.086C154.297 291.737 153.846 292.245 153.258 292.609C152.674 292.974 152.003 293.156 151.242 293.156C150.096 293.156 149.167 292.758 148.453 291.961C147.745 291.164 147.391 290.109 147.391 288.797V288.695ZM148.844 288.867C148.844 289.805 149.06 290.557 149.492 291.125C149.93 291.693 150.513 291.977 151.242 291.977C151.977 291.977 152.56 291.69 152.992 291.117C153.424 290.539 153.641 289.732 153.641 288.695C153.641 287.768 153.419 287.018 152.977 286.445C152.539 285.867 151.956 285.578 151.227 285.578C150.513 285.578 149.937 285.862 149.5 286.43C149.062 286.997 148.844 287.81 148.844 288.867ZM158.266 284.547L158.312 285.609C158.958 284.797 159.802 284.391 160.844 284.391C162.63 284.391 163.531 285.398 163.547 287.414V293H162.102V287.406C162.096 286.797 161.956 286.346 161.68 286.055C161.409 285.763 160.984 285.617 160.406 285.617C159.937 285.617 159.526 285.742 159.172 285.992C158.818 286.242 158.542 286.57 158.344 286.977V293H156.898V284.547H158.266ZM173.086 291.977C173.602 291.977 174.052 291.82 174.437 291.508C174.823 291.195 175.036 290.805 175.078 290.336H176.445C176.419 290.82 176.253 291.281 175.945 291.719C175.638 292.156 175.227 292.505 174.711 292.766C174.2 293.026 173.659 293.156 173.086 293.156C171.935 293.156 171.018 292.773 170.336 292.008C169.659 291.237 169.32 290.185 169.32 288.852V288.609C169.32 287.787 169.471 287.055 169.773 286.414C170.075 285.773 170.508 285.276 171.07 284.922C171.638 284.568 172.307 284.391 173.078 284.391C174.026 284.391 174.812 284.675 175.437 285.242C176.068 285.81 176.404 286.547 176.445 287.453H175.078C175.036 286.906 174.828 286.458 174.453 286.109C174.083 285.755 173.625 285.578 173.078 285.578C172.344 285.578 171.773 285.844 171.367 286.375C170.966 286.901 170.766 287.664 170.766 288.664V288.938C170.766 289.912 170.966 290.662 171.367 291.188C171.768 291.714 172.341 291.977 173.086 291.977ZM179.641 293H178.195V281H179.641V293ZM181.578 288.695C181.578 287.867 181.74 287.122 182.062 286.461C182.391 285.8 182.844 285.289 183.422 284.93C184.005 284.57 184.669 284.391 185.414 284.391C186.565 284.391 187.495 284.789 188.203 285.586C188.917 286.383 189.273 287.443 189.273 288.766V288.867C189.273 289.69 189.115 290.43 188.797 291.086C188.484 291.737 188.034 292.245 187.445 292.609C186.862 292.974 186.19 293.156 185.43 293.156C184.284 293.156 183.354 292.758 182.641 291.961C181.932 291.164 181.578 290.109 181.578 288.797V288.695ZM183.031 288.867C183.031 289.805 183.247 290.557 183.68 291.125C184.117 291.693 184.7 291.977 185.43 291.977C186.164 291.977 186.747 291.69 187.18 291.117C187.612 290.539 187.828 289.732 187.828 288.695C187.828 287.768 187.607 287.018 187.164 286.445C186.727 285.867 186.143 285.578 185.414 285.578C184.7 285.578 184.125 285.862 183.687 286.43C183.25 286.997 183.031 287.81 183.031 288.867ZM196.305 292.164C195.742 292.826 194.917 293.156 193.828 293.156C192.927 293.156 192.24 292.896 191.766 292.375C191.297 291.849 191.06 291.073 191.055 290.047V284.547H192.5V290.008C192.5 291.289 193.021 291.93 194.062 291.93C195.167 291.93 195.901 291.518 196.266 290.695V284.547H197.711V293H196.336L196.305 292.164ZM199.562 288.703C199.562 287.406 199.87 286.365 200.484 285.578C201.099 284.787 201.904 284.391 202.898 284.391C203.888 284.391 204.672 284.729 205.25 285.406V281H206.695V293H205.367L205.297 292.094C204.719 292.802 203.914 293.156 202.883 293.156C201.904 293.156 201.104 292.755 200.484 291.953C199.87 291.151 199.562 290.104 199.562 288.813V288.703ZM201.008 288.867C201.008 289.826 201.206 290.576 201.602 291.117C201.997 291.659 202.544 291.93 203.242 291.93C204.159 291.93 204.828 291.518 205.25 290.695V286.813C204.818 286.016 204.154 285.617 203.258 285.617C202.549 285.617 201.997 285.891 201.602 286.438C201.206 286.984 201.008 287.794 201.008 288.867ZM217.836 290.758C217.836 290.367 217.687 290.065 217.391 289.852C217.099 289.633 216.586 289.445 215.852 289.289C215.122 289.133 214.542 288.945 214.109 288.727C213.682 288.508 213.365 288.247 213.156 287.945C212.953 287.643 212.852 287.284 212.852 286.867C212.852 286.175 213.143 285.589 213.727 285.109C214.315 284.63 215.065 284.391 215.977 284.391C216.935 284.391 217.711 284.638 218.305 285.133C218.904 285.628 219.203 286.26 219.203 287.031H217.75C217.75 286.635 217.581 286.294 217.242 286.008C216.909 285.721 216.487 285.578 215.977 285.578C215.45 285.578 215.039 285.693 214.742 285.922C214.445 286.151 214.297 286.451 214.297 286.82C214.297 287.169 214.435 287.432 214.711 287.609C214.987 287.787 215.484 287.956 216.203 288.117C216.927 288.279 217.513 288.471 217.961 288.695C218.409 288.919 218.74 289.19 218.953 289.508C219.172 289.82 219.281 290.203 219.281 290.656C219.281 291.412 218.979 292.018 218.375 292.477C217.771 292.93 216.987 293.156 216.023 293.156C215.346 293.156 214.747 293.037 214.227 292.797C213.706 292.557 213.297 292.224 213 291.797C212.708 291.365 212.562 290.898 212.562 290.398H214.008C214.034 290.883 214.227 291.268 214.586 291.555C214.95 291.836 215.43 291.977 216.023 291.977C216.57 291.977 217.008 291.867 217.336 291.648C217.669 291.425 217.836 291.128 217.836 290.758ZM223.125 282.5V284.547H224.703V285.664H223.125V290.906C223.125 291.245 223.195 291.5 223.336 291.672C223.477 291.839 223.716 291.922 224.055 291.922C224.221 291.922 224.45 291.891 224.742 291.828V293C224.362 293.104 223.992 293.156 223.633 293.156C222.987 293.156 222.5 292.961 222.172 292.57C221.844 292.18 221.68 291.625 221.68 290.906V285.664H220.141V284.547H221.68V282.5H223.125ZM225.859 288.695C225.859 287.867 226.021 287.122 226.344 286.461C226.672 285.8 227.125 285.289 227.703 284.93C228.286 284.57 228.95 284.391 229.695 284.391C230.846 284.391 231.776 284.789 232.484 285.586C233.198 286.383 233.555 287.443 233.555 288.766V288.867C233.555 289.69 233.396 290.43 233.078 291.086C232.766 291.737 232.315 292.245 231.727 292.609C231.143 292.974 230.471 293.156 229.711 293.156C228.565 293.156 227.635 292.758 226.922 291.961C226.213 291.164 225.859 290.109 225.859 288.797V288.695ZM227.312 288.867C227.312 289.805 227.529 290.557 227.961 291.125C228.398 291.693 228.982 291.977 229.711 291.977C230.445 291.977 231.029 291.69 231.461 291.117C231.893 290.539 232.109 289.732 232.109 288.695C232.109 287.768 231.888 287.018 231.445 286.445C231.008 285.867 230.424 285.578 229.695 285.578C228.982 285.578 228.406 285.862 227.969 286.43C227.531 286.997 227.312 287.81 227.312 288.867ZM239.453 285.844C239.234 285.807 238.997 285.789 238.742 285.789C237.794 285.789 237.151 286.193 236.812 287V293H235.367V284.547H236.773L236.797 285.523C237.271 284.768 237.943 284.391 238.812 284.391C239.094 284.391 239.307 284.427 239.453 284.5V285.844ZM245.695 293C245.612 292.833 245.544 292.537 245.492 292.109C244.82 292.807 244.018 293.156 243.086 293.156C242.253 293.156 241.568 292.922 241.031 292.453C240.5 291.979 240.234 291.38 240.234 290.656C240.234 289.776 240.568 289.094 241.234 288.609C241.906 288.12 242.849 287.875 244.062 287.875H245.469V287.211C245.469 286.706 245.318 286.305 245.016 286.008C244.713 285.706 244.268 285.555 243.68 285.555C243.164 285.555 242.732 285.685 242.383 285.945C242.034 286.206 241.859 286.521 241.859 286.891H240.406C240.406 286.469 240.555 286.063 240.852 285.672C241.154 285.276 241.56 284.964 242.07 284.734C242.586 284.505 243.151 284.391 243.766 284.391C244.74 284.391 245.503 284.635 246.055 285.125C246.607 285.609 246.893 286.279 246.914 287.133V291.023C246.914 291.8 247.013 292.417 247.211 292.875V293H245.695ZM243.297 291.898C243.75 291.898 244.18 291.781 244.586 291.547C244.992 291.313 245.286 291.008 245.469 290.633V288.898H244.336C242.565 288.898 241.68 289.417 241.68 290.453C241.68 290.906 241.831 291.26 242.133 291.516C242.435 291.771 242.823 291.898 243.297 291.898ZM248.836 288.703C248.836 287.385 249.141 286.339 249.75 285.563C250.359 284.781 251.167 284.391 252.172 284.391C253.203 284.391 254.008 284.755 254.586 285.484L254.656 284.547H255.977V292.797C255.977 293.891 255.651 294.753 255 295.383C254.354 296.013 253.484 296.328 252.391 296.328C251.781 296.328 251.185 296.198 250.602 295.938C250.018 295.677 249.573 295.32 249.266 294.867L250.016 294C250.635 294.766 251.393 295.148 252.289 295.148C252.992 295.148 253.539 294.951 253.93 294.555C254.325 294.159 254.523 293.602 254.523 292.883V292.156C253.945 292.823 253.156 293.156 252.156 293.156C251.167 293.156 250.365 292.758 249.75 291.961C249.141 291.164 248.836 290.078 248.836 288.703ZM250.289 288.867C250.289 289.82 250.484 290.57 250.875 291.117C251.266 291.659 251.812 291.93 252.516 291.93C253.427 291.93 254.096 291.516 254.523 290.688V286.828C254.081 286.021 253.417 285.617 252.531 285.617C251.828 285.617 251.279 285.891 250.883 286.438C250.487 286.984 250.289 287.794 250.289 288.867ZM261.672 293.156C260.526 293.156 259.594 292.781 258.875 292.031C258.156 291.276 257.797 290.268 257.797 289.008V288.742C257.797 287.904 257.956 287.156 258.273 286.5C258.596 285.839 259.044 285.323 259.617 284.953C260.195 284.578 260.82 284.391 261.492 284.391C262.591 284.391 263.445 284.753 264.055 285.477C264.664 286.201 264.969 287.237 264.969 288.586V289.188H259.242C259.263 290.021 259.505 290.695 259.969 291.211C260.437 291.721 261.031 291.977 261.75 291.977C262.26 291.977 262.693 291.872 263.047 291.664C263.401 291.456 263.711 291.18 263.977 290.836L264.859 291.523C264.151 292.612 263.088 293.156 261.672 293.156ZM261.492 285.578C260.909 285.578 260.419 285.792 260.023 286.219C259.628 286.641 259.383 287.234 259.289 288H263.523V287.891C263.482 287.156 263.284 286.589 262.93 286.188C262.575 285.781 262.096 285.578 261.492 285.578ZM58.6171 315.867C58.6171 317.154 58.3229 318.19 57.7343 318.977C57.1458 319.763 56.3489 320.156 55.3437 320.156C54.3176 320.156 53.5104 319.831 52.9218 319.18V323.25H51.4765V311.547H52.7968L52.8671 312.484C53.4557 311.755 54.2734 311.391 55.3203 311.391C56.3359 311.391 57.138 311.773 57.7265 312.539C58.3203 313.305 58.6171 314.37 58.6171 315.734V315.867ZM57.1718 315.703C57.1718 314.75 56.9687 313.997 56.5624 313.445C56.1562 312.893 55.5989 312.617 54.8906 312.617C54.0156 312.617 53.3593 313.005 52.9218 313.781V317.82C53.3541 318.591 54.0156 318.977 54.9062 318.977C55.5989 318.977 56.1484 318.703 56.5546 318.156C56.9661 317.604 57.1718 316.787 57.1718 315.703ZM62.0312 320H60.5859V308H62.0312V320ZM69.5703 320C69.4869 319.833 69.4192 319.537 69.3671 319.109C68.6953 319.807 67.8932 320.156 66.9609 320.156C66.1275 320.156 65.4426 319.922 64.9062 319.453C64.3749 318.979 64.1093 318.38 64.1093 317.656C64.1093 316.776 64.4426 316.094 65.1093 315.609C65.7812 315.12 66.7239 314.875 67.9374 314.875H69.3437V314.211C69.3437 313.706 69.1926 313.305 68.8906 313.008C68.5885 312.706 68.1432 312.555 67.5546 312.555C67.039 312.555 66.6067 312.685 66.2578 312.945C65.9088 313.206 65.7343 313.521 65.7343 313.891H64.2812C64.2812 313.469 64.4296 313.063 64.7265 312.672C65.0286 312.276 65.4348 311.964 65.9453 311.734C66.4609 311.505 67.026 311.391 67.6406 311.391C68.6145 311.391 69.3775 311.635 69.9296 312.125C70.4817 312.609 70.7682 313.279 70.789 314.133V318.023C70.789 318.8 70.888 319.417 71.0859 319.875V320H69.5703ZM67.1718 318.898C67.6249 318.898 68.0546 318.781 68.4609 318.547C68.8671 318.313 69.1614 318.008 69.3437 317.633V315.898H68.2109C66.44 315.898 65.5546 316.417 65.5546 317.453C65.5546 317.906 65.7057 318.26 66.0078 318.516C66.3098 318.771 66.6979 318.898 67.1718 318.898ZM75.0156 309.5V311.547H76.5937V312.664H75.0156V317.906C75.0156 318.245 75.0859 318.5 75.2265 318.672C75.3671 318.839 75.6067 318.922 75.9453 318.922C76.1119 318.922 76.3411 318.891 76.6328 318.828V320C76.2525 320.104 75.8828 320.156 75.5234 320.156C74.8775 320.156 74.3906 319.961 74.0624 319.57C73.7343 319.18 73.5703 318.625 73.5703 317.906V312.664H72.0312V311.547H73.5703V309.5H75.0156ZM78.9999 320V312.664H77.664V311.547H78.9999V310.68C78.9999 309.773 79.2421 309.073 79.7265 308.578C80.2109 308.083 80.8958 307.836 81.7812 307.836C82.1145 307.836 82.4453 307.88 82.7734 307.969L82.6953 309.141C82.4505 309.094 82.19 309.07 81.914 309.07C81.4453 309.07 81.0833 309.208 80.8281 309.484C80.5729 309.755 80.4453 310.146 80.4453 310.656V311.547H82.2499V312.664H80.4453V320H78.9999ZM83.4687 315.695C83.4687 314.867 83.6301 314.122 83.9531 313.461C84.2812 312.8 84.7343 312.289 85.3124 311.93C85.8958 311.57 86.5598 311.391 87.3046 311.391C88.4557 311.391 89.3854 311.789 90.0937 312.586C90.8072 313.383 91.164 314.443 91.164 315.766V315.867C91.164 316.69 91.0051 317.43 90.6874 318.086C90.3749 318.737 89.9244 319.245 89.3359 319.609C88.7525 319.974 88.0807 320.156 87.3203 320.156C86.1744 320.156 85.2447 319.758 84.5312 318.961C83.8229 318.164 83.4687 317.109 83.4687 315.797V315.695ZM84.9218 315.867C84.9218 316.805 85.138 317.557 85.5703 318.125C86.0078 318.693 86.5911 318.977 87.3203 318.977C88.0546 318.977 88.638 318.69 89.0703 318.117C89.5025 317.539 89.7187 316.732 89.7187 315.695C89.7187 314.768 89.4973 314.018 89.0546 313.445C88.6171 312.867 88.0338 312.578 87.3046 312.578C86.5911 312.578 86.0156 312.862 85.5781 313.43C85.1406 313.997 84.9218 314.81 84.9218 315.867ZM97.0624 312.844C96.8437 312.807 96.6067 312.789 96.3515 312.789C95.4036 312.789 94.7604 313.193 94.4218 314V320H92.9765V311.547H94.3828L94.4062 312.523C94.8801 311.768 95.552 311.391 96.4218 311.391C96.7031 311.391 96.9166 311.427 97.0624 311.5V312.844ZM99.7578 311.547L99.7968 312.484C100.417 311.755 101.253 311.391 102.305 311.391C103.487 311.391 104.292 311.844 104.719 312.75C105 312.344 105.365 312.016 105.812 311.766C106.266 311.516 106.799 311.391 107.414 311.391C109.268 311.391 110.211 312.372 110.242 314.336V320H108.797V314.422C108.797 313.818 108.659 313.367 108.383 313.07C108.107 312.768 107.643 312.617 106.992 312.617C106.456 312.617 106.01 312.779 105.656 313.102C105.302 313.419 105.096 313.849 105.039 314.391V320H103.586V314.461C103.586 313.232 102.984 312.617 101.781 312.617C100.833 312.617 100.185 313.021 99.8359 313.828V320H98.3906V311.547H99.7578ZM117.352 317.758C117.352 317.367 117.203 317.065 116.906 316.852C116.615 316.633 116.102 316.445 115.367 316.289C114.638 316.133 114.057 315.945 113.625 315.727C113.198 315.508 112.88 315.247 112.672 314.945C112.469 314.643 112.367 314.284 112.367 313.867C112.367 313.175 112.659 312.589 113.242 312.109C113.831 311.63 114.581 311.391 115.492 311.391C116.45 311.391 117.227 311.638 117.82 312.133C118.419 312.628 118.719 313.26 118.719 314.031H117.266C117.266 313.635 117.096 313.294 116.758 313.008C116.424 312.721 116.003 312.578 115.492 312.578C114.966 312.578 114.555 312.693 114.258 312.922C113.961 313.151 113.812 313.451 113.812 313.82C113.812 314.169 113.95 314.432 114.227 314.609C114.503 314.787 115 314.956 115.719 315.117C116.443 315.279 117.029 315.471 117.477 315.695C117.924 315.919 118.255 316.19 118.469 316.508C118.687 316.82 118.797 317.203 118.797 317.656C118.797 318.412 118.495 319.018 117.891 319.477C117.286 319.93 116.503 320.156 115.539 320.156C114.862 320.156 114.263 320.037 113.742 319.797C113.221 319.557 112.812 319.224 112.516 318.797C112.224 318.365 112.078 317.898 112.078 317.398H113.523C113.549 317.883 113.742 318.268 114.102 318.555C114.466 318.836 114.945 318.977 115.539 318.977C116.086 318.977 116.523 318.867 116.852 318.648C117.185 318.425 117.352 318.128 117.352 317.758ZM129.867 320C129.784 319.833 129.716 319.537 129.664 319.109C128.992 319.807 128.19 320.156 127.258 320.156C126.424 320.156 125.74 319.922 125.203 319.453C124.672 318.979 124.406 318.38 124.406 317.656C124.406 316.776 124.74 316.094 125.406 315.609C126.078 315.12 127.021 314.875 128.234 314.875H129.641V314.211C129.641 313.706 129.49 313.305 129.187 313.008C128.885 312.706 128.44 312.555 127.852 312.555C127.336 312.555 126.904 312.685 126.555 312.945C126.206 313.206 126.031 313.521 126.031 313.891H124.578C124.578 313.469 124.727 313.063 125.023 312.672C125.325 312.276 125.732 311.964 126.242 311.734C126.758 311.505 127.323 311.391 127.937 311.391C128.911 311.391 129.674 311.635 130.227 312.125C130.779 312.609 131.065 313.279 131.086 314.133V318.023C131.086 318.8 131.185 319.417 131.383 319.875V320H129.867ZM127.469 318.898C127.922 318.898 128.352 318.781 128.758 318.547C129.164 318.313 129.458 318.008 129.641 317.633V315.898H128.508C126.737 315.898 125.852 316.417 125.852 317.453C125.852 317.906 126.003 318.26 126.305 318.516C126.607 318.771 126.995 318.898 127.469 318.898ZM134.719 311.547L134.766 312.609C135.411 311.797 136.255 311.391 137.297 311.391C139.083 311.391 139.984 312.398 140 314.414V320H138.555V314.406C138.549 313.797 138.409 313.346 138.133 313.055C137.862 312.763 137.437 312.617 136.859 312.617C136.391 312.617 135.979 312.742 135.625 312.992C135.271 313.242 134.995 313.57 134.797 313.977V320H133.352V311.547H134.719ZM141.828 315.703C141.828 314.406 142.135 313.365 142.75 312.578C143.365 311.787 144.169 311.391 145.164 311.391C146.154 311.391 146.937 311.729 147.516 312.406V308H148.961V320H147.633L147.562 319.094C146.984 319.802 146.18 320.156 145.148 320.156C144.169 320.156 143.37 319.755 142.75 318.953C142.135 318.151 141.828 317.104 141.828 315.813V315.703ZM143.273 315.867C143.273 316.826 143.471 317.576 143.867 318.117C144.263 318.659 144.81 318.93 145.508 318.93C146.424 318.93 147.094 318.518 147.516 317.695V313.813C147.083 313.016 146.419 312.617 145.523 312.617C144.815 312.617 144.263 312.891 143.867 313.438C143.471 313.984 143.273 314.794 143.273 315.867ZM154.828 315.703C154.828 314.406 155.135 313.365 155.75 312.578C156.365 311.787 157.169 311.391 158.164 311.391C159.154 311.391 159.937 311.729 160.516 312.406V308H161.961V320H160.633L160.562 319.094C159.984 319.802 159.18 320.156 158.148 320.156C157.169 320.156 156.37 319.755 155.75 318.953C155.135 318.151 154.828 317.104 154.828 315.813V315.703ZM156.273 315.867C156.273 316.826 156.471 317.576 156.867 318.117C157.263 318.659 157.81 318.93 158.508 318.93C159.424 318.93 160.094 318.518 160.516 317.695V313.813C160.083 313.016 159.419 312.617 158.523 312.617C157.815 312.617 157.263 312.891 156.867 313.438C156.471 313.984 156.273 314.794 156.273 315.867ZM167.719 320.156C166.573 320.156 165.641 319.781 164.922 319.031C164.203 318.276 163.844 317.268 163.844 316.008V315.742C163.844 314.904 164.003 314.156 164.32 313.5C164.643 312.839 165.091 312.323 165.664 311.953C166.242 311.578 166.867 311.391 167.539 311.391C168.638 311.391 169.492 311.753 170.102 312.477C170.711 313.201 171.016 314.237 171.016 315.586V316.188H165.289C165.31 317.021 165.552 317.695 166.016 318.211C166.484 318.721 167.078 318.977 167.797 318.977C168.307 318.977 168.74 318.872 169.094 318.664C169.448 318.456 169.758 318.18 170.023 317.836L170.906 318.523C170.198 319.612 169.135 320.156 167.719 320.156ZM167.539 312.578C166.956 312.578 166.466 312.792 166.07 313.219C165.674 313.641 165.43 314.234 165.336 315H169.57V314.891C169.529 314.156 169.331 313.589 168.977 313.188C168.622 312.781 168.143 312.578 167.539 312.578ZM176.203 320.156C175.057 320.156 174.125 319.781 173.406 319.031C172.687 318.276 172.328 317.268 172.328 316.008V315.742C172.328 314.904 172.487 314.156 172.805 313.5C173.128 312.839 173.575 312.323 174.148 311.953C174.727 311.578 175.352 311.391 176.023 311.391C177.122 311.391 177.977 311.753 178.586 312.477C179.195 313.201 179.5 314.237 179.5 315.586V316.188H173.773C173.794 317.021 174.036 317.695 174.5 318.211C174.969 318.721 175.562 318.977 176.281 318.977C176.792 318.977 177.224 318.872 177.578 318.664C177.932 318.456 178.242 318.18 178.508 317.836L179.391 318.523C178.682 319.612 177.62 320.156 176.203 320.156ZM176.023 312.578C175.44 312.578 174.95 312.792 174.555 313.219C174.159 313.641 173.914 314.234 173.82 315H178.055V314.891C178.013 314.156 177.815 313.589 177.461 313.188C177.107 312.781 176.628 312.578 176.023 312.578ZM182.539 311.547L182.578 312.484C183.198 311.755 184.034 311.391 185.086 311.391C186.268 311.391 187.073 311.844 187.5 312.75C187.781 312.344 188.146 312.016 188.594 311.766C189.047 311.516 189.581 311.391 190.195 311.391C192.049 311.391 192.992 312.372 193.023 314.336V320H191.578V314.422C191.578 313.818 191.44 313.367 191.164 313.07C190.888 312.768 190.424 312.617 189.773 312.617C189.237 312.617 188.792 312.779 188.437 313.102C188.083 313.419 187.878 313.849 187.82 314.391V320H186.367V314.461C186.367 313.232 185.766 312.617 184.562 312.617C183.615 312.617 182.966 313.021 182.617 313.828V320H181.172V311.547H182.539ZM201.141 309.5V311.547H202.719V312.664H201.141V317.906C201.141 318.245 201.211 318.5 201.352 318.672C201.492 318.839 201.732 318.922 202.07 318.922C202.237 318.922 202.466 318.891 202.758 318.828V320C202.378 320.104 202.008 320.156 201.648 320.156C201.003 320.156 200.516 319.961 200.187 319.57C199.859 319.18 199.695 318.625 199.695 317.906V312.664H198.156V311.547H199.695V309.5H201.141ZM205.859 312.57C206.5 311.784 207.333 311.391 208.359 311.391C210.146 311.391 211.047 312.398 211.062 314.414V320H209.617V314.406C209.612 313.797 209.471 313.346 209.195 313.055C208.924 312.763 208.5 312.617 207.922 312.617C207.453 312.617 207.042 312.742 206.687 312.992C206.333 313.242 206.057 313.57 205.859 313.977V320H204.414V308H205.859V312.57ZM214.797 320H213.352V311.547H214.797V320ZM213.234 309.305C213.234 309.07 213.305 308.872 213.445 308.711C213.591 308.55 213.805 308.469 214.086 308.469C214.367 308.469 214.581 308.55 214.727 308.711C214.872 308.872 214.945 309.07 214.945 309.305C214.945 309.539 214.872 309.734 214.727 309.891C214.581 310.047 214.367 310.125 214.086 310.125C213.805 310.125 213.591 310.047 213.445 309.891C213.305 309.734 213.234 309.539 213.234 309.305ZM222.039 317.758C222.039 317.367 221.891 317.065 221.594 316.852C221.302 316.633 220.789 316.445 220.055 316.289C219.325 316.133 218.745 315.945 218.312 315.727C217.885 315.508 217.568 315.247 217.359 314.945C217.156 314.643 217.055 314.284 217.055 313.867C217.055 313.175 217.346 312.589 217.93 312.109C218.518 311.63 219.268 311.391 220.18 311.391C221.138 311.391 221.914 311.638 222.508 312.133C223.107 312.628 223.406 313.26 223.406 314.031H221.953C221.953 313.635 221.784 313.294 221.445 313.008C221.112 312.721 220.69 312.578 220.18 312.578C219.654 312.578 219.242 312.693 218.945 312.922C218.648 313.151 218.5 313.451 218.5 313.82C218.5 314.169 218.638 314.432 218.914 314.609C219.19 314.787 219.687 314.956 220.406 315.117C221.13 315.279 221.716 315.471 222.164 315.695C222.612 315.919 222.943 316.19 223.156 316.508C223.375 316.82 223.484 317.203 223.484 317.656C223.484 318.412 223.182 319.018 222.578 319.477C221.974 319.93 221.19 320.156 220.227 320.156C219.549 320.156 218.95 320.037 218.43 319.797C217.909 319.557 217.5 319.224 217.203 318.797C216.911 318.365 216.766 317.898 216.766 317.398H218.211C218.237 317.883 218.43 318.268 218.789 318.555C219.154 318.836 219.633 318.977 220.227 318.977C220.773 318.977 221.211 318.867 221.539 318.648C221.872 318.425 222.039 318.128 222.039 317.758ZM230.047 320V312.664H228.711V311.547H230.047V310.68C230.047 309.773 230.289 309.073 230.773 308.578C231.258 308.083 231.943 307.836 232.828 307.836C233.161 307.836 233.492 307.88 233.82 307.969L233.742 309.141C233.497 309.094 233.237 309.07 232.961 309.07C232.492 309.07 232.13 309.208 231.875 309.484C231.62 309.755 231.492 310.146 231.492 310.656V311.547H233.297V312.664H231.492V320H230.047ZM238.219 320.156C237.073 320.156 236.141 319.781 235.422 319.031C234.703 318.276 234.344 317.268 234.344 316.008V315.742C234.344 314.904 234.503 314.156 234.82 313.5C235.143 312.839 235.591 312.323 236.164 311.953C236.742 311.578 237.367 311.391 238.039 311.391C239.138 311.391 239.992 311.753 240.602 312.477C241.211 313.201 241.516 314.237 241.516 315.586V316.188H235.789C235.81 317.021 236.052 317.695 236.516 318.211C236.984 318.721 237.578 318.977 238.297 318.977C238.807 318.977 239.24 318.872 239.594 318.664C239.948 318.456 240.258 318.18 240.523 317.836L241.406 318.523C240.698 319.612 239.635 320.156 238.219 320.156ZM238.039 312.578C237.456 312.578 236.966 312.792 236.57 313.219C236.174 313.641 235.93 314.234 235.836 315H240.07V314.891C240.029 314.156 239.831 313.589 239.477 313.188C239.122 312.781 238.643 312.578 238.039 312.578ZM248.414 320C248.331 319.833 248.263 319.537 248.211 319.109C247.539 319.807 246.737 320.156 245.805 320.156C244.971 320.156 244.286 319.922 243.75 319.453C243.219 318.979 242.953 318.38 242.953 317.656C242.953 316.776 243.286 316.094 243.953 315.609C244.625 315.12 245.568 314.875 246.781 314.875H248.187V314.211C248.187 313.706 248.036 313.305 247.734 313.008C247.432 312.706 246.987 312.555 246.398 312.555C245.883 312.555 245.45 312.685 245.102 312.945C244.753 313.206 244.578 313.521 244.578 313.891H243.125C243.125 313.469 243.273 313.063 243.57 312.672C243.872 312.276 244.279 311.964 244.789 311.734C245.305 311.505 245.87 311.391 246.484 311.391C247.458 311.391 248.221 311.635 248.773 312.125C249.325 312.609 249.612 313.279 249.633 314.133V318.023C249.633 318.8 249.732 319.417 249.93 319.875V320H248.414ZM246.016 318.898C246.469 318.898 246.898 318.781 247.305 318.547C247.711 318.313 248.005 318.008 248.187 317.633V315.898H247.055C245.284 315.898 244.398 316.417 244.398 317.453C244.398 317.906 244.549 318.26 244.852 318.516C245.154 318.771 245.542 318.898 246.016 318.898ZM253.859 309.5V311.547H255.437V312.664H253.859V317.906C253.859 318.245 253.93 318.5 254.07 318.672C254.211 318.839 254.45 318.922 254.789 318.922C254.956 318.922 255.185 318.891 255.477 318.828V320C255.096 320.104 254.727 320.156 254.367 320.156C253.721 320.156 253.234 319.961 252.906 319.57C252.578 319.18 252.414 318.625 252.414 317.906V312.664H250.875V311.547H252.414V309.5H253.859ZM262.352 319.164C261.789 319.826 260.963 320.156 259.875 320.156C258.974 320.156 258.286 319.896 257.812 319.375C257.344 318.849 257.107 318.073 257.102 317.047V311.547H258.547V317.008C258.547 318.289 259.068 318.93 260.109 318.93C261.213 318.93 261.948 318.518 262.312 317.695V311.547H263.758V320H262.383L262.352 319.164ZM270.047 312.844C269.828 312.807 269.591 312.789 269.336 312.789C268.388 312.789 267.745 313.193 267.406 314V320H265.961V311.547H267.367L267.391 312.523C267.865 311.768 268.536 311.391 269.406 311.391C269.687 311.391 269.901 311.427 270.047 311.5V312.844ZM274.734 320.156C273.588 320.156 272.656 319.781 271.937 319.031C271.219 318.276 270.859 317.268 270.859 316.008V315.742C270.859 314.904 271.018 314.156 271.336 313.5C271.659 312.839 272.107 312.323 272.68 311.953C273.258 311.578 273.883 311.391 274.555 311.391C275.654 311.391 276.508 311.753 277.117 312.477C277.727 313.201 278.031 314.237 278.031 315.586V316.188H272.305C272.325 317.021 272.568 317.695 273.031 318.211C273.5 318.721 274.094 318.977 274.812 318.977C275.323 318.977 275.755 318.872 276.109 318.664C276.463 318.456 276.773 318.18 277.039 317.836L277.922 318.523C277.213 319.612 276.151 320.156 274.734 320.156ZM274.555 312.578C273.971 312.578 273.482 312.792 273.086 313.219C272.69 313.641 272.445 314.234 272.352 315H276.586V314.891C276.544 314.156 276.346 313.589 275.992 313.188C275.638 312.781 275.159 312.578 274.555 312.578ZM106.703 347C106.62 346.833 106.552 346.537 106.5 346.109C105.828 346.807 105.026 347.156 104.094 347.156C103.26 347.156 102.575 346.922 102.039 346.453C101.508 345.979 101.242 345.38 101.242 344.656C101.242 343.776 101.575 343.094 102.242 342.609C102.914 342.12 103.857 341.875 105.07 341.875H106.477V341.211C106.477 340.706 106.325 340.305 106.023 340.008C105.721 339.706 105.276 339.555 104.687 339.555C104.172 339.555 103.74 339.685 103.391 339.945C103.042 340.206 102.867 340.521 102.867 340.891H101.414C101.414 340.469 101.562 340.063 101.859 339.672C102.161 339.276 102.568 338.964 103.078 338.734C103.594 338.505 104.159 338.391 104.773 338.391C105.747 338.391 106.51 338.635 107.062 339.125C107.615 339.609 107.901 340.279 107.922 341.133V345.023C107.922 345.8 108.021 346.417 108.219 346.875V347H106.703ZM104.305 345.898C104.758 345.898 105.187 345.781 105.594 345.547C106 345.313 106.294 345.008 106.477 344.633V342.898H105.344C103.573 342.898 102.687 343.417 102.687 344.453C102.687 344.906 102.838 345.26 103.141 345.516C103.443 345.771 103.831 345.898 104.305 345.898ZM115.109 344.758C115.109 344.367 114.961 344.065 114.664 343.852C114.372 343.633 113.859 343.445 113.125 343.289C112.396 343.133 111.815 342.945 111.383 342.727C110.956 342.508 110.638 342.247 110.43 341.945C110.227 341.643 110.125 341.284 110.125 340.867C110.125 340.175 110.417 339.589 111 339.109C111.588 338.63 112.338 338.391 113.25 338.391C114.208 338.391 114.984 338.638 115.578 339.133C116.177 339.628 116.477 340.26 116.477 341.031H115.023C115.023 340.635 114.854 340.294 114.516 340.008C114.182 339.721 113.76 339.578 113.25 339.578C112.724 339.578 112.312 339.693 112.016 339.922C111.719 340.151 111.57 340.451 111.57 340.82C111.57 341.169 111.708 341.432 111.984 341.609C112.26 341.787 112.758 341.956 113.477 342.117C114.2 342.279 114.786 342.471 115.234 342.695C115.682 342.919 116.013 343.19 116.227 343.508C116.445 343.82 116.555 344.203 116.555 344.656C116.555 345.412 116.253 346.018 115.648 346.477C115.044 346.93 114.26 347.156 113.297 347.156C112.62 347.156 112.021 347.037 111.5 346.797C110.979 346.557 110.57 346.224 110.273 345.797C109.982 345.365 109.836 344.898 109.836 344.398H111.281C111.307 344.883 111.5 345.268 111.859 345.555C112.224 345.836 112.703 345.977 113.297 345.977C113.844 345.977 114.281 345.867 114.609 345.648C114.943 345.425 115.109 345.128 115.109 344.758ZM125.195 345.039L127.289 338.547H128.766L125.734 347H124.633L121.57 338.547H123.047L125.195 345.039ZM133.555 347.156C132.409 347.156 131.477 346.781 130.758 346.031C130.039 345.276 129.68 344.268 129.68 343.008V342.742C129.68 341.904 129.838 341.156 130.156 340.5C130.479 339.839 130.927 339.323 131.5 338.953C132.078 338.578 132.703 338.391 133.375 338.391C134.474 338.391 135.328 338.753 135.937 339.477C136.547 340.201 136.852 341.237 136.852 342.586V343.188H131.125C131.146 344.021 131.388 344.695 131.852 345.211C132.32 345.721 132.914 345.977 133.633 345.977C134.143 345.977 134.575 345.872 134.93 345.664C135.284 345.456 135.594 345.18 135.859 344.836L136.742 345.523C136.034 346.612 134.971 347.156 133.555 347.156ZM133.375 339.578C132.792 339.578 132.302 339.792 131.906 340.219C131.51 340.641 131.266 341.234 131.172 342H135.406V341.891C135.365 341.156 135.167 340.589 134.812 340.188C134.458 339.781 133.979 339.578 133.375 339.578ZM142.617 339.844C142.398 339.807 142.161 339.789 141.906 339.789C140.958 339.789 140.315 340.193 139.977 341V347H138.531V338.547H139.937L139.961 339.523C140.435 338.768 141.107 338.391 141.977 338.391C142.258 338.391 142.471 338.427 142.617 338.5V339.844ZM146.859 344.883L148.828 338.547H150.375L146.977 348.305C146.45 349.711 145.615 350.414 144.469 350.414L144.195 350.391L143.656 350.289V349.117L144.047 349.148C144.536 349.148 144.917 349.05 145.187 348.852C145.463 348.654 145.69 348.292 145.867 347.766L146.187 346.906L143.172 338.547H144.75L146.859 344.883ZM157.211 347H155.766V338.547H157.211V347ZM155.648 336.305C155.648 336.07 155.719 335.872 155.859 335.711C156.005 335.55 156.219 335.469 156.5 335.469C156.781 335.469 156.995 335.55 157.141 335.711C157.286 335.872 157.359 336.07 157.359 336.305C157.359 336.539 157.286 336.734 157.141 336.891C156.995 337.047 156.781 337.125 156.5 337.125C156.219 337.125 156.005 337.047 155.859 336.891C155.719 336.734 155.648 336.539 155.648 336.305ZM160.891 338.547L160.93 339.484C161.549 338.755 162.385 338.391 163.437 338.391C164.62 338.391 165.424 338.844 165.852 339.75C166.133 339.344 166.497 339.016 166.945 338.766C167.398 338.516 167.932 338.391 168.547 338.391C170.401 338.391 171.344 339.372 171.375 341.336V347H169.93V341.422C169.93 340.818 169.792 340.367 169.516 340.07C169.24 339.768 168.776 339.617 168.125 339.617C167.588 339.617 167.143 339.779 166.789 340.102C166.435 340.419 166.229 340.849 166.172 341.391V347H164.719V341.461C164.719 340.232 164.117 339.617 162.914 339.617C161.966 339.617 161.318 340.021 160.969 340.828V347H159.523V338.547H160.891ZM180.703 342.867C180.703 344.154 180.409 345.19 179.82 345.977C179.232 346.763 178.435 347.156 177.43 347.156C176.404 347.156 175.596 346.831 175.008 346.18V350.25H173.562V338.547H174.883L174.953 339.484C175.542 338.755 176.359 338.391 177.406 338.391C178.422 338.391 179.224 338.773 179.812 339.539C180.406 340.305 180.703 341.37 180.703 342.734V342.867ZM179.258 342.703C179.258 341.75 179.055 340.997 178.648 340.445C178.242 339.893 177.685 339.617 176.977 339.617C176.102 339.617 175.445 340.005 175.008 340.781V344.82C175.44 345.591 176.102 345.977 176.992 345.977C177.685 345.977 178.234 345.703 178.641 345.156C179.052 344.604 179.258 343.787 179.258 342.703ZM182.164 342.695C182.164 341.867 182.325 341.122 182.648 340.461C182.977 339.8 183.43 339.289 184.008 338.93C184.591 338.57 185.255 338.391 186 338.391C187.151 338.391 188.081 338.789 188.789 339.586C189.503 340.383 189.859 341.443 189.859 342.766V342.867C189.859 343.69 189.7 344.43 189.383 345.086C189.07 345.737 188.62 346.245 188.031 346.609C187.448 346.974 186.776 347.156 186.016 347.156C184.87 347.156 183.94 346.758 183.227 345.961C182.518 345.164 182.164 344.109 182.164 342.797V342.695ZM183.617 342.867C183.617 343.805 183.833 344.557 184.266 345.125C184.703 345.693 185.286 345.977 186.016 345.977C186.75 345.977 187.333 345.69 187.766 345.117C188.198 344.539 188.414 343.732 188.414 342.695C188.414 341.768 188.193 341.018 187.75 340.445C187.312 339.867 186.729 339.578 186 339.578C185.286 339.578 184.711 339.862 184.273 340.43C183.836 340.997 183.617 341.81 183.617 342.867ZM195.758 339.844C195.539 339.807 195.302 339.789 195.047 339.789C194.099 339.789 193.456 340.193 193.117 341V347H191.672V338.547H193.078L193.102 339.523C193.575 338.768 194.247 338.391 195.117 338.391C195.398 338.391 195.612 338.427 195.758 338.5V339.844ZM199.445 336.5V338.547H201.023V339.664H199.445V344.906C199.445 345.245 199.516 345.5 199.656 345.672C199.797 345.839 200.036 345.922 200.375 345.922C200.542 345.922 200.771 345.891 201.062 345.828V347C200.682 347.104 200.312 347.156 199.953 347.156C199.307 347.156 198.82 346.961 198.492 346.57C198.164 346.18 198 345.625 198 344.906V339.664H196.461V338.547H198V336.5H199.445ZM207.937 347C207.854 346.833 207.786 346.537 207.734 346.109C207.062 346.807 206.26 347.156 205.328 347.156C204.495 347.156 203.81 346.922 203.273 346.453C202.742 345.979 202.477 345.38 202.477 344.656C202.477 343.776 202.81 343.094 203.477 342.609C204.148 342.12 205.091 341.875 206.305 341.875H207.711V341.211C207.711 340.706 207.56 340.305 207.258 340.008C206.956 339.706 206.51 339.555 205.922 339.555C205.406 339.555 204.974 339.685 204.625 339.945C204.276 340.206 204.102 340.521 204.102 340.891H202.648C202.648 340.469 202.797 340.063 203.094 339.672C203.396 339.276 203.802 338.964 204.312 338.734C204.828 338.505 205.393 338.391 206.008 338.391C206.982 338.391 207.745 338.635 208.297 339.125C208.849 339.609 209.135 340.279 209.156 341.133V345.023C209.156 345.8 209.255 346.417 209.453 346.875V347H207.937ZM205.539 345.898C205.992 345.898 206.422 345.781 206.828 345.547C207.234 345.313 207.529 345.008 207.711 344.633V342.898H206.578C204.807 342.898 203.922 343.417 203.922 344.453C203.922 344.906 204.073 345.26 204.375 345.516C204.677 345.771 205.065 345.898 205.539 345.898ZM212.789 338.547L212.836 339.609C213.482 338.797 214.325 338.391 215.367 338.391C217.154 338.391 218.055 339.398 218.07 341.414V347H216.625V341.406C216.62 340.797 216.479 340.346 216.203 340.055C215.932 339.763 215.508 339.617 214.93 339.617C214.461 339.617 214.049 339.742 213.695 339.992C213.341 340.242 213.065 340.57 212.867 340.977V347H211.422V338.547H212.789ZM222.211 336.5V338.547H223.789V339.664H222.211V344.906C222.211 345.245 222.281 345.5 222.422 345.672C222.562 345.839 222.802 345.922 223.141 345.922C223.307 345.922 223.536 345.891 223.828 345.828V347C223.448 347.104 223.078 347.156 222.719 347.156C222.073 347.156 221.586 346.961 221.258 346.57C220.93 346.18 220.766 345.625 220.766 344.906V339.664H219.227V338.547H220.766V336.5H222.211ZM225.516 346.242C225.516 345.992 225.588 345.784 225.734 345.617C225.885 345.451 226.109 345.367 226.406 345.367C226.703 345.367 226.927 345.451 227.078 345.617C227.234 345.784 227.312 345.992 227.312 346.242C227.312 346.482 227.234 346.682 227.078 346.844C226.927 347.005 226.703 347.086 226.406 347.086C226.109 347.086 225.885 347.005 225.734 346.844C225.588 346.682 225.516 346.482 225.516 346.242Z" fill="#383838"/>
<defs>
<filter id="filter0_dd" x="0" y="0" width="328" height="393" filterUnits="userSpaceOnUse" color-interpolation-filters="sRGB">
<feFlood flood-opacity="0" result="BackgroundImageFix"/>
<feColorMatrix in="SourceAlpha" type="matrix" values="0 0 0 0 0 0 0 0 0 0 0 0 0 0 0 0 0 0 127 0"/>
<feOffset dy="-1"/>
<feGaussianBlur stdDeviation="0.5"/>
<feColorMatrix type="matrix" values="0 0 0 0 0 0 0 0 0 0 0 0 0 0 0 0 0 0 0.12 0"/>
<feBlend mode="normal" in2="BackgroundImageFix" result="effect1_dropShadow"/>
<feColorMatrix in="SourceAlpha" type="matrix" values="0 0 0 0 0 0 0 0 0 0 0 0 0 0 0 0 0 0 127 0"/>
<feOffset dy="4"/>
<feGaussianBlur stdDeviation="2"/>
<feColorMatrix type="matrix" values="0 0 0 0 0 0 0 0 0 0 0 0 0 0 0 0 0 0 0.25 0"/>
<feBlend mode="normal" in2="effect1_dropShadow" result="effect2_dropShadow"/>
<feBlend mode="normal" in="SourceGraphic" in2="effect2_dropShadow" result="shape"/>
</filter>
<filter id="filter1_d" x="64.9728" y="30.9413" width="203.054" height="203.054" filterUnits="userSpaceOnUse" color-interpolation-filters="sRGB">
<feFlood flood-opacity="0" result="BackgroundImageFix"/>
<feColorMatrix in="SourceAlpha" type="matrix" values="0 0 0 0 0 0 0 0 0 0 0 0 0 0 0 0 0 0 127 0"/>
<feOffset dx="2" dy="2"/>
<feGaussianBlur stdDeviation="1"/>
<feColorMatrix type="matrix" values="0 0 0 0 0 0 0 0 0 0 0 0 0 0 0 0 0 0 0.25 0"/>
<feBlend mode="normal" in2="BackgroundImageFix" result="effect1_dropShadow"/>
<feBlend mode="normal" in="SourceGraphic" in2="effect1_dropShadow" result="shape"/>
</filter>
</defs>
</svg>
